<?xml version="1.0" encoding="UTF-8" standalone="no"?>
<svg
   xmlns:dc="http://purl.org/dc/elements/1.1/"
   xmlns:cc="http://creativecommons.org/ns#"
   xmlns:rdf="http://www.w3.org/1999/02/22-rdf-syntax-ns#"
   xmlns:svg="http://www.w3.org/2000/svg"
   xmlns="http://www.w3.org/2000/svg"
   xmlns:sodipodi="http://sodipodi.sourceforge.net/DTD/sodipodi-0.dtd"
   xmlns:inkscape="http://www.inkscape.org/namespaces/inkscape"
   viewBox="0 0 640.00018 447.65493"
   width="640.00018pt"
   height="447.65494pt"
   version="1.1"
   id="svg2"
   inkscape:version="0.91 r13725"
   sodipodi:docname="db.svg">
  <metadata
     id="metadata19">
    <rdf:RDF>
      <cc:Work
         rdf:about="">
        <dc:format>image/svg+xml</dc:format>
        <dc:type
           rdf:resource="http://purl.org/dc/dcmitype/StillImage" />
        <dc:title></dc:title>
      </cc:Work>
    </rdf:RDF>
  </metadata>
  <sodipodi:namedview
     pagecolor="#ffffff"
     bordercolor="#666666"
     borderopacity="1"
     objecttolerance="10"
     gridtolerance="10"
     guidetolerance="10"
     inkscape:pageopacity="0"
     inkscape:pageshadow="2"
     inkscape:window-width="1920"
     inkscape:window-height="1155"
     id="namedview17"
     showgrid="false"
     fit-margin-top="0"
     fit-margin-left="0"
     fit-margin-right="0"
     fit-margin-bottom="0"
     inkscape:zoom="0.2421875"
     inkscape:cx="1744.4516"
     inkscape:cy="-290.12913"
     inkscape:window-x="0"
     inkscape:window-y="1"
     inkscape:window-maximized="1"
     inkscape:current-layer="svg2" />
  <defs
     id="defs4" />
  <g
     id="g4149"
     inkscape:export-xdpi="64.43"
     inkscape:export-ydpi="64.43"
     transform="matrix(0.95436257,0,0,0.95426834,843.31088,302.63157)">
    <rect
       ry="67.067085"
       rx="67.060463"
       y="-315.45807"
       x="-881.96124"
       height="465.75485"
       width="667.25165"
       id="rect4147"
       style="opacity:1;fill:#ececec;fill-opacity:1;stroke:#6e5e5e;stroke-width:3.35318899;stroke-linecap:butt;stroke-linejoin:round;stroke-miterlimit:4;stroke-dasharray:none;stroke-dashoffset:0;stroke-opacity:1" />
    <g
       transform="translate(-1027.3033,-399.69033)"
       layerName="Layer 1"
       id="Layer 1">
      <g
         style="opacity:1"
         id="g7">
        <path
           style="opacity:1;fill:#a82031"
           inkscape:connector-curvature="0"
           id="path9"
           d="m 530.062,133.469 c -9.859,-0.103 -19.731,-0.042 -29.593,0.125 -9.862,0.166 -19.739,0.463 -29.594,0.875 -9.855,0.412 -19.693,0.962 -29.531,1.593 -9.838,0.632 -19.688,1.396 -29.5,2.219 -9.813,0.824 -19.605,1.734 -29.375,2.719 -9.771,0.985 -21.078,2.282 -29.25,3.188 -8.172,0.905 -14.716,1.687 -19.781,2.25 -5.066,0.562 -7.032,0.77 -10.594,1.124 -3.562,0.355 -18.06,1.666 -21.719,2 -3.659,0.335 -7.344,0.645 -11.031,1 -3.687,0.356 -7.39,0.728 -11.094,1.126 -3.704,0.397 -7.415,0.82 -11.125,1.281 -3.71,0.46 -7.415,0.925 -11.125,1.469 -2.042,0.299 -4.079,0.64 -6.125,0.968 -1.561,-4.392 -7.726,-7.115 -16.937,-3.844 -0.379,0.068 -1.493,0.258 -2.25,0.407 -0.758,0.149 -1.52,0.326 -2.282,0.5 -0.762,0.174 -1.541,0.367 -2.312,0.562 -0.771,0.196 -1.531,0.377 -2.313,0.594 -0.782,0.217 -1.581,0.446 -2.375,0.687 -0.794,0.242 -1.6,0.513 -2.406,0.782 -0.806,0.269 -1.62,0.543 -2.438,0.844 -0.817,0.3 -1.603,0.611 -2.468,0.968 -0.865,0.358 -1.454,0.546 -2.719,1.188 -1.265,0.641 -3.012,1.486 -4.875,2.656 -1.863,1.17 -4.353,2.733 -6.281,4.344 -1.928,1.61 -3.753,3.365 -5.281,5.312 -1.529,1.948 -2.926,4.078 -3.907,6.375 -0.981,2.298 -1.733,4.884 -1.969,7.407 -0.235,2.522 -0.037,5.298 0.563,7.75 0.6,2.451 1.711,4.877 3.031,6.968 1.32,2.091 3.038,3.932 4.875,5.563 1.837,1.631 3.965,3.006 6.157,4.219 2.191,1.212 4.451,2.151 7,3.062 2.548,0.911 5.352,1.662 8.281,2.406 2.929,0.745 6.185,1.442 9.281,2.063 3.096,0.621 6.216,1.16 9.312,1.656 3.097,0.496 6.191,0.922 9.282,1.313 3.091,0.39 6.169,0.728 9.25,1.031 3.081,0.302 6.151,0.549 9.218,0.781 3.068,0.232 6.139,0.445 9.188,0.625 3.049,0.18 6.098,0.324 9.125,0.469 3.027,0.144 14.316,0.607 18.063,0.75 3.746,0.142 8.252,0.334 13.468,0.5 5.216,0.165 11.903,0.366 17.844,0.5 5.941,0.134 11.852,0.235 17.781,0.312 5.93,0.077 29.622,0.206 35.531,0.25 5.91,0.045 82.723,0.977 88.344,1.063 5.622,0.086 55.152,1.102 60.063,1.187 4.91,0.085 9.826,0.163 14.75,0.219 4.923,0.056 9.848,0.111 14.781,0.125 4.933,0.014 9.873,0.011 14.812,-0.031 4.94,-0.042 9.871,-0.107 14.813,-0.219 4.942,-0.112 9.902,-0.274 14.844,-0.469 4.941,-0.195 10.298,-0.46 14.812,-0.719 4.514,-0.258 8.595,-0.523 12.25,-0.812 3.656,-0.289 6.474,-0.568 9.688,-0.906 3.214,-0.339 6.399,-0.717 9.593,-1.125 3.195,-0.409 6.386,-0.872 9.563,-1.344 3.177,-0.472 6.339,-0.969 9.5,-1.5 3.161,-0.531 6.322,-1.104 9.469,-1.687 3.146,-0.584 6.304,-1.182 9.437,-1.813 3.134,-0.631 6.253,-1.297 9.375,-1.969 3.122,-0.672 6.249,-1.358 9.344,-2.062 3.095,-0.705 13.49,-3.183 14.875,-3.5 1.385,-0.318 1.658,-0.346 2.656,-0.563 0.998,-0.216 2.15,-0.444 3.344,-0.719 1.194,-0.275 2.492,-0.589 3.813,-0.937 1.32,-0.348 2.732,-0.711 4.124,-1.156 1.393,-0.445 2.798,-0.915 4.219,-1.5 1.421,-0.586 2.873,-1.222 4.281,-2.031 1.409,-0.81 2.886,-1.67 4.188,-2.844 1.302,-1.175 2.672,-2.553 3.625,-4.188 0.953,-1.635 1.797,-3.707 2.094,-5.625 0.297,-1.918 0.1,-4.089 -0.313,-5.875 -0.412,-1.785 -1.28,-3.416 -2.156,-4.812 -0.876,-1.396 -1.994,-2.504 -3.094,-3.563 -1.1,-1.058 -2.282,-1.96 -3.5,-2.812 -1.217,-0.852 -2.531,-1.596 -3.812,-2.313 -1.282,-0.717 -2.584,-1.355 -3.875,-1.968 -1.291,-0.614 -2.607,-1.196 -3.844,-1.719 -1.237,-0.523 -2.487,-1.005 -3.594,-1.438 -1.106,-0.433 -2.147,-0.808 -3.062,-1.156 -0.916,-0.348 -1.084,-0.409 -2.438,-0.937 -1.353,-0.529 -3.187,-1.273 -5.687,-2.219 -2.501,-0.946 -6.185,-2.359 -9.313,-3.438 -3.127,-1.079 -6.271,-2.078 -9.437,-3.031 -3.167,-0.953 -6.366,-1.848 -9.563,-2.688 -3.196,-0.839 -6.408,-1.636 -9.625,-2.374 -3.216,-0.739 -6.429,-1.413 -9.656,-2.063 -3.227,-0.65 -6.49,-1.239 -9.719,-1.813 -3.229,-0.573 -6.434,-1.115 -9.656,-1.624 -3.222,-0.51 -6.443,-0.98 -9.656,-1.438 -3.213,-0.458 -4.768,-0.729 -9.625,-1.312 -4.858,-0.584 -11.373,-1.383 -19.532,-2.188 -8.158,-0.805 -19.612,-1.912 -29.437,-2.625 -9.825,-0.713 -19.652,-1.26 -29.5,-1.656 -9.848,-0.396 -19.703,-0.647 -29.563,-0.75 z m -29.312,10.719 c 9.766,-0.075 19.531,-0.02 29.281,0.218 9.751,0.238 19.498,0.623 29.219,1.188 9.721,0.565 19.417,1.28 29.094,2.187 9.676,0.908 20.962,2.273 28.968,3.25 8.007,0.978 14.321,1.936 19.063,2.625 4.742,0.689 6.242,1.002 9.375,1.532 3.133,0.529 6.299,1.074 9.438,1.656 3.138,0.581 6.28,1.169 9.406,1.812 3.126,0.643 6.241,1.317 9.344,2.032 3.102,0.714 6.212,1.484 9.281,2.281 3.069,0.796 6.1,1.611 9.125,2.5 3.024,0.888 6.03,1.822 9,2.812 2.97,0.99 5.939,2.024 8.844,3.125 2.904,1.101 6.272,2.54 8.593,3.5 2.321,0.96 4.004,1.725 5.313,2.282 1.308,0.556 1.597,0.644 2.531,1.031 0.934,0.387 2.007,0.831 3.063,1.281 1.055,0.45 2.189,0.936 3.281,1.438 1.091,0.501 2.224,1.017 3.281,1.562 1.057,0.545 2.123,1.117 3.062,1.688 0.939,0.57 1.835,1.191 2.563,1.75 0.728,0.558 1.387,1.156 1.813,1.624 0.425,0.468 0.669,0.948 0.75,1.188 0.08,0.24 -0.132,0.338 -0.282,0.25 -0.15,-0.088 -0.452,-0.491 -0.625,-0.781 -0.172,-0.291 -0.237,-0.772 -0.406,-0.969 -0.169,-0.197 -0.253,-0.269 -0.594,-0.219 -0.34,0.051 -0.818,0.308 -1.437,0.531 -0.62,0.224 -1.423,0.536 -2.282,0.813 -0.858,0.277 -1.87,0.576 -2.874,0.844 -1.005,0.267 -2.098,0.514 -3.157,0.75 -1.058,0.236 -2.155,0.455 -3.187,0.656 -1.033,0.201 -2.059,0.389 -3,0.563 -0.941,0.173 -1.228,0.186 -2.656,0.468 -1.429,0.283 -12.159,2.487 -15.25,3.094 -3.092,0.607 -6.148,1.216 -9.219,1.781 -3.072,0.566 -6.149,1.102 -9.219,1.625 -3.07,0.523 -6.15,1.025 -9.219,1.5 -3.069,0.476 -6.118,0.921 -9.187,1.344 -3.07,0.423 -6.148,0.822 -9.219,1.188 -3.071,0.365 -6.145,0.697 -9.219,1 -3.074,0.302 -6.141,0.576 -9.218,0.812 -3.078,0.236 -5.742,0.446 -9.25,0.625 -3.509,0.179 -7.444,0.338 -11.813,0.469 -4.369,0.131 -9.595,0.248 -14.406,0.312 -4.812,0.064 -9.64,0.074 -14.469,0.063 -4.829,-0.011 -9.657,-0.053 -14.5,-0.125 -4.843,-0.073 -9.707,-0.193 -14.562,-0.313 -4.856,-0.119 -24.316,-0.735 -29.188,-0.906 -4.872,-0.171 -38.764,-1.388 -43.906,-1.531 -5.142,-0.143 -10.552,-0.264 -16.219,-0.375 -5.667,-0.112 -11.856,-0.214 -17.781,-0.281 -5.925,-0.068 -11.834,-0.104 -17.75,-0.126 -5.917,-0.021 -29.542,0.042 -35.438,0.032 -5.896,-0.01 -11.801,-0.025 -17.687,-0.094 -5.887,-0.069 -11.748,-0.18 -17.625,-0.312 -5.877,-0.133 -11.757,-0.311 -17.625,-0.5 -5.868,-0.19 -11.735,-0.406 -17.594,-0.657 -5.859,-0.25 -12.429,-0.579 -17.563,-0.843 -5.133,-0.265 -28.202,-1.595 -31.187,-1.782 -2.985,-0.187 -5.974,-0.38 -8.937,-0.594 -2.964,-0.213 -5.907,-0.433 -8.844,-0.687 -2.938,-0.254 -5.874,-0.504 -8.782,-0.813 -2.907,-0.308 -5.781,-0.654 -8.656,-1.031 -2.874,-0.376 -5.725,-0.792 -8.562,-1.25 -2.838,-0.458 -5.671,-0.947 -8.469,-1.5 -2.798,-0.552 -5.843,-1.2 -8.344,-1.812 -2.501,-0.612 -4.893,-1.276 -6.656,-1.875 -1.763,-0.599 -2.947,-1.181 -3.906,-1.719 -0.96,-0.538 -1.482,-1.106 -1.844,-1.5 -0.362,-0.394 -0.383,-0.732 -0.344,-0.875 0.04,-0.143 0.359,-0.044 0.563,0.031 0.204,0.076 0.47,0.367 0.687,0.438 0.218,0.07 0.337,0.133 0.625,-0.031 0.288,-0.165 0.573,-0.51 1.094,-0.969 0.521,-0.46 1.162,-1.107 2.031,-1.781 0.869,-0.675 2.24,-1.614 3.188,-2.25 0.072,-0.049 0.116,-0.078 0.187,-0.126 3.922,2.685 10.972,3.526 20.688,0.376 1.631,-0.621 6.5,-2.58 9.781,-3.719 3.281,-1.139 6.554,-2.16 9.906,-3.125 3.352,-0.965 6.774,-1.854 10.219,-2.688 3.445,-0.834 6.958,-1.584 10.469,-2.312 3.511,-0.728 7.041,-1.385 10.593,-2.032 3.553,-0.646 7.147,-1.254 10.719,-1.843 3.573,-0.589 17.856,-2.796 21.407,-3.344 3.55,-0.548 22.249,-3.49 30.374,-4.656 8.126,-1.167 19.316,-2.806 29,-4 9.685,-1.195 19.372,-2.258 29.094,-3.188 9.723,-0.929 19.498,-1.718 29.25,-2.375 9.752,-0.656 19.515,-1.19 29.282,-1.562 9.766,-0.372 19.546,-0.582 29.312,-0.656 z" />
        <path
           style="opacity:1;fill:#a82031"
           inkscape:connector-curvature="0"
           id="path11"
           d="m 210.906,162.906 c -3.918,0.35 -8.734,2.305 -14,6.5 -0.764,1.186 -3.243,4.484 -4.594,7.125 -1.35,2.642 -2.752,5.779 -3.531,8.719 -0.779,2.94 -1.004,5.962 -1.125,8.906 -0.121,2.945 0.101,5.863 0.406,8.75 0.306,2.888 0.845,5.753 1.407,8.563 0.561,2.81 1.271,5.616 1.969,8.312 0.697,2.696 1.481,5.357 2.218,7.875 0.738,2.519 1.532,4.962 2.219,7.219 0.687,2.257 1.294,4.147 1.906,6.313 0.612,2.165 1.201,4.309 1.75,6.687 0.55,2.378 1.125,5.059 1.563,7.594 0.437,2.534 0.763,5.072 1.062,7.625 0.3,2.553 0.53,5.11 0.719,7.687 0.189,2.578 0.333,5.18 0.437,7.781 0.105,2.602 0.143,5.22 0.188,7.844 0.045,2.624 0.051,5.26 0.062,7.906 0.012,2.647 0.007,13.309 0.032,16 0.025,2.692 0.066,5.42 0.125,8.094 0.059,2.674 0.17,5.336 0.25,7.938 0.079,2.601 0.383,12.774 0.437,15.312 0.055,2.538 0.096,5.062 0.125,7.594 0.029,2.532 0.036,5.071 0.031,7.594 -0.004,2.523 -0.018,5.051 -0.062,7.562 -0.044,2.512 -0.096,5.003 -0.188,7.5 -0.091,2.498 -0.199,4.988 -0.343,7.469 -0.145,2.481 -0.328,4.945 -0.531,7.406 -0.204,2.462 -0.425,4.922 -0.688,7.375 -0.263,2.453 -0.572,4.833 -0.875,7.344 -0.303,2.511 -0.67,5.066 -0.969,7.719 -0.298,2.652 -0.613,5.418 -0.844,8.219 -0.23,2.8 -0.44,5.686 -0.531,8.593 -0.09,2.907 -0.13,5.865 0,8.844 0.131,2.979 0.339,5.986 0.781,9 0.443,3.014 1.029,6.089 1.876,9.094 0.846,3.005 1.849,6.002 3.187,8.937 1.338,2.936 2.93,5.882 4.844,8.656 1.913,2.775 4.497,5.749 6.656,8 2.159,2.252 4.404,4.12 6.281,5.532 1.878,1.411 3.296,2.099 4.969,2.937 1.673,0.839 3.38,1.516 5.063,2.094 1.682,0.578 3.372,1 5.031,1.375 1.659,0.375 3.327,0.622 4.937,0.844 1.611,0.221 3.204,0.388 4.75,0.5 1.547,0.112 3.06,0.147 4.532,0.187 1.471,0.041 2.898,0.031 4.281,0.031 1.383,10e-4 2.72,-0.018 4,-0.031 1.279,-0.012 14.648,-0.088 17.312,-0.125 2.665,-0.036 5.36,-0.096 8.031,-0.156 2.672,-0.06 36.955,-1.099 39.563,-1.156 2.608,-0.058 5.216,-0.092 7.813,-0.125 2.596,-0.033 3.994,-0.066 7.781,-0.063 3.786,0.003 29.706,0.197 37.093,0.282 7.388,0.084 14.805,0.185 22.188,0.312 7.383,0.127 14.753,0.256 22.125,0.438 7.372,0.181 14.735,0.376 22.094,0.624 7.359,0.249 14.716,0.548 22.062,0.876 7.347,0.327 14.667,0.673 22,1.093 7.333,0.42 14.681,0.881 22,1.407 7.319,0.524 14.633,1.107 21.938,1.75 7.305,0.642 15.367,1.443 21.875,2.124 6.507,0.682 12.182,1.338 17.156,1.969 4.974,0.632 8.368,1.17 12.688,1.813 4.319,0.643 8.726,1.348 13.218,2.031 4.492,0.683 9.113,1.417 13.75,2.063 4.638,0.645 9.349,1.286 14.094,1.812 4.745,0.526 9.555,1.023 14.375,1.344 4.82,0.32 9.668,0.569 14.531,0.594 4.863,0.024 9.749,-0.071 14.625,-0.438 4.876,-0.367 9.771,-0.919 14.625,-1.781 4.854,-0.862 10.393,-2.27 14.5,-3.407 4.107,-1.136 7.543,-2.385 10.156,-3.406 2.614,-1.021 3.785,-1.747 5.532,-2.718 1.746,-0.972 3.373,-2.004 4.937,-3.094 1.564,-1.091 3.036,-2.259 4.438,-3.438 1.402,-1.178 2.715,-2.426 3.969,-3.656 1.253,-1.23 2.435,-2.471 3.562,-3.719 1.127,-1.248 2.192,-2.509 3.219,-3.75 1.026,-1.24 1.984,-2.474 2.937,-3.687 0.953,-1.213 1.877,-2.423 2.782,-3.594 0.904,-1.171 1.257,-1.477 2.656,-3.438 1.399,-1.96 3.438,-4.559 5.718,-8.343 2.281,-3.784 5.674,-9.354 7.969,-14.375 2.296,-5.021 4.241,-10.433 5.813,-15.75 1.571,-5.318 2.685,-10.75 3.594,-16.156 0.908,-5.407 1.474,-10.866 1.874,-16.282 0.401,-5.416 0.492,-10.852 0.532,-16.218 0.039,-5.367 -0.128,-10.703 -0.313,-15.969 -0.184,-5.266 -0.499,-10.511 -0.781,-15.625 -0.282,-5.114 -0.646,-10.156 -0.906,-15.063 -0.261,-4.906 -0.51,-10.417 -0.656,-14.375 -0.147,-3.957 -0.202,-6.999 -0.219,-9.375 -0.018,-2.375 0.035,-3.233 0.093,-4.875 0.059,-1.641 0.153,-3.291 0.25,-4.968 0.098,-1.678 0.22,-3.382 0.344,-5.094 0.125,-1.713 1.121,-14.058 1.25,-15.875 0.129,-1.818 0.274,-3.647 0.375,-5.5 0.102,-1.854 0.192,-3.736 0.25,-5.625 0.059,-1.889 0.081,-3.789 0.094,-5.719 0.013,-1.93 -0.022,-3.815 -0.031,-5.844 -0.009,-2.028 -0.033,-10.949 -0.063,-13.437 -0.03,-2.488 -0.046,-5.136 -0.125,-7.813 -0.078,-2.677 -0.184,-5.474 -0.344,-8.25 -0.159,-2.776 -0.35,-5.612 -0.624,-8.406 -0.275,-2.794 -0.605,-5.605 -1.032,-8.344 -0.426,-2.738 -0.907,-5.474 -1.531,-8.093 -0.624,-2.62 -1.329,-5.176 -2.219,-7.626 -0.889,-2.449 -2.013,-4.969 -3.125,-7.062 -1.112,-2.093 -2.336,-3.96 -3.531,-5.5 -1.195,-1.54 -2.363,-2.65 -3.625,-3.75 -1.262,-1.1 -2.595,-2.012 -3.937,-2.844 -1.343,-0.831 -2.753,-1.544 -4.126,-2.156 -1.372,-0.612 -2.761,-1.096 -4.124,-1.531 -1.364,-0.435 -2.732,-0.764 -4.063,-1.063 -1.331,-0.298 -2.626,-0.523 -3.906,-0.718 -1.281,-0.196 -2.566,-0.349 -3.781,-0.469 -1.216,-0.12 -2.399,-0.183 -3.532,-0.25 -1.133,-0.068 -2.706,-0.133 -3.25,-0.157 -19,-2.232 -21.204,15.237 -2.344,17.75 0.474,0.111 1.901,0.431 2.844,0.657 0.943,0.225 1.889,0.447 2.813,0.687 0.923,0.24 1.842,0.49 2.719,0.75 0.876,0.261 1.76,0.53 2.562,0.813 0.801,0.282 1.55,0.575 2.25,0.875 0.7,0.299 1.36,0.6 1.938,0.906 0.577,0.306 1.08,0.64 1.531,0.938 0.451,0.298 0.856,0.604 1.187,0.874 0.331,0.271 0.48,0.287 0.813,0.75 0.333,0.464 0.732,0.991 1.187,2.032 0.456,1.04 1.069,2.553 1.532,4.187 0.462,1.634 0.881,3.561 1.218,5.594 0.338,2.033 0.605,4.312 0.813,6.625 0.208,2.313 0.343,4.765 0.437,7.25 0.095,2.485 0.119,5.097 0.125,7.656 0.006,2.56 -0.039,5.174 -0.093,7.719 -0.055,2.545 -0.134,5.082 -0.219,7.531 -0.086,2.449 -0.613,17.091 -0.688,18.813 -0.075,1.721 -0.169,3.322 -0.281,5 -0.112,1.677 -0.254,3.353 -0.406,5.062 -0.153,1.71 -0.319,3.445 -0.5,5.188 -0.181,1.743 -1.596,14.304 -1.782,16.156 -0.185,1.852 -0.343,3.734 -0.5,5.625 -0.156,1.891 -0.325,3.786 -0.437,5.719 -0.112,1.932 -0.209,3.176 -0.25,5.875 -0.041,2.699 -0.066,6.154 0,10.344 0.065,4.189 0.237,9.832 0.406,14.781 0.169,4.948 0.429,9.961 0.625,14.906 0.196,4.946 0.416,9.9 0.532,14.781 0.115,4.881 0.22,9.75 0.156,14.5 -0.065,4.75 -0.198,9.449 -0.532,14 -0.333,4.552 -0.787,9.018 -1.468,13.313 -0.682,4.294 -1.525,8.438 -2.625,12.437 -1.101,4 -2.284,7.769 -3.969,11.563 -1.685,3.794 -4.243,8.101 -6.125,11.219 -1.882,3.117 -3.876,5.643 -5.187,7.468 -1.312,1.826 -1.82,2.35 -2.688,3.469 -0.868,1.119 -1.69,2.216 -2.5,3.25 -0.81,1.034 -1.608,2.03 -2.375,2.969 -0.766,0.939 -1.514,1.817 -2.25,2.656 -0.736,0.839 -1.438,1.636 -2.156,2.375 -0.719,0.739 -1.437,1.415 -2.157,2.063 -0.719,0.647 -1.409,1.245 -2.156,1.812 -0.747,0.567 -1.519,1.101 -2.312,1.594 -0.793,0.492 -0.946,0.754 -2.469,1.375 -1.523,0.62 -3.671,1.483 -6.656,2.343 -2.986,0.861 -7.389,2.084 -11.25,2.813 -3.861,0.729 -7.86,1.223 -11.938,1.563 -4.078,0.339 -8.276,0.464 -12.531,0.468 -4.255,0.005 -8.612,-0.169 -13,-0.437 -4.388,-0.268 -8.836,-0.684 -13.312,-1.157 -4.477,-0.472 -9.008,-1.083 -13.532,-1.687 -4.523,-0.605 -9.091,-1.277 -13.625,-1.937 -4.533,-0.661 -9.098,-1.396 -13.593,-2.032 -4.496,-0.636 -8.177,-1.161 -13.376,-1.781 -5.198,-0.62 -11.109,-1.291 -17.812,-1.937 -6.703,-0.648 -14.94,-1.378 -22.406,-1.969 -7.467,-0.591 -14.913,-1.098 -22.375,-1.563 -7.463,-0.465 -14.917,-0.865 -22.375,-1.218 -7.458,-0.354 -14.922,-0.651 -22.375,-0.907 -7.453,-0.255 -14.896,-0.454 -22.344,-0.625 -7.448,-0.171 -14.902,-0.306 -22.344,-0.406 -7.442,-0.1 -14.876,-0.144 -22.312,-0.188 -7.437,-0.043 -14.875,-0.061 -22.313,-0.062 -7.437,-10e-4 -33.652,0.115 -37.531,0.156 -3.879,0.042 -5.385,0.092 -8.063,0.156 -2.677,0.065 -5.338,0.131 -8,0.219 -2.661,0.088 -36.784,1.478 -39.374,1.563 -2.591,0.085 -5.152,0.158 -7.75,0.218 -2.599,0.061 -19.712,0.362 -20.876,0.376 -1.163,0.013 -2.331,0.011 -3.437,0 -1.106,-0.012 -2.19,-0.014 -3.219,-0.063 -1.029,-0.049 -2.007,-0.127 -2.937,-0.219 -0.93,-0.092 -1.812,-0.209 -2.625,-0.344 -0.813,-0.134 -1.562,-0.298 -2.25,-0.468 -0.688,-0.171 -1.313,-0.37 -1.875,-0.563 -0.563,-0.192 -0.781,-0.138 -1.5,-0.593 -0.719,-0.456 -1.702,-1.096 -2.813,-2.126 -1.11,-1.029 -2.738,-2.594 -3.875,-4.062 -1.137,-1.468 -2.105,-3.025 -2.969,-4.75 -0.863,-1.725 -1.562,-3.61 -2.187,-5.594 -0.625,-1.983 -1.143,-4.099 -1.563,-6.312 -0.419,-2.214 -0.727,-4.571 -0.968,-6.969 -0.242,-2.398 -0.376,-4.908 -0.469,-7.437 -0.093,-2.53 -0.111,-5.112 -0.094,-7.719 0.017,-2.607 0.109,-5.271 0.188,-7.907 0.079,-2.635 0.195,-5.263 0.281,-7.906 0.086,-2.642 0.208,-5.289 0.25,-7.937 0.042,-2.648 0.028,-5.326 0,-7.969 -0.028,-2.643 -0.093,-5.277 -0.188,-7.906 -0.094,-2.63 -0.223,-5.26 -0.374,-7.875 -0.152,-2.615 -0.333,-5.212 -0.532,-7.813 -0.199,-2.6 -0.419,-5.195 -0.656,-7.781 -0.237,-2.586 -0.484,-5.179 -0.75,-7.75 -0.266,-2.571 -1.422,-12.779 -1.719,-15.313 -0.296,-2.533 -1.513,-12.631 -1.781,-15.218 -0.268,-2.587 -0.491,-5.239 -0.719,-7.875 -0.227,-2.637 -0.428,-5.276 -0.625,-7.938 -0.197,-2.661 -0.946,-13.396 -1.156,-16.093 -0.21,-2.698 -0.433,-5.416 -0.688,-8.126 -0.254,-2.709 -0.518,-5.407 -0.843,-8.124 -0.325,-2.718 -0.672,-5.434 -1.094,-8.157 -0.422,-2.723 -0.896,-5.469 -1.437,-8.187 -0.542,-2.718 -1.198,-5.609 -1.813,-8.125 -0.615,-2.516 -1.256,-4.765 -1.875,-6.969 -0.619,-2.204 -1.216,-4.048 -1.844,-6.25 -0.628,-2.202 -1.298,-4.585 -1.906,-6.969 -0.608,-2.383 -1.229,-4.885 -1.719,-7.343 -0.49,-2.459 -0.939,-5.002 -1.219,-7.407 -0.279,-2.405 -0.467,-4.833 -0.468,-7.031 -0.001,-2.198 0.141,-4.337 0.437,-6.156 0.297,-1.82 0.794,-3.439 1.344,-4.75 0.55,-1.312 0.89,-2.219 1.969,-3.125 1.079,-0.907 3.751,-1.925 4.5,-2.313 16.718,-11.331 13.067,-24.798 1.312,-23.75 z" />
        <path
           style="opacity:1;fill:#a82031"
           inkscape:connector-curvature="0"
           id="path13"
           d="m 210.031,238.438 c -9.061,-0.553 -9.617,8.77 4.844,16.374 2.219,0.887 8.593,3.615 13.313,5.313 4.719,1.698 9.835,3.359 15,4.875 5.164,1.516 10.531,2.905 15.968,4.219 5.438,1.314 11.058,2.52 16.656,3.656 5.599,1.136 11.306,2.181 16.938,3.156 5.632,0.976 11.313,1.858 16.844,2.688 5.531,0.83 11.053,1.582 16.344,2.281 5.29,0.699 10.498,1.354 15.406,1.938 4.908,0.583 9.087,1.021 14.031,1.562 4.944,0.541 27.64,2.929 33.656,3.531 6.017,0.603 12.027,1.181 18.063,1.75 6.035,0.569 12.104,1.133 18.156,1.657 6.052,0.523 12.091,1.035 18.156,1.5 6.065,0.464 12.145,0.887 18.219,1.281 6.074,0.394 12.17,0.751 18.25,1.062 6.08,0.312 12.167,0.597 18.25,0.813 6.083,0.216 12.169,0.391 18.25,0.5 6.081,0.108 12.146,0.17 18.219,0.156 6.073,-0.014 12.159,-0.096 18.218,-0.25 6.06,-0.154 12.109,-0.391 18.157,-0.688 6.048,-0.296 12.091,-0.668 18.125,-1.093 6.034,-0.426 12.046,-0.902 18.062,-1.438 6.017,-0.536 12.034,-1.151 18.032,-1.781 5.997,-0.63 11.991,-1.292 17.968,-2 5.978,-0.708 11.95,-1.476 17.906,-2.25 5.957,-0.774 11.878,-1.573 17.813,-2.406 5.935,-0.833 11.871,-1.697 17.781,-2.594 5.911,-0.897 14.739,-2.316 17.688,-2.781 27.844,-3.818 25.49,-22.829 -2.5,-19.719 -2.985,0.287 -11.948,1.086 -17.906,1.719 -5.959,0.633 -11.906,1.34 -17.844,2.062 -5.938,0.722 -11.86,1.518 -17.782,2.281 -5.921,0.764 -29.569,3.849 -35.468,4.594 -5.899,0.746 -11.795,1.494 -17.688,2.188 -5.892,0.694 -11.766,1.383 -17.656,2 -5.89,0.617 -11.763,1.172 -17.656,1.687 -5.893,0.516 -11.773,1.01 -17.688,1.407 -5.914,0.396 -11.86,0.723 -17.812,1 -5.952,0.276 -11.923,0.489 -17.906,0.656 -5.984,0.166 -11.997,0.276 -18,0.344 -6.004,0.067 -12.013,0.055 -18.032,0.031 -6.018,-0.025 -12.034,-0.079 -18.062,-0.188 -6.028,-0.108 -12.061,-0.253 -18.094,-0.437 -6.033,-0.184 -12.094,-0.404 -18.125,-0.656 -6.031,-0.253 -12.038,-0.563 -18.063,-0.876 -6.024,-0.312 -12.05,-0.635 -18.062,-1 -6.012,-0.364 -12.433,-0.805 -18.031,-1.187 -5.599,-0.382 -10.642,-0.743 -15.563,-1.125 -4.921,-0.382 -9.1,-0.705 -13.968,-1.156 -4.869,-0.451 -10.015,-0.944 -15.25,-1.532 -5.236,-0.587 -10.704,-1.244 -16.157,-2 -5.453,-0.755 -11.042,-1.575 -16.562,-2.531 -5.52,-0.956 -11.132,-2.001 -16.563,-3.187 -5.43,-1.187 -10.854,-2.492 -16.031,-3.938 -5.177,-1.446 -10.286,-3.022 -15.031,-4.75 -4.746,-1.727 -9.242,-3.55 -13.438,-5.625 -4.195,-2.075 -9.765,-5.705 -11.718,-6.843 -4.667,-2.809 -8.636,-4.066 -11.657,-4.25 z" />
        <path
           style="opacity:1;fill:#a82031"
           inkscape:connector-curvature="0"
           id="path15"
           d="m 225.594,323.75 c -24.927,-0.068 -23.271,18.111 9.562,21.125 4.709,0.291 18.885,0.849 28.25,1.75 9.366,0.901 18.641,2.27 27.938,3.656 9.296,1.387 18.571,3.016 27.844,4.657 9.272,1.64 18.513,3.431 27.781,5.187 9.268,1.757 18.529,3.578 27.812,5.344 9.284,1.765 18.587,3.568 27.907,5.25 9.319,1.682 18.654,3.33 28.031,4.843 9.377,1.514 18.764,2.989 28.219,4.25 9.454,1.262 20.349,2.478 28.5,3.344 8.15,0.867 14.987,1.408 20.406,1.844 5.419,0.436 8.072,0.527 12.094,0.75 4.021,0.223 8.023,0.435 12.031,0.594 4.008,0.158 8.024,0.281 12.031,0.375 4.007,0.093 8.023,0.161 12.031,0.187 4.008,0.027 8.022,0.011 12.031,-0.031 4.01,-0.042 7.989,-0.106 12,-0.219 4.012,-0.112 8.049,-0.283 12.063,-0.468 4.014,-0.186 8.015,-0.395 12.031,-0.657 4.017,-0.261 8.288,-0.592 12.063,-0.906 3.774,-0.314 7.309,-0.635 10.593,-0.969 3.285,-0.333 6.065,-0.67 9.094,-1.031 3.03,-0.361 6.08,-0.756 9.094,-1.156 3.014,-0.4 6.004,-0.821 9,-1.25 2.996,-0.43 5.991,-0.861 8.969,-1.313 2.977,-0.451 23.609,-3.769 26.531,-4.25 2.922,-0.48 15.989,-2.662 17.438,-2.906 25.371,-2.274 23.83,-23.296 -1.813,-21.844 -1.533,0.002 -6.127,-0.055 -9.187,0 -3.061,0.056 -6.141,0.163 -9.188,0.313 -3.047,0.149 -6.063,0.372 -9.094,0.593 -3.031,0.222 -6.08,0.476 -9.094,0.75 -3.013,0.275 -6.005,0.565 -9,0.876 -2.993,0.31 -23.723,2.669 -26.656,3 -2.932,0.33 -5.621,0.633 -8.781,0.968 -3.16,0.336 -6.548,0.708 -10.187,1.063 -3.64,0.355 -7.778,0.72 -11.657,1.062 -3.879,0.343 -7.748,0.667 -11.625,0.969 -3.877,0.302 -7.748,0.585 -11.625,0.844 -3.877,0.259 -7.745,0.505 -11.625,0.718 -3.879,0.215 -7.772,0.396 -11.656,0.563 -3.884,0.167 -7.767,0.318 -11.656,0.437 -3.89,0.12 -7.79,0.212 -11.688,0.282 -3.897,0.07 -7.792,0.136 -11.687,0.156 -3.895,0.02 -6.44,0.057 -11.688,-0.031 -5.248,-0.089 -11.837,-0.172 -19.812,-0.5 -7.976,-0.328 -18.694,-0.832 -28.031,-1.469 -9.338,-0.637 -18.672,-1.454 -28,-2.375 -9.329,-0.921 -18.648,-1.998 -27.969,-3.156 -9.322,-1.158 -18.623,-2.432 -27.938,-3.781 -9.314,-1.35 -18.629,-2.809 -27.937,-4.313 -9.308,-1.504 -18.635,-3.084 -27.938,-4.719 -9.302,-1.635 -18.576,-3.319 -27.875,-5.094 -9.299,-1.774 -18.634,-3.516 -27.906,-5.531 -9.272,-2.015 -23.127,-5.473 -27.75,-6.562 -4.632,-0.853 -8.72,-1.209 -12.281,-1.219 z" />
      </g>
    </g>
  </g>
</svg>
