<?xml version="1.0" encoding="utf-8" standalone="no"?>
<!DOCTYPE svg PUBLIC "-//W3C//DTD SVG 1.1//EN"
  "http://www.w3.org/Graphics/SVG/1.1/DTD/svg11.dtd">
<svg xmlns:xlink="http://www.w3.org/1999/xlink" width="697.68pt" height="451.44pt" viewBox="0 0 697.68 451.44" xmlns="http://www.w3.org/2000/svg" version="1.1">
 <metadata>
  <rdf:RDF xmlns:dc="http://purl.org/dc/elements/1.1/" xmlns:cc="http://creativecommons.org/ns#" xmlns:rdf="http://www.w3.org/1999/02/22-rdf-syntax-ns#">
   <cc:Work>
    <dc:type rdf:resource="http://purl.org/dc/dcmitype/StillImage"/>
    <dc:date>2026-05-13T19:43:06.639834</dc:date>
    <dc:format>image/svg+xml</dc:format>
    <dc:creator>
     <cc:Agent>
      <dc:title>Matplotlib v3.10.8, https://matplotlib.org/</dc:title>
     </cc:Agent>
    </dc:creator>
   </cc:Work>
  </rdf:RDF>
 </metadata>
 <defs>
  <style type="text/css">*{stroke-linejoin: round; stroke-linecap: butt}</style>
 </defs>
 <g id="figure_1">
  <g id="patch_1">
   <path d="M 0 451.44 
L 697.68 451.44 
L 697.68 0 
L 0 0 
z
" style="fill: #ffffff"/>
  </g>
  <g id="axes_1">
   <g id="patch_2">
    <path d="M 4.303125 398.314159 
L 694.67976 398.314159 
L 694.67976 53.125841 
L 4.303125 53.125841 
z
" style="fill: #ffffff"/>
   </g>
   <g id="PolyCollection_1">
    <path d="M 141.111459 176.633442 
L 141.111459 234.840206 
L 141.111459 234.840206 
L 148.833699 234.838079 
L 156.2474 234.831816 
L 163.36569 234.821592 
L 170.201699 234.807585 
L 176.768558 234.789969 
L 183.079394 234.768921 
L 189.147337 234.744617 
L 194.985517 234.717232 
L 200.607062 234.686944 
L 206.025103 234.653927 
L 211.252769 234.618358 
L 216.303188 234.580413 
L 221.189491 234.540268 
L 225.924806 234.498098 
L 230.522263 234.454081 
L 234.994991 234.408391 
L 239.35612 234.361206 
L 243.618779 234.3127 
L 247.796098 234.26305 
L 251.901204 234.212432 
L 255.947229 234.161022 
L 259.947302 234.108996 
L 263.91455 234.05653 
L 267.862105 234.0038 
L 271.803095 233.950982 
L 275.75065 233.898252 
L 279.717899 233.845786 
L 283.717971 233.79376 
L 287.763996 233.74235 
L 291.869103 233.691732 
L 296.046421 233.642083 
L 300.30908 233.593577 
L 304.670209 233.546391 
L 309.142938 233.500702 
L 313.740395 233.456684 
L 318.47571 233.414515 
L 323.362013 233.374369 
L 328.412432 233.336424 
L 333.640098 233.300855 
L 339.058138 233.267839 
L 344.679684 233.23755 
L 350.517864 233.210166 
L 356.585807 233.185861 
L 362.896643 233.164813 
L 369.463501 233.147198 
L 376.299511 233.13319 
L 383.417801 233.122967 
L 390.831502 233.116704 
L 398.553742 233.114577 
L 398.553742 233.114577 
L 398.553742 174.907813 
L 398.553742 174.907813 
L 390.831502 174.90994 
L 383.417801 174.916203 
L 376.299511 174.926426 
L 369.463501 174.940434 
L 362.896643 174.958049 
L 356.585807 174.979097 
L 350.517864 175.003402 
L 344.679684 175.030786 
L 339.058138 175.061075 
L 333.640098 175.094091 
L 328.412432 175.12966 
L 323.362013 175.167605 
L 318.47571 175.207751 
L 313.740395 175.24992 
L 309.142938 175.293937 
L 304.670209 175.339627 
L 300.30908 175.386813 
L 296.046421 175.435319 
L 291.869103 175.484968 
L 287.763996 175.535586 
L 283.717971 175.586996 
L 279.717899 175.639022 
L 275.75065 175.691488 
L 271.803095 175.744218 
L 267.862105 175.797036 
L 263.91455 175.849766 
L 259.947302 175.902232 
L 255.947229 175.954258 
L 251.901204 176.005668 
L 247.796098 176.056286 
L 243.618779 176.105936 
L 239.35612 176.154442 
L 234.994991 176.201627 
L 230.522263 176.247317 
L 225.924806 176.291334 
L 221.189491 176.333504 
L 216.303188 176.373649 
L 211.252769 176.411594 
L 206.025103 176.447163 
L 200.607062 176.48018 
L 194.985517 176.510468 
L 189.147337 176.537853 
L 183.079394 176.562157 
L 176.768558 176.583205 
L 170.201699 176.600821 
L 163.36569 176.614828 
L 156.2474 176.625052 
L 148.833699 176.631315 
L 141.111459 176.633442 
z
" clip-path="url(#p1340ec9be7)" style="fill: #dc8add; fill-opacity: 0.6; stroke: #ffffff; stroke-opacity: 0.6"/>
    <path d="M 141.111459 258.122911 
L 141.111459 261.662972 
L 141.111459 261.662972 
L 148.833699 261.692793 
L 156.2474 261.78061 
L 163.36569 261.923957 
L 170.201699 262.120364 
L 176.768558 262.367364 
L 183.079394 262.662488 
L 189.147337 263.00327 
L 194.985517 263.387241 
L 200.607062 263.811933 
L 206.025103 264.274877 
L 211.252769 264.773607 
L 216.303188 265.305655 
L 221.189491 265.868551 
L 225.924806 266.459829 
L 230.522263 267.07702 
L 234.994991 267.717657 
L 239.35612 268.379271 
L 243.618779 269.059395 
L 247.796098 269.755561 
L 251.901204 270.4653 
L 255.947229 271.186145 
L 259.947302 271.915627 
L 263.91455 272.65128 
L 267.862105 273.390634 
L 271.803095 274.131223 
L 275.75065 274.870577 
L 279.717899 275.606229 
L 283.717971 276.335712 
L 287.763996 277.056557 
L 291.869103 277.766296 
L 296.046421 278.462462 
L 300.30908 279.142585 
L 304.670209 279.8042 
L 309.142938 280.444836 
L 313.740395 281.062028 
L 318.47571 281.653305 
L 323.362013 282.216202 
L 328.412432 282.748249 
L 333.640098 283.246979 
L 339.058138 283.709924 
L 344.679684 284.134616 
L 350.517864 284.518587 
L 356.585807 284.859368 
L 362.896643 285.154493 
L 369.463501 285.401493 
L 376.299511 285.5979 
L 383.417801 285.741246 
L 390.831502 285.829064 
L 398.553742 285.858885 
L 398.553742 285.858885 
L 398.553742 282.318824 
L 398.553742 282.318824 
L 390.831502 282.289004 
L 383.417801 282.201186 
L 376.299511 282.05784 
L 369.463501 281.861432 
L 362.896643 281.614433 
L 356.585807 281.319308 
L 350.517864 280.978526 
L 344.679684 280.594555 
L 339.058138 280.169864 
L 333.640098 279.706919 
L 328.412432 279.208189 
L 323.362013 278.676141 
L 318.47571 278.113245 
L 313.740395 277.521967 
L 309.142938 276.904776 
L 304.670209 276.264139 
L 300.30908 275.602525 
L 296.046421 274.922401 
L 291.869103 274.226236 
L 287.763996 273.516496 
L 283.717971 272.795652 
L 279.717899 272.066169 
L 275.75065 271.330516 
L 271.803095 270.591162 
L 267.862105 269.850574 
L 263.91455 269.111219 
L 259.947302 268.375567 
L 255.947229 267.646084 
L 251.901204 266.925239 
L 247.796098 266.2155 
L 243.618779 265.519335 
L 239.35612 264.839211 
L 234.994991 264.177597 
L 230.522263 263.53696 
L 225.924806 262.919769 
L 221.189491 262.328491 
L 216.303188 261.765594 
L 211.252769 261.233547 
L 206.025103 260.734817 
L 200.607062 260.271872 
L 194.985517 259.84718 
L 189.147337 259.46321 
L 183.079394 259.122428 
L 176.768558 258.827303 
L 170.201699 258.580303 
L 163.36569 258.383896 
L 156.2474 258.24055 
L 148.833699 258.152732 
L 141.111459 258.122911 
z
" clip-path="url(#p1340ec9be7)" style="fill: #dc8add; fill-opacity: 0.6; stroke: #ffffff; stroke-opacity: 0.6"/>
    <path d="M 141.111459 234.840206 
L 141.111459 258.122911 
L 141.111459 258.122911 
L 148.833699 258.136255 
L 156.2474 258.17555 
L 163.36569 258.239691 
L 170.201699 258.327575 
L 176.768558 258.438098 
L 183.079394 258.570154 
L 189.147337 258.72264 
L 194.985517 258.894451 
L 200.607062 259.084483 
L 206.025103 259.291631 
L 211.252769 259.514792 
L 216.303188 259.752862 
L 221.189491 260.004735 
L 225.924806 260.269307 
L 230.522263 260.545475 
L 234.994991 260.832133 
L 239.35612 261.128178 
L 243.618779 261.432506 
L 247.796098 261.744011 
L 251.901204 262.06159 
L 255.947229 262.384139 
L 259.947302 262.710552 
L 263.91455 263.039726 
L 267.862105 263.370557 
L 271.803095 263.701939 
L 275.75065 264.03277 
L 279.717899 264.361944 
L 283.717971 264.688358 
L 287.763996 265.010906 
L 291.869103 265.328485 
L 296.046421 265.63999 
L 300.30908 265.944318 
L 304.670209 266.240363 
L 309.142938 266.527021 
L 313.740395 266.803189 
L 318.47571 267.067762 
L 323.362013 267.319635 
L 328.412432 267.557704 
L 333.640098 267.780865 
L 339.058138 267.988014 
L 344.679684 268.178046 
L 350.517864 268.349857 
L 356.585807 268.502342 
L 362.896643 268.634399 
L 369.463501 268.744921 
L 376.299511 268.832805 
L 383.417801 268.896947 
L 390.831502 268.936241 
L 398.553742 268.949585 
L 398.553742 268.949585 
L 398.553742 245.666879 
L 398.553742 245.666879 
L 390.831502 245.653536 
L 383.417801 245.614241 
L 376.299511 245.550099 
L 369.463501 245.462215 
L 362.896643 245.351693 
L 356.585807 245.219637 
L 350.517864 245.067151 
L 344.679684 244.89534 
L 339.058138 244.705308 
L 333.640098 244.498159 
L 328.412432 244.274998 
L 323.362013 244.036929 
L 318.47571 243.785056 
L 313.740395 243.520483 
L 309.142938 243.244316 
L 304.670209 242.957657 
L 300.30908 242.661612 
L 296.046421 242.357285 
L 291.869103 242.045779 
L 287.763996 241.7282 
L 283.717971 241.405652 
L 279.717899 241.079239 
L 275.75065 240.750065 
L 271.803095 240.419234 
L 267.862105 240.087851 
L 263.91455 239.75702 
L 259.947302 239.427846 
L 255.947229 239.101433 
L 251.901204 238.778885 
L 247.796098 238.461306 
L 243.618779 238.1498 
L 239.35612 237.845473 
L 234.994991 237.549428 
L 230.522263 237.262769 
L 225.924806 236.986602 
L 221.189491 236.722029 
L 216.303188 236.470156 
L 211.252769 236.232087 
L 206.025103 236.008926 
L 200.607062 235.801777 
L 194.985517 235.611745 
L 189.147337 235.439934 
L 183.079394 235.287448 
L 176.768558 235.155392 
L 170.201699 235.04487 
L 163.36569 234.956986 
L 156.2474 234.892844 
L 148.833699 234.853549 
L 141.111459 234.840206 
z
" clip-path="url(#p1340ec9be7)" style="fill: #dc8add; fill-opacity: 0.6; stroke: #ffffff; stroke-opacity: 0.6"/>
    <path d="M 141.111459 302.087404 
L 141.111459 382.623781 
L 141.111459 382.623781 
L 148.833699 382.623781 
L 156.2474 382.623781 
L 163.36569 382.623781 
L 170.201699 382.623781 
L 176.768558 382.623781 
L 183.079394 382.623781 
L 189.147337 382.623781 
L 194.985517 382.623781 
L 200.607062 382.623781 
L 206.025103 382.623781 
L 211.252769 382.623781 
L 216.303188 382.623781 
L 221.189491 382.623781 
L 225.924806 382.623781 
L 230.522263 382.623781 
L 234.994991 382.623781 
L 239.35612 382.623781 
L 243.618779 382.623781 
L 247.796098 382.623781 
L 251.901204 382.623781 
L 255.947229 382.623781 
L 259.947302 382.623781 
L 263.91455 382.623781 
L 267.862105 382.623781 
L 271.803095 382.623781 
L 275.75065 382.623781 
L 279.717899 382.623781 
L 283.717971 382.623781 
L 287.763996 382.623781 
L 291.869103 382.623781 
L 296.046421 382.623781 
L 300.30908 382.623781 
L 304.670209 382.623781 
L 309.142938 382.623781 
L 313.740395 382.623781 
L 318.47571 382.623781 
L 323.362013 382.623781 
L 328.412432 382.623781 
L 333.640098 382.623781 
L 339.058138 382.623781 
L 344.679684 382.623781 
L 350.517864 382.623781 
L 356.585807 382.623781 
L 362.896643 382.623781 
L 369.463501 382.623781 
L 376.299511 382.623781 
L 383.417801 382.623781 
L 390.831502 382.623781 
L 398.553742 382.623781 
L 398.553742 382.623781 
L 398.553742 302.087404 
L 398.553742 302.087404 
L 390.831502 302.087404 
L 383.417801 302.087404 
L 376.299511 302.087404 
L 369.463501 302.087404 
L 362.896643 302.087404 
L 356.585807 302.087404 
L 350.517864 302.087404 
L 344.679684 302.087404 
L 339.058138 302.087404 
L 333.640098 302.087404 
L 328.412432 302.087404 
L 323.362013 302.087404 
L 318.47571 302.087404 
L 313.740395 302.087404 
L 309.142938 302.087404 
L 304.670209 302.087404 
L 300.30908 302.087404 
L 296.046421 302.087404 
L 291.869103 302.087404 
L 287.763996 302.087404 
L 283.717971 302.087404 
L 279.717899 302.087404 
L 275.75065 302.087404 
L 271.803095 302.087404 
L 267.862105 302.087404 
L 263.91455 302.087404 
L 259.947302 302.087404 
L 255.947229 302.087404 
L 251.901204 302.087404 
L 247.796098 302.087404 
L 243.618779 302.087404 
L 239.35612 302.087404 
L 234.994991 302.087404 
L 230.522263 302.087404 
L 225.924806 302.087404 
L 221.189491 302.087404 
L 216.303188 302.087404 
L 211.252769 302.087404 
L 206.025103 302.087404 
L 200.607062 302.087404 
L 194.985517 302.087404 
L 189.147337 302.087404 
L 183.079394 302.087404 
L 176.768558 302.087404 
L 170.201699 302.087404 
L 163.36569 302.087404 
L 156.2474 302.087404 
L 148.833699 302.087404 
L 141.111459 302.087404 
z
" clip-path="url(#p1340ec9be7)" style="fill: #bcbcbc; fill-opacity: 0.6; stroke: #ffffff; stroke-opacity: 0.6"/>
    <path d="M 141.111459 301.88317 
L 141.111459 302.087404 
L 141.111459 302.087404 
L 148.833699 302.087404 
L 156.2474 302.087404 
L 163.36569 302.087404 
L 170.201699 302.087404 
L 176.768558 302.087404 
L 183.079394 302.087404 
L 189.147337 302.087404 
L 194.985517 302.087404 
L 200.607062 302.087404 
L 206.025103 302.087404 
L 211.252769 302.087404 
L 216.303188 302.087404 
L 221.189491 302.087404 
L 225.924806 302.087404 
L 230.522263 302.087404 
L 234.994991 302.087404 
L 239.35612 302.087404 
L 243.618779 302.087404 
L 247.796098 302.087404 
L 251.901204 302.087404 
L 255.947229 302.087404 
L 259.947302 302.087404 
L 263.91455 302.087404 
L 267.862105 302.087404 
L 271.803095 302.087404 
L 275.75065 302.087404 
L 279.717899 302.087404 
L 283.717971 302.087404 
L 287.763996 302.087404 
L 291.869103 302.087404 
L 296.046421 302.087404 
L 300.30908 302.087404 
L 304.670209 302.087404 
L 309.142938 302.087404 
L 313.740395 302.087404 
L 318.47571 302.087404 
L 323.362013 302.087404 
L 328.412432 302.087404 
L 333.640098 302.087404 
L 339.058138 302.087404 
L 344.679684 302.087404 
L 350.517864 302.087404 
L 356.585807 302.087404 
L 362.896643 302.087404 
L 369.463501 302.087404 
L 376.299511 302.087404 
L 383.417801 302.087404 
L 390.831502 302.087404 
L 398.553742 302.087404 
L 398.553742 302.087404 
L 398.553742 301.88317 
L 398.553742 301.88317 
L 390.831502 301.88317 
L 383.417801 301.88317 
L 376.299511 301.88317 
L 369.463501 301.88317 
L 362.896643 301.88317 
L 356.585807 301.88317 
L 350.517864 301.88317 
L 344.679684 301.88317 
L 339.058138 301.88317 
L 333.640098 301.88317 
L 328.412432 301.88317 
L 323.362013 301.88317 
L 318.47571 301.88317 
L 313.740395 301.88317 
L 309.142938 301.88317 
L 304.670209 301.88317 
L 300.30908 301.88317 
L 296.046421 301.88317 
L 291.869103 301.88317 
L 287.763996 301.88317 
L 283.717971 301.88317 
L 279.717899 301.88317 
L 275.75065 301.88317 
L 271.803095 301.88317 
L 267.862105 301.88317 
L 263.91455 301.88317 
L 259.947302 301.88317 
L 255.947229 301.88317 
L 251.901204 301.88317 
L 247.796098 301.88317 
L 243.618779 301.88317 
L 239.35612 301.88317 
L 234.994991 301.88317 
L 230.522263 301.88317 
L 225.924806 301.88317 
L 221.189491 301.88317 
L 216.303188 301.88317 
L 211.252769 301.88317 
L 206.025103 301.88317 
L 200.607062 301.88317 
L 194.985517 301.88317 
L 189.147337 301.88317 
L 183.079394 301.88317 
L 176.768558 301.88317 
L 170.201699 301.88317 
L 163.36569 301.88317 
L 156.2474 301.88317 
L 148.833699 301.88317 
L 141.111459 301.88317 
z
" clip-path="url(#p1340ec9be7)" style="fill: #bcbcbc; fill-opacity: 0.6; stroke: #ffffff; stroke-opacity: 0.6"/>
    <path d="M 141.111459 299.364281 
L 141.111459 301.88317 
L 141.111459 301.88317 
L 148.833699 301.867699 
L 156.2474 301.822142 
L 163.36569 301.747777 
L 170.201699 301.645885 
L 176.768558 301.517747 
L 183.079394 301.364643 
L 189.147337 301.187853 
L 194.985517 300.988657 
L 200.607062 300.768337 
L 206.025103 300.528171 
L 211.252769 300.269441 
L 216.303188 299.993427 
L 221.189491 299.701409 
L 225.924806 299.394667 
L 230.522263 299.074482 
L 234.994991 298.742134 
L 239.35612 298.398903 
L 243.618779 298.04607 
L 247.796098 297.684914 
L 251.901204 297.316718 
L 255.947229 296.942759 
L 259.947302 296.56432 
L 263.91455 296.18268 
L 267.862105 295.799119 
L 271.803095 295.414918 
L 275.75065 295.031358 
L 279.717899 294.649717 
L 283.717971 294.271278 
L 287.763996 293.89732 
L 291.869103 293.529123 
L 296.046421 293.167968 
L 300.30908 292.815135 
L 304.670209 292.471904 
L 309.142938 292.139556 
L 313.740395 291.819371 
L 318.47571 291.512629 
L 323.362013 291.22061 
L 328.412432 290.944596 
L 333.640098 290.685866 
L 339.058138 290.445701 
L 344.679684 290.22538 
L 350.517864 290.026184 
L 356.585807 289.849394 
L 362.896643 289.69629 
L 369.463501 289.568152 
L 376.299511 289.466261 
L 383.417801 289.391896 
L 390.831502 289.346338 
L 398.553742 289.330867 
L 398.553742 289.330867 
L 398.553742 286.811978 
L 398.553742 286.811978 
L 390.831502 286.827449 
L 383.417801 286.873006 
L 376.299511 286.947371 
L 369.463501 287.049263 
L 362.896643 287.177401 
L 356.585807 287.330505 
L 350.517864 287.507295 
L 344.679684 287.706491 
L 339.058138 287.926811 
L 333.640098 288.166977 
L 328.412432 288.425707 
L 323.362013 288.701721 
L 318.47571 288.993739 
L 313.740395 289.300481 
L 309.142938 289.620666 
L 304.670209 289.953015 
L 300.30908 290.296245 
L 296.046421 290.649078 
L 291.869103 291.010234 
L 287.763996 291.37843 
L 283.717971 291.752389 
L 279.717899 292.130828 
L 275.75065 292.512468 
L 271.803095 292.896029 
L 267.862105 293.28023 
L 263.91455 293.66379 
L 259.947302 294.045431 
L 255.947229 294.42387 
L 251.901204 294.797828 
L 247.796098 295.166025 
L 243.618779 295.52718 
L 239.35612 295.880014 
L 234.994991 296.223244 
L 230.522263 296.555592 
L 225.924806 296.875778 
L 221.189491 297.182519 
L 216.303188 297.474538 
L 211.252769 297.750552 
L 206.025103 298.009282 
L 200.607062 298.249447 
L 194.985517 298.469768 
L 189.147337 298.668964 
L 183.079394 298.845754 
L 176.768558 298.998858 
L 170.201699 299.126996 
L 163.36569 299.228887 
L 156.2474 299.303252 
L 148.833699 299.34881 
L 141.111459 299.364281 
z
" clip-path="url(#p1340ec9be7)" style="fill: #bcbcbc; fill-opacity: 0.6; stroke: #ffffff; stroke-opacity: 0.6"/>
    <path d="M 141.111459 298.547344 
L 141.111459 299.364281 
L 141.111459 299.364281 
L 148.833699 299.34881 
L 156.2474 299.303252 
L 163.36569 299.228887 
L 170.201699 299.126996 
L 176.768558 298.998858 
L 183.079394 298.845754 
L 189.147337 298.668964 
L 194.985517 298.469768 
L 200.607062 298.249447 
L 206.025103 298.009282 
L 211.252769 297.750552 
L 216.303188 297.474538 
L 221.189491 297.182519 
L 225.924806 296.875778 
L 230.522263 296.555592 
L 234.994991 296.223244 
L 239.35612 295.880014 
L 243.618779 295.52718 
L 247.796098 295.166025 
L 251.901204 294.797828 
L 255.947229 294.42387 
L 259.947302 294.045431 
L 263.91455 293.66379 
L 267.862105 293.28023 
L 271.803095 292.896029 
L 275.75065 292.512468 
L 279.717899 292.130828 
L 283.717971 291.752389 
L 287.763996 291.37843 
L 291.869103 291.010234 
L 296.046421 290.649078 
L 300.30908 290.296245 
L 304.670209 289.953015 
L 309.142938 289.620666 
L 313.740395 289.300481 
L 318.47571 288.993739 
L 323.362013 288.701721 
L 328.412432 288.425707 
L 333.640098 288.166977 
L 339.058138 287.926811 
L 344.679684 287.706491 
L 350.517864 287.507295 
L 356.585807 287.330505 
L 362.896643 287.177401 
L 369.463501 287.049263 
L 376.299511 286.947371 
L 383.417801 286.873006 
L 390.831502 286.827449 
L 398.553742 286.811978 
L 398.553742 286.811978 
L 398.553742 285.995041 
L 398.553742 285.995041 
L 390.831502 286.010512 
L 383.417801 286.056069 
L 376.299511 286.130434 
L 369.463501 286.232326 
L 362.896643 286.360464 
L 356.585807 286.513568 
L 350.517864 286.690358 
L 344.679684 286.889554 
L 339.058138 287.109874 
L 333.640098 287.35004 
L 328.412432 287.60877 
L 323.362013 287.884784 
L 318.47571 288.176802 
L 313.740395 288.483544 
L 309.142938 288.803729 
L 304.670209 289.136077 
L 300.30908 289.479308 
L 296.046421 289.832141 
L 291.869103 290.193297 
L 287.763996 290.561493 
L 283.717971 290.935452 
L 279.717899 291.313891 
L 275.75065 291.695531 
L 271.803095 292.079092 
L 267.862105 292.463293 
L 263.91455 292.846853 
L 259.947302 293.228494 
L 255.947229 293.606933 
L 251.901204 293.980891 
L 247.796098 294.349088 
L 243.618779 294.710243 
L 239.35612 295.063076 
L 234.994991 295.406307 
L 230.522263 295.738655 
L 225.924806 296.05884 
L 221.189491 296.365582 
L 216.303188 296.657601 
L 211.252769 296.933615 
L 206.025103 297.192345 
L 200.607062 297.43251 
L 194.985517 297.652831 
L 189.147337 297.852027 
L 183.079394 298.028817 
L 176.768558 298.181921 
L 170.201699 298.310059 
L 163.36569 298.41195 
L 156.2474 298.486315 
L 148.833699 298.531873 
L 141.111459 298.547344 
z
" clip-path="url(#p1340ec9be7)" style="fill: #bcbcbc; fill-opacity: 0.6; stroke: #ffffff; stroke-opacity: 0.6"/>
    <path d="M 141.111459 298.411187 
L 141.111459 298.547344 
L 141.111459 298.547344 
L 148.833699 298.531873 
L 156.2474 298.486315 
L 163.36569 298.41195 
L 170.201699 298.310059 
L 176.768558 298.181921 
L 183.079394 298.028817 
L 189.147337 297.852027 
L 194.985517 297.652831 
L 200.607062 297.43251 
L 206.025103 297.192345 
L 211.252769 296.933615 
L 216.303188 296.657601 
L 221.189491 296.365582 
L 225.924806 296.05884 
L 230.522263 295.738655 
L 234.994991 295.406307 
L 239.35612 295.063076 
L 243.618779 294.710243 
L 247.796098 294.349088 
L 251.901204 293.980891 
L 255.947229 293.606933 
L 259.947302 293.228494 
L 263.91455 292.846853 
L 267.862105 292.463293 
L 271.803095 292.079092 
L 275.75065 291.695531 
L 279.717899 291.313891 
L 283.717971 290.935452 
L 287.763996 290.561493 
L 291.869103 290.193297 
L 296.046421 289.832141 
L 300.30908 289.479308 
L 304.670209 289.136077 
L 309.142938 288.803729 
L 313.740395 288.483544 
L 318.47571 288.176802 
L 323.362013 287.884784 
L 328.412432 287.60877 
L 333.640098 287.35004 
L 339.058138 287.109874 
L 344.679684 286.889554 
L 350.517864 286.690358 
L 356.585807 286.513568 
L 362.896643 286.360464 
L 369.463501 286.232326 
L 376.299511 286.130434 
L 383.417801 286.056069 
L 390.831502 286.010512 
L 398.553742 285.995041 
L 398.553742 285.995041 
L 398.553742 285.858885 
L 398.553742 285.858885 
L 390.831502 285.874355 
L 383.417801 285.919913 
L 376.299511 285.994278 
L 369.463501 286.09617 
L 362.896643 286.224308 
L 356.585807 286.377412 
L 350.517864 286.554202 
L 344.679684 286.753398 
L 339.058138 286.973718 
L 333.640098 287.213884 
L 328.412432 287.472614 
L 323.362013 287.748628 
L 318.47571 288.040646 
L 313.740395 288.347388 
L 309.142938 288.667573 
L 304.670209 288.999921 
L 300.30908 289.343152 
L 296.046421 289.695985 
L 291.869103 290.05714 
L 287.763996 290.425337 
L 283.717971 290.799296 
L 279.717899 291.177735 
L 275.75065 291.559375 
L 271.803095 291.942936 
L 267.862105 292.327137 
L 263.91455 292.710697 
L 259.947302 293.092337 
L 255.947229 293.470777 
L 251.901204 293.844735 
L 247.796098 294.212932 
L 243.618779 294.574087 
L 239.35612 294.92692 
L 234.994991 295.270151 
L 230.522263 295.602499 
L 225.924806 295.922684 
L 221.189491 296.229426 
L 216.303188 296.521444 
L 211.252769 296.797459 
L 206.025103 297.056189 
L 200.607062 297.296354 
L 194.985517 297.516675 
L 189.147337 297.71587 
L 183.079394 297.89266 
L 176.768558 298.045765 
L 170.201699 298.173903 
L 163.36569 298.275794 
L 156.2474 298.350159 
L 148.833699 298.395717 
L 141.111459 298.411187 
z
" clip-path="url(#p1340ec9be7)" style="fill: #bcbcbc; fill-opacity: 0.6; stroke: #ffffff; stroke-opacity: 0.6"/>
    <path d="M 141.111459 297.866563 
L 141.111459 298.411187 
L 141.111459 298.411187 
L 148.833699 298.375548 
L 156.2474 298.270595 
L 163.36569 298.09928 
L 170.201699 297.86455 
L 176.768558 297.569356 
L 183.079394 297.216647 
L 189.147337 296.809372 
L 194.985517 296.350482 
L 200.607062 295.842925 
L 206.025103 295.289651 
L 211.252769 294.69361 
L 216.303188 294.05775 
L 221.189491 293.385023 
L 225.924806 292.678376 
L 230.522263 291.940759 
L 234.994991 291.175122 
L 239.35612 290.384415 
L 243.618779 289.571587 
L 247.796098 288.739587 
L 251.901204 287.891365 
L 255.947229 287.02987 
L 259.947302 286.158052 
L 263.91455 285.27886 
L 267.862105 284.395244 
L 271.803095 283.510153 
L 275.75065 282.626537 
L 279.717899 281.747345 
L 283.717971 280.875527 
L 287.763996 280.014033 
L 291.869103 279.16581 
L 296.046421 278.33381 
L 300.30908 277.520982 
L 304.670209 276.730275 
L 309.142938 275.964638 
L 313.740395 275.227022 
L 318.47571 274.520375 
L 323.362013 273.847647 
L 328.412432 273.211787 
L 333.640098 272.615746 
L 339.058138 272.062472 
L 344.679684 271.554915 
L 350.517864 271.096025 
L 356.585807 270.68875 
L 362.896643 270.336041 
L 369.463501 270.040847 
L 376.299511 269.806118 
L 383.417801 269.634802 
L 390.831502 269.529849 
L 398.553742 269.49421 
L 398.553742 269.49421 
L 398.553742 268.949585 
L 398.553742 268.949585 
L 390.831502 268.985225 
L 383.417801 269.090177 
L 376.299511 269.261493 
L 369.463501 269.496223 
L 362.896643 269.791417 
L 356.585807 270.144126 
L 350.517864 270.5514 
L 344.679684 271.01029 
L 339.058138 271.517847 
L 333.640098 272.071121 
L 328.412432 272.667163 
L 323.362013 273.303022 
L 318.47571 273.97575 
L 313.740395 274.682397 
L 309.142938 275.420013 
L 304.670209 276.18565 
L 300.30908 276.976357 
L 296.046421 277.789186 
L 291.869103 278.621186 
L 287.763996 279.469408 
L 283.717971 280.330903 
L 279.717899 281.202721 
L 275.75065 282.081913 
L 271.803095 282.965529 
L 267.862105 283.850619 
L 263.91455 284.734235 
L 259.947302 285.613427 
L 255.947229 286.485245 
L 251.901204 287.34674 
L 247.796098 288.194962 
L 243.618779 289.026962 
L 239.35612 289.83979 
L 234.994991 290.630498 
L 230.522263 291.396134 
L 225.924806 292.133751 
L 221.189491 292.840398 
L 216.303188 293.513126 
L 211.252769 294.148985 
L 206.025103 294.745026 
L 200.607062 295.2983 
L 194.985517 295.805857 
L 189.147337 296.264748 
L 183.079394 296.672022 
L 176.768558 297.024731 
L 170.201699 297.319925 
L 163.36569 297.554655 
L 156.2474 297.725971 
L 148.833699 297.830923 
L 141.111459 297.866563 
z
" clip-path="url(#p1340ec9be7)" style="fill: #bcbcbc; fill-opacity: 0.6; stroke: #ffffff; stroke-opacity: 0.6"/>
    <path d="M 141.111459 162.543246 
L 141.111459 162.815559 
L 141.111459 162.815559 
L 148.833699 162.962844 
L 156.2474 163.396574 
L 163.36569 164.104559 
L 170.201699 165.074611 
L 176.768558 166.29454 
L 183.079394 167.752157 
L 189.147337 169.435273 
L 194.985517 171.331699 
L 200.607062 173.429245 
L 206.025103 175.715723 
L 211.252769 178.178944 
L 216.303188 180.806717 
L 221.189491 183.586855 
L 225.924806 186.507168 
L 230.522263 189.555467 
L 234.994991 192.719562 
L 239.35612 195.987266 
L 243.618779 199.346387 
L 247.796098 202.784738 
L 251.901204 206.290129 
L 255.947229 209.850372 
L 259.947302 213.453276 
L 263.91455 217.086653 
L 267.862105 220.738314 
L 271.803095 224.396069 
L 275.75065 228.04773 
L 279.717899 231.681107 
L 283.717971 235.284011 
L 287.763996 238.844254 
L 291.869103 242.349645 
L 296.046421 245.787996 
L 300.30908 249.147117 
L 304.670209 252.414821 
L 309.142938 255.578916 
L 313.740395 258.627215 
L 318.47571 261.547528 
L 323.362013 264.327666 
L 328.412432 266.955439 
L 333.640098 269.41866 
L 339.058138 271.705138 
L 344.679684 273.802684 
L 350.517864 275.69911 
L 356.585807 277.382226 
L 362.896643 278.839843 
L 369.463501 280.059772 
L 376.299511 281.029824 
L 383.417801 281.737809 
L 390.831502 282.171539 
L 398.553742 282.318824 
L 398.553742 282.318824 
L 398.553742 282.046512 
L 398.553742 282.046512 
L 390.831502 281.899227 
L 383.417801 281.465497 
L 376.299511 280.757511 
L 369.463501 279.78746 
L 362.896643 278.567531 
L 356.585807 277.109914 
L 350.517864 275.426798 
L 344.679684 273.530372 
L 339.058138 271.432825 
L 333.640098 269.146347 
L 328.412432 266.683127 
L 323.362013 264.055353 
L 318.47571 261.275215 
L 313.740395 258.354903 
L 309.142938 255.306604 
L 304.670209 252.142508 
L 300.30908 248.874805 
L 296.046421 245.515684 
L 291.869103 242.077333 
L 287.763996 238.571941 
L 283.717971 235.011699 
L 279.717899 231.408795 
L 275.75065 227.775418 
L 271.803095 224.123757 
L 267.862105 220.466001 
L 263.91455 216.814341 
L 259.947302 213.180964 
L 255.947229 209.578059 
L 251.901204 206.017817 
L 247.796098 202.512426 
L 243.618779 199.074075 
L 239.35612 195.714953 
L 234.994991 192.44725 
L 230.522263 189.283155 
L 225.924806 186.234856 
L 221.189491 183.314543 
L 216.303188 180.534405 
L 211.252769 177.906631 
L 206.025103 175.443411 
L 200.607062 173.156933 
L 194.985517 171.059386 
L 189.147337 169.162961 
L 183.079394 167.479845 
L 176.768558 166.022228 
L 170.201699 164.802299 
L 163.36569 163.832247 
L 156.2474 163.124261 
L 148.833699 162.690532 
L 141.111459 162.543246 
z
" clip-path="url(#p1340ec9be7)" style="fill: #99c1f1; fill-opacity: 0.6; stroke: #ffffff; stroke-opacity: 0.6"/>
    <path d="M 141.111459 69.003955 
L 141.111459 162.543246 
L 141.111459 162.543246 
L 148.833699 162.543015 
L 156.2474 162.542333 
L 163.36569 162.541221 
L 170.201699 162.539697 
L 176.768558 162.537781 
L 183.079394 162.535491 
L 189.147337 162.532847 
L 194.985517 162.529868 
L 200.607062 162.526572 
L 206.025103 162.52298 
L 211.252769 162.519111 
L 216.303188 162.514983 
L 221.189491 162.510615 
L 225.924806 162.506027 
L 230.522263 162.501239 
L 234.994991 162.496268 
L 239.35612 162.491134 
L 243.618779 162.485857 
L 247.796098 162.480456 
L 251.901204 162.474949 
L 255.947229 162.469356 
L 259.947302 162.463696 
L 263.91455 162.457988 
L 267.862105 162.452251 
L 271.803095 162.446505 
L 275.75065 162.440769 
L 279.717899 162.435061 
L 283.717971 162.429401 
L 287.763996 162.423808 
L 291.869103 162.418301 
L 296.046421 162.412899 
L 300.30908 162.407622 
L 304.670209 162.402489 
L 309.142938 162.397518 
L 313.740395 162.392729 
L 318.47571 162.388141 
L 323.362013 162.383774 
L 328.412432 162.379646 
L 333.640098 162.375776 
L 339.058138 162.372184 
L 344.679684 162.368889 
L 350.517864 162.36591 
L 356.585807 162.363266 
L 362.896643 162.360976 
L 369.463501 162.359059 
L 376.299511 162.357535 
L 383.417801 162.356423 
L 390.831502 162.355742 
L 398.553742 162.35551 
L 398.553742 162.35551 
L 398.553742 68.816219 
L 398.553742 68.816219 
L 390.831502 68.816451 
L 383.417801 68.817132 
L 376.299511 68.818244 
L 369.463501 68.819768 
L 362.896643 68.821685 
L 356.585807 68.823975 
L 350.517864 68.826619 
L 344.679684 68.829598 
L 339.058138 68.832893 
L 333.640098 68.836485 
L 328.412432 68.840355 
L 323.362013 68.844483 
L 318.47571 68.84885 
L 313.740395 68.853438 
L 309.142938 68.858227 
L 304.670209 68.863198 
L 300.30908 68.868331 
L 296.046421 68.873608 
L 291.869103 68.87901 
L 287.763996 68.884517 
L 283.717971 68.89011 
L 279.717899 68.89577 
L 275.75065 68.901478 
L 271.803095 68.907214 
L 267.862105 68.91296 
L 263.91455 68.918697 
L 259.947302 68.924405 
L 255.947229 68.930065 
L 251.901204 68.935658 
L 247.796098 68.941165 
L 243.618779 68.946566 
L 239.35612 68.951843 
L 234.994991 68.956977 
L 230.522263 68.961948 
L 225.924806 68.966736 
L 221.189491 68.971324 
L 216.303188 68.975692 
L 211.252769 68.97982 
L 206.025103 68.983689 
L 200.607062 68.987281 
L 194.985517 68.990577 
L 189.147337 68.993556 
L 183.079394 68.9962 
L 176.768558 68.99849 
L 170.201699 69.000406 
L 163.36569 69.00193 
L 156.2474 69.003042 
L 148.833699 69.003724 
L 141.111459 69.003955 
z
" clip-path="url(#p1340ec9be7)" style="fill: #99c1f1; fill-opacity: 0.6; stroke: #ffffff; stroke-opacity: 0.6"/>
    <path d="M 406.640934 174.907813 
L 406.640934 233.114577 
L 406.640934 233.114577 
L 414.363174 233.109942 
L 421.776874 233.096294 
L 428.895165 233.074016 
L 435.731174 233.043492 
L 442.298032 233.005105 
L 448.608868 232.959239 
L 454.676812 232.906276 
L 460.514991 232.846602 
L 466.136537 232.780599 
L 471.554578 232.708651 
L 476.782243 232.631142 
L 481.832663 232.548455 
L 486.718965 232.460973 
L 491.454281 232.36908 
L 496.051738 232.273161 
L 500.524466 232.173597 
L 504.885595 232.070773 
L 509.148254 231.965073 
L 513.325572 231.856879 
L 517.430679 231.746576 
L 521.476704 231.634547 
L 525.476776 231.521176 
L 529.444025 231.406845 
L 533.39158 231.29194 
L 537.33257 231.176842 
L 541.280125 231.061937 
L 545.247374 230.947606 
L 549.247446 230.834235 
L 553.293471 230.722206 
L 557.398578 230.611903 
L 561.575896 230.503709 
L 565.838555 230.398009 
L 570.199684 230.295185 
L 574.672413 230.195621 
L 579.26987 230.099701 
L 584.005185 230.007809 
L 588.891488 229.920327 
L 593.941907 229.83764 
L 599.169572 229.76013 
L 604.587613 229.688183 
L 610.209159 229.62218 
L 616.047339 229.562505 
L 622.115282 229.509543 
L 628.426118 229.463677 
L 634.992976 229.42529 
L 641.828986 229.394766 
L 648.947276 229.372488 
L 656.360976 229.35884 
L 664.083216 229.354205 
L 664.083216 229.354205 
L 664.083216 171.147441 
L 664.083216 171.147441 
L 656.360976 171.152076 
L 648.947276 171.165724 
L 641.828986 171.188002 
L 634.992976 171.218526 
L 628.426118 171.256913 
L 622.115282 171.302779 
L 616.047339 171.355741 
L 610.209159 171.415416 
L 604.587613 171.481419 
L 599.169572 171.553366 
L 593.941907 171.630876 
L 588.891488 171.713563 
L 584.005185 171.801045 
L 579.26987 171.892937 
L 574.672413 171.988857 
L 570.199684 172.088421 
L 565.838555 172.191245 
L 561.575896 172.296945 
L 557.398578 172.405139 
L 553.293471 172.515442 
L 549.247446 172.627471 
L 545.247374 172.740842 
L 541.280125 172.855173 
L 537.33257 172.970078 
L 533.39158 173.085176 
L 529.444025 173.200081 
L 525.476776 173.314412 
L 521.476704 173.427783 
L 517.430679 173.539812 
L 513.325572 173.650115 
L 509.148254 173.758309 
L 504.885595 173.864009 
L 500.524466 173.966833 
L 496.051738 174.066397 
L 491.454281 174.162316 
L 486.718965 174.254209 
L 481.832663 174.341691 
L 476.782243 174.424378 
L 471.554578 174.501887 
L 466.136537 174.573835 
L 460.514991 174.639838 
L 454.676812 174.699512 
L 448.608868 174.752474 
L 442.298032 174.798341 
L 435.731174 174.836728 
L 428.895165 174.867252 
L 421.776874 174.88953 
L 414.363174 174.903178 
L 406.640934 174.907813 
z
" clip-path="url(#p1340ec9be7)" style="fill: #dc8add; fill-opacity: 0.6; stroke: #ffffff; stroke-opacity: 0.6"/>
    <path d="M 406.640934 282.454981 
L 406.640934 285.995041 
L 406.640934 285.995041 
L 414.363174 285.959466 
L 421.776874 285.854702 
L 428.895165 285.683694 
L 435.731174 285.449387 
L 442.298032 285.154723 
L 448.608868 284.802649 
L 454.676812 284.396107 
L 460.514991 283.938041 
L 466.136537 283.431397 
L 471.554578 282.879118 
L 476.782243 282.284149 
L 481.832663 281.649433 
L 486.718965 280.977915 
L 491.454281 280.272538 
L 496.051738 279.536248 
L 500.524466 278.771989 
L 504.885595 277.982703 
L 509.148254 277.171337 
L 513.325572 276.340833 
L 517.430679 275.494136 
L 521.476704 274.63419 
L 525.476776 273.76394 
L 529.444025 272.886329 
L 533.39158 272.004302 
L 537.33257 271.120803 
L 541.280125 270.238776 
L 545.247374 269.361166 
L 549.247446 268.490915 
L 553.293471 267.63097 
L 557.398578 266.784273 
L 561.575896 265.953769 
L 565.838555 265.142402 
L 570.199684 264.353117 
L 574.672413 263.588857 
L 579.26987 262.852567 
L 584.005185 262.147191 
L 588.891488 261.475673 
L 593.941907 260.840957 
L 599.169572 260.245987 
L 604.587613 259.693708 
L 610.209159 259.187064 
L 616.047339 258.728999 
L 622.115282 258.322457 
L 628.426118 257.970382 
L 634.992976 257.675719 
L 641.828986 257.441411 
L 648.947276 257.270404 
L 656.360976 257.16564 
L 664.083216 257.130064 
L 664.083216 257.130064 
L 664.083216 253.590004 
L 664.083216 253.590004 
L 656.360976 253.625579 
L 648.947276 253.730343 
L 641.828986 253.901351 
L 634.992976 254.135658 
L 628.426118 254.430322 
L 622.115282 254.782396 
L 616.047339 255.188938 
L 610.209159 255.647004 
L 604.587613 256.153648 
L 599.169572 256.705927 
L 593.941907 257.300896 
L 588.891488 257.935612 
L 584.005185 258.60713 
L 579.26987 259.312507 
L 574.672413 260.048797 
L 570.199684 260.813056 
L 565.838555 261.602342 
L 561.575896 262.413708 
L 557.398578 263.244212 
L 553.293471 264.090909 
L 549.247446 264.950855 
L 545.247374 265.821105 
L 541.280125 266.698716 
L 537.33257 267.580743 
L 533.39158 268.464242 
L 529.444025 269.346269 
L 525.476776 270.223879 
L 521.476704 271.09413 
L 517.430679 271.954075 
L 513.325572 272.800772 
L 509.148254 273.631276 
L 504.885595 274.442643 
L 500.524466 275.231928 
L 496.051738 275.996188 
L 491.454281 276.732478 
L 486.718965 277.437854 
L 481.832663 278.109372 
L 476.782243 278.744088 
L 471.554578 279.339058 
L 466.136537 279.891337 
L 460.514991 280.397981 
L 454.676812 280.856046 
L 448.608868 281.262588 
L 442.298032 281.614663 
L 435.731174 281.909326 
L 428.895165 282.143634 
L 421.776874 282.314641 
L 414.363174 282.419405 
L 406.640934 282.454981 
z
" clip-path="url(#p1340ec9be7)" style="fill: #ffa348; fill-opacity: 0.6; stroke: #ffffff; stroke-opacity: 0.6"/>
    <path d="M 406.640934 246.211504 
L 406.640934 269.49421 
L 406.640934 269.49421 
L 414.363174 269.474105 
L 421.776874 269.414899 
L 428.895165 269.318256 
L 435.731174 269.18584 
L 442.298032 269.019315 
L 448.608868 268.820344 
L 454.676812 268.590592 
L 460.514991 268.331722 
L 466.136537 268.045399 
L 471.554578 267.733286 
L 476.782243 267.397046 
L 481.832663 267.038344 
L 486.718965 266.658845 
L 491.454281 266.26021 
L 496.051738 265.844105 
L 500.524466 265.412193 
L 504.885595 264.966139 
L 509.148254 264.507605 
L 513.325572 264.038257 
L 517.430679 263.559757 
L 521.476704 263.073769 
L 525.476776 262.581958 
L 529.444025 262.085988 
L 533.39158 261.587522 
L 537.33257 261.088223 
L 541.280125 260.589757 
L 545.247374 260.093787 
L 549.247446 259.601976 
L 553.293471 259.115988 
L 557.398578 258.637488 
L 561.575896 258.16814 
L 565.838555 257.709606 
L 570.199684 257.263552 
L 574.672413 256.83164 
L 579.26987 256.415535 
L 584.005185 256.0169 
L 588.891488 255.637401 
L 593.941907 255.278699 
L 599.169572 254.942459 
L 604.587613 254.630346 
L 610.209159 254.344023 
L 616.047339 254.085153 
L 622.115282 253.855401 
L 628.426118 253.65643 
L 634.992976 253.489905 
L 641.828986 253.357489 
L 648.947276 253.260846 
L 656.360976 253.20164 
L 664.083216 253.181535 
L 664.083216 253.181535 
L 664.083216 229.89883 
L 664.083216 229.89883 
L 656.360976 229.918935 
L 648.947276 229.978141 
L 641.828986 230.074783 
L 634.992976 230.207199 
L 628.426118 230.373725 
L 622.115282 230.572695 
L 616.047339 230.802447 
L 610.209159 231.061317 
L 604.587613 231.34764 
L 599.169572 231.659754 
L 593.941907 231.995993 
L 588.891488 232.354695 
L 584.005185 232.734195 
L 579.26987 233.132829 
L 574.672413 233.548934 
L 570.199684 233.980846 
L 565.838555 234.426901 
L 561.575896 234.885434 
L 557.398578 235.354783 
L 553.293471 235.833283 
L 549.247446 236.31927 
L 545.247374 236.811081 
L 541.280125 237.307051 
L 537.33257 237.805518 
L 533.39158 238.304816 
L 529.444025 238.803282 
L 525.476776 239.299253 
L 521.476704 239.791064 
L 517.430679 240.277051 
L 513.325572 240.755551 
L 509.148254 241.2249 
L 504.885595 241.683433 
L 500.524466 242.129488 
L 496.051738 242.561399 
L 491.454281 242.977504 
L 486.718965 243.376139 
L 481.832663 243.755639 
L 476.782243 244.11434 
L 471.554578 244.45058 
L 466.136537 244.762693 
L 460.514991 245.049017 
L 454.676812 245.307887 
L 448.608868 245.537639 
L 442.298032 245.736609 
L 435.731174 245.903134 
L 428.895165 246.03555 
L 421.776874 246.132193 
L 414.363174 246.191399 
L 406.640934 246.211504 
z
" clip-path="url(#p1340ec9be7)" style="fill: #8ff0a4; fill-opacity: 0.6; stroke: #ffffff; stroke-opacity: 0.6"/>
    <path d="M 406.640934 302.087404 
L 406.640934 382.623781 
L 406.640934 382.623781 
L 414.363174 382.623781 
L 421.776874 382.623781 
L 428.895165 382.623781 
L 435.731174 382.623781 
L 442.298032 382.623781 
L 448.608868 382.623781 
L 454.676812 382.623781 
L 460.514991 382.623781 
L 466.136537 382.623781 
L 471.554578 382.623781 
L 476.782243 382.623781 
L 481.832663 382.623781 
L 486.718965 382.623781 
L 491.454281 382.623781 
L 496.051738 382.623781 
L 500.524466 382.623781 
L 504.885595 382.623781 
L 509.148254 382.623781 
L 513.325572 382.623781 
L 517.430679 382.623781 
L 521.476704 382.623781 
L 525.476776 382.623781 
L 529.444025 382.623781 
L 533.39158 382.623781 
L 537.33257 382.623781 
L 541.280125 382.623781 
L 545.247374 382.623781 
L 549.247446 382.623781 
L 553.293471 382.623781 
L 557.398578 382.623781 
L 561.575896 382.623781 
L 565.838555 382.623781 
L 570.199684 382.623781 
L 574.672413 382.623781 
L 579.26987 382.623781 
L 584.005185 382.623781 
L 588.891488 382.623781 
L 593.941907 382.623781 
L 599.169572 382.623781 
L 604.587613 382.623781 
L 610.209159 382.623781 
L 616.047339 382.623781 
L 622.115282 382.623781 
L 628.426118 382.623781 
L 634.992976 382.623781 
L 641.828986 382.623781 
L 648.947276 382.623781 
L 656.360976 382.623781 
L 664.083216 382.623781 
L 664.083216 382.623781 
L 664.083216 302.087404 
L 664.083216 302.087404 
L 656.360976 302.087404 
L 648.947276 302.087404 
L 641.828986 302.087404 
L 634.992976 302.087404 
L 628.426118 302.087404 
L 622.115282 302.087404 
L 616.047339 302.087404 
L 610.209159 302.087404 
L 604.587613 302.087404 
L 599.169572 302.087404 
L 593.941907 302.087404 
L 588.891488 302.087404 
L 584.005185 302.087404 
L 579.26987 302.087404 
L 574.672413 302.087404 
L 570.199684 302.087404 
L 565.838555 302.087404 
L 561.575896 302.087404 
L 557.398578 302.087404 
L 553.293471 302.087404 
L 549.247446 302.087404 
L 545.247374 302.087404 
L 541.280125 302.087404 
L 537.33257 302.087404 
L 533.39158 302.087404 
L 529.444025 302.087404 
L 525.476776 302.087404 
L 521.476704 302.087404 
L 517.430679 302.087404 
L 513.325572 302.087404 
L 509.148254 302.087404 
L 504.885595 302.087404 
L 500.524466 302.087404 
L 496.051738 302.087404 
L 491.454281 302.087404 
L 486.718965 302.087404 
L 481.832663 302.087404 
L 476.782243 302.087404 
L 471.554578 302.087404 
L 466.136537 302.087404 
L 460.514991 302.087404 
L 454.676812 302.087404 
L 448.608868 302.087404 
L 442.298032 302.087404 
L 435.731174 302.087404 
L 428.895165 302.087404 
L 421.776874 302.087404 
L 414.363174 302.087404 
L 406.640934 302.087404 
z
" clip-path="url(#p1340ec9be7)" style="fill: #bcbcbc; fill-opacity: 0.6; stroke: #ffffff; stroke-opacity: 0.6"/>
    <path d="M 406.640934 301.88317 
L 406.640934 302.087404 
L 406.640934 302.087404 
L 414.363174 302.032247 
L 421.776874 301.869818 
L 428.895165 301.604683 
L 435.731174 301.241405 
L 442.298032 300.784551 
L 448.608868 300.238684 
L 454.676812 299.608369 
L 460.514991 298.898171 
L 466.136537 298.112655 
L 471.554578 297.256386 
L 476.782243 296.333928 
L 481.832663 295.349846 
L 486.718965 294.308704 
L 491.454281 293.215068 
L 496.051738 292.073503 
L 500.524466 290.888572 
L 504.885595 289.664841 
L 509.148254 288.406874 
L 513.325572 287.119237 
L 517.430679 285.806493 
L 521.476704 284.473208 
L 525.476776 283.123947 
L 529.444025 281.763273 
L 533.39158 280.395753 
L 537.33257 279.02595 
L 541.280125 277.658429 
L 545.247374 276.297756 
L 549.247446 274.948495 
L 553.293471 273.61521 
L 557.398578 272.302466 
L 561.575896 271.014829 
L 565.838555 269.756862 
L 570.199684 268.533131 
L 574.672413 267.3482 
L 579.26987 266.206634 
L 584.005185 265.112998 
L 588.891488 264.071857 
L 593.941907 263.087775 
L 599.169572 262.165317 
L 604.587613 261.309047 
L 610.209159 260.523531 
L 616.047339 259.813334 
L 622.115282 259.183019 
L 628.426118 258.637152 
L 634.992976 258.180297 
L 641.828986 257.81702 
L 648.947276 257.551885 
L 656.360976 257.389456 
L 664.083216 257.334299 
L 664.083216 257.334299 
L 664.083216 257.130064 
L 664.083216 257.130064 
L 656.360976 257.185222 
L 648.947276 257.34765 
L 641.828986 257.612786 
L 634.992976 257.976063 
L 628.426118 258.432918 
L 622.115282 258.978785 
L 616.047339 259.609099 
L 610.209159 260.319297 
L 604.587613 261.104813 
L 599.169572 261.961082 
L 593.941907 262.883541 
L 588.891488 263.867623 
L 584.005185 264.908764 
L 579.26987 266.0024 
L 574.672413 267.143966 
L 570.199684 268.328897 
L 565.838555 269.552628 
L 561.575896 270.810594 
L 557.398578 272.098232 
L 553.293471 273.410975 
L 549.247446 274.74426 
L 545.247374 276.093522 
L 541.280125 277.454195 
L 537.33257 278.821716 
L 533.39158 280.191519 
L 529.444025 281.559039 
L 525.476776 282.919712 
L 521.476704 284.268974 
L 517.430679 285.602259 
L 513.325572 286.915002 
L 509.148254 288.20264 
L 504.885595 289.460606 
L 500.524466 290.684338 
L 496.051738 291.869268 
L 491.454281 293.010834 
L 486.718965 294.10447 
L 481.832663 295.145611 
L 476.782243 296.129694 
L 471.554578 297.052152 
L 466.136537 297.908421 
L 460.514991 298.693937 
L 454.676812 299.404135 
L 448.608868 300.03445 
L 442.298032 300.580317 
L 435.731174 301.037171 
L 428.895165 301.400448 
L 421.776874 301.665584 
L 414.363174 301.828013 
L 406.640934 301.88317 
z
" clip-path="url(#p1340ec9be7)" style="fill: #bcbcbc; fill-opacity: 0.6; stroke: #ffffff; stroke-opacity: 0.6"/>
    <path d="M 406.640934 285.995041 
L 406.640934 288.51393 
L 406.640934 288.51393 
L 414.363174 288.514182 
L 421.776874 288.514923 
L 428.895165 288.516133 
L 435.731174 288.517791 
L 442.298032 288.519876 
L 448.608868 288.522367 
L 454.676812 288.525244 
L 460.514991 288.528485 
L 466.136537 288.532069 
L 471.554578 288.535977 
L 476.782243 288.540187 
L 481.832663 288.544678 
L 486.718965 288.549429 
L 491.454281 288.55442 
L 496.051738 288.55963 
L 500.524466 288.565037 
L 504.885595 288.570622 
L 509.148254 288.576363 
L 513.325572 288.582239 
L 517.430679 288.58823 
L 521.476704 288.594314 
L 525.476776 288.600472 
L 529.444025 288.606681 
L 533.39158 288.612922 
L 537.33257 288.619173 
L 541.280125 288.625414 
L 545.247374 288.631623 
L 549.247446 288.637781 
L 553.293471 288.643865 
L 557.398578 288.649856 
L 561.575896 288.655732 
L 565.838555 288.661473 
L 570.199684 288.667058 
L 574.672413 288.672465 
L 579.26987 288.677675 
L 584.005185 288.682666 
L 588.891488 288.687417 
L 593.941907 288.691908 
L 599.169572 288.696118 
L 604.587613 288.700026 
L 610.209159 288.70361 
L 616.047339 288.706851 
L 622.115282 288.709728 
L 628.426118 288.712219 
L 634.992976 288.714304 
L 641.828986 288.715962 
L 648.947276 288.717172 
L 656.360976 288.717913 
L 664.083216 288.718165 
L 664.083216 288.718165 
L 664.083216 286.199275 
L 664.083216 286.199275 
L 656.360976 286.199024 
L 648.947276 286.198282 
L 641.828986 286.197072 
L 634.992976 286.195415 
L 628.426118 286.19333 
L 622.115282 286.190839 
L 616.047339 286.187962 
L 610.209159 286.184721 
L 604.587613 286.181136 
L 599.169572 286.177229 
L 593.941907 286.173019 
L 588.891488 286.168528 
L 584.005185 286.163777 
L 579.26987 286.158786 
L 574.672413 286.153576 
L 570.199684 286.148169 
L 565.838555 286.142584 
L 561.575896 286.136843 
L 557.398578 286.130967 
L 553.293471 286.124976 
L 549.247446 286.118892 
L 545.247374 286.112734 
L 541.280125 286.106525 
L 537.33257 286.100284 
L 533.39158 286.094033 
L 529.444025 286.087792 
L 525.476776 286.081582 
L 521.476704 286.075425 
L 517.430679 286.06934 
L 513.325572 286.06335 
L 509.148254 286.057473 
L 504.885595 286.051732 
L 500.524466 286.046148 
L 496.051738 286.04074 
L 491.454281 286.035531 
L 486.718965 286.03054 
L 481.832663 286.025789 
L 476.782243 286.021298 
L 471.554578 286.017088 
L 466.136537 286.01318 
L 460.514991 286.009595 
L 454.676812 286.006354 
L 448.608868 286.003478 
L 442.298032 286.000987 
L 435.731174 285.998902 
L 428.895165 285.997244 
L 421.776874 285.996034 
L 414.363174 285.995293 
L 406.640934 285.995041 
z
" clip-path="url(#p1340ec9be7)" style="fill: #ffa348; fill-opacity: 0.6; stroke: #ffffff; stroke-opacity: 0.6"/>
    <path d="M 406.640934 288.51393 
L 406.640934 289.330867 
L 406.640934 289.330867 
L 414.363174 289.34659 
L 421.776874 289.392889 
L 428.895165 289.468464 
L 435.731174 289.572013 
L 442.298032 289.702236 
L 448.608868 289.857831 
L 454.676812 290.037498 
L 460.514991 290.239934 
L 466.136537 290.46384 
L 471.554578 290.707913 
L 476.782243 290.970853 
L 481.832663 291.251358 
L 486.718965 291.548127 
L 491.454281 291.85986 
L 496.051738 292.185255 
L 500.524466 292.52301 
L 504.885595 292.871826 
L 509.148254 293.2304 
L 513.325572 293.597431 
L 517.430679 293.971619 
L 521.476704 294.351662 
L 525.476776 294.736259 
L 529.444025 295.124108 
L 533.39158 295.51391 
L 537.33257 295.904362 
L 541.280125 296.294163 
L 545.247374 296.682013 
L 549.247446 297.06661 
L 553.293471 297.446653 
L 557.398578 297.82084 
L 561.575896 298.187872 
L 565.838555 298.546446 
L 570.199684 298.895261 
L 574.672413 299.233017 
L 579.26987 299.558411 
L 584.005185 299.870144 
L 588.891488 300.166914 
L 593.941907 300.447419 
L 599.169572 300.710359 
L 604.587613 300.954432 
L 610.209159 301.178337 
L 616.047339 301.380774 
L 622.115282 301.56044 
L 628.426118 301.716036 
L 634.992976 301.846259 
L 641.828986 301.949808 
L 648.947276 302.025383 
L 656.360976 302.071682 
L 664.083216 302.087404 
L 664.083216 302.087404 
L 664.083216 301.270467 
L 664.083216 301.270467 
L 656.360976 301.254745 
L 648.947276 301.208446 
L 641.828986 301.132871 
L 634.992976 301.029321 
L 628.426118 300.899099 
L 622.115282 300.743503 
L 616.047339 300.563837 
L 610.209159 300.3614 
L 604.587613 300.137495 
L 599.169572 299.893422 
L 593.941907 299.630482 
L 588.891488 299.349977 
L 584.005185 299.053207 
L 579.26987 298.741474 
L 574.672413 298.41608 
L 570.199684 298.078324 
L 565.838555 297.729509 
L 561.575896 297.370935 
L 557.398578 297.003903 
L 553.293471 296.629716 
L 549.247446 296.249673 
L 545.247374 295.865076 
L 541.280125 295.477226 
L 537.33257 295.087425 
L 533.39158 294.696973 
L 529.444025 294.307171 
L 525.476776 293.919322 
L 521.476704 293.534725 
L 517.430679 293.154682 
L 513.325572 292.780494 
L 509.148254 292.413463 
L 504.885595 292.054889 
L 500.524466 291.706073 
L 496.051738 291.368318 
L 491.454281 291.042923 
L 486.718965 290.73119 
L 481.832663 290.434421 
L 476.782243 290.153916 
L 471.554578 289.890976 
L 466.136537 289.646903 
L 460.514991 289.422997 
L 454.676812 289.220561 
L 448.608868 289.040894 
L 442.298032 288.885299 
L 435.731174 288.755076 
L 428.895165 288.651526 
L 421.776874 288.575952 
L 414.363174 288.529653 
L 406.640934 288.51393 
z
" clip-path="url(#p1340ec9be7)" style="fill: #ffa348; fill-opacity: 0.6; stroke: #ffffff; stroke-opacity: 0.6"/>
    <path d="M 406.640934 282.318824 
L 406.640934 282.454981 
L 406.640934 282.454981 
L 414.363174 282.419405 
L 421.776874 282.314641 
L 428.895165 282.143634 
L 435.731174 281.909326 
L 442.298032 281.614663 
L 448.608868 281.262588 
L 454.676812 280.856046 
L 460.514991 280.397981 
L 466.136537 279.891337 
L 471.554578 279.339058 
L 476.782243 278.744088 
L 481.832663 278.109372 
L 486.718965 277.437854 
L 491.454281 276.732478 
L 496.051738 275.996188 
L 500.524466 275.231928 
L 504.885595 274.442643 
L 509.148254 273.631276 
L 513.325572 272.800772 
L 517.430679 271.954075 
L 521.476704 271.09413 
L 525.476776 270.223879 
L 529.444025 269.346269 
L 533.39158 268.464242 
L 537.33257 267.580743 
L 541.280125 266.698716 
L 545.247374 265.821105 
L 549.247446 264.950855 
L 553.293471 264.090909 
L 557.398578 263.244212 
L 561.575896 262.413708 
L 565.838555 261.602342 
L 570.199684 260.813056 
L 574.672413 260.048797 
L 579.26987 259.312507 
L 584.005185 258.60713 
L 588.891488 257.935612 
L 593.941907 257.300896 
L 599.169572 256.705927 
L 604.587613 256.153648 
L 610.209159 255.647004 
L 616.047339 255.188938 
L 622.115282 254.782396 
L 628.426118 254.430322 
L 634.992976 254.135658 
L 641.828986 253.901351 
L 648.947276 253.730343 
L 656.360976 253.625579 
L 664.083216 253.590004 
L 664.083216 253.590004 
L 664.083216 253.453848 
L 664.083216 253.453848 
L 656.360976 253.489423 
L 648.947276 253.594187 
L 641.828986 253.765195 
L 634.992976 253.999502 
L 628.426118 254.294165 
L 622.115282 254.64624 
L 616.047339 255.052782 
L 610.209159 255.510847 
L 604.587613 256.017492 
L 599.169572 256.56977 
L 593.941907 257.16474 
L 588.891488 257.799456 
L 584.005185 258.470974 
L 579.26987 259.17635 
L 574.672413 259.91264 
L 570.199684 260.6769 
L 565.838555 261.466186 
L 561.575896 262.277552 
L 557.398578 263.108056 
L 553.293471 263.954753 
L 549.247446 264.814699 
L 545.247374 265.684949 
L 541.280125 266.56256 
L 537.33257 267.444587 
L 533.39158 268.328086 
L 529.444025 269.210113 
L 525.476776 270.087723 
L 521.476704 270.957974 
L 517.430679 271.817919 
L 513.325572 272.664616 
L 509.148254 273.49512 
L 504.885595 274.306487 
L 500.524466 275.095772 
L 496.051738 275.860032 
L 491.454281 276.596322 
L 486.718965 277.301698 
L 481.832663 277.973216 
L 476.782243 278.607932 
L 471.554578 279.202902 
L 466.136537 279.755181 
L 460.514991 280.261825 
L 454.676812 280.71989 
L 448.608868 281.126432 
L 442.298032 281.478507 
L 435.731174 281.77317 
L 428.895165 282.007478 
L 421.776874 282.178485 
L 414.363174 282.283249 
L 406.640934 282.318824 
z
" clip-path="url(#p1340ec9be7)" style="fill: #ffa348; fill-opacity: 0.6; stroke: #ffffff; stroke-opacity: 0.6"/>
    <path d="M 406.640934 245.666879 
L 406.640934 246.211504 
L 406.640934 246.211504 
L 414.363174 246.191399 
L 421.776874 246.132193 
L 428.895165 246.03555 
L 435.731174 245.903134 
L 442.298032 245.736609 
L 448.608868 245.537639 
L 454.676812 245.307887 
L 460.514991 245.049017 
L 466.136537 244.762693 
L 471.554578 244.45058 
L 476.782243 244.11434 
L 481.832663 243.755639 
L 486.718965 243.376139 
L 491.454281 242.977504 
L 496.051738 242.561399 
L 500.524466 242.129488 
L 504.885595 241.683433 
L 509.148254 241.2249 
L 513.325572 240.755551 
L 517.430679 240.277051 
L 521.476704 239.791064 
L 525.476776 239.299253 
L 529.444025 238.803282 
L 533.39158 238.304816 
L 537.33257 237.805518 
L 541.280125 237.307051 
L 545.247374 236.811081 
L 549.247446 236.31927 
L 553.293471 235.833283 
L 557.398578 235.354783 
L 561.575896 234.885434 
L 565.838555 234.426901 
L 570.199684 233.980846 
L 574.672413 233.548934 
L 579.26987 233.132829 
L 584.005185 232.734195 
L 588.891488 232.354695 
L 593.941907 231.995993 
L 599.169572 231.659754 
L 604.587613 231.34764 
L 610.209159 231.061317 
L 616.047339 230.802447 
L 622.115282 230.572695 
L 628.426118 230.373725 
L 634.992976 230.207199 
L 641.828986 230.074783 
L 648.947276 229.978141 
L 656.360976 229.918935 
L 664.083216 229.89883 
L 664.083216 229.89883 
L 664.083216 229.354205 
L 664.083216 229.354205 
L 656.360976 229.37431 
L 648.947276 229.433516 
L 641.828986 229.530159 
L 634.992976 229.662575 
L 628.426118 229.8291 
L 622.115282 230.02807 
L 616.047339 230.257823 
L 610.209159 230.516692 
L 604.587613 230.803016 
L 599.169572 231.115129 
L 593.941907 231.451369 
L 588.891488 231.81007 
L 584.005185 232.18957 
L 579.26987 232.588205 
L 574.672413 233.00431 
L 570.199684 233.436221 
L 565.838555 233.882276 
L 561.575896 234.340809 
L 557.398578 234.810158 
L 553.293471 235.288658 
L 549.247446 235.774645 
L 545.247374 236.266456 
L 541.280125 236.762427 
L 537.33257 237.260893 
L 533.39158 237.760191 
L 529.444025 238.258658 
L 525.476776 238.754628 
L 521.476704 239.246439 
L 517.430679 239.732426 
L 513.325572 240.210926 
L 509.148254 240.680275 
L 504.885595 241.138809 
L 500.524466 241.584863 
L 496.051738 242.016775 
L 491.454281 242.43288 
L 486.718965 242.831514 
L 481.832663 243.211014 
L 476.782243 243.569716 
L 471.554578 243.905955 
L 466.136537 244.218069 
L 460.514991 244.504392 
L 454.676812 244.763262 
L 448.608868 244.993014 
L 442.298032 245.191984 
L 435.731174 245.35851 
L 428.895165 245.490926 
L 421.776874 245.587568 
L 414.363174 245.646774 
L 406.640934 245.666879 
z
" clip-path="url(#p1340ec9be7)" style="fill: #8ff0a4; fill-opacity: 0.6; stroke: #ffffff; stroke-opacity: 0.6"/>
    <path d="M 406.640934 282.046512 
L 406.640934 282.318824 
L 406.640934 282.318824 
L 414.363174 282.283249 
L 421.776874 282.178485 
L 428.895165 282.007478 
L 435.731174 281.77317 
L 442.298032 281.478507 
L 448.608868 281.126432 
L 454.676812 280.71989 
L 460.514991 280.261825 
L 466.136537 279.755181 
L 471.554578 279.202902 
L 476.782243 278.607932 
L 481.832663 277.973216 
L 486.718965 277.301698 
L 491.454281 276.596322 
L 496.051738 275.860032 
L 500.524466 275.095772 
L 504.885595 274.306487 
L 509.148254 273.49512 
L 513.325572 272.664616 
L 517.430679 271.817919 
L 521.476704 270.957974 
L 525.476776 270.087723 
L 529.444025 269.210113 
L 533.39158 268.328086 
L 537.33257 267.444587 
L 541.280125 266.56256 
L 545.247374 265.684949 
L 549.247446 264.814699 
L 553.293471 263.954753 
L 557.398578 263.108056 
L 561.575896 262.277552 
L 565.838555 261.466186 
L 570.199684 260.6769 
L 574.672413 259.91264 
L 579.26987 259.17635 
L 584.005185 258.470974 
L 588.891488 257.799456 
L 593.941907 257.16474 
L 599.169572 256.56977 
L 604.587613 256.017492 
L 610.209159 255.510847 
L 616.047339 255.052782 
L 622.115282 254.64624 
L 628.426118 254.294165 
L 634.992976 253.999502 
L 641.828986 253.765195 
L 648.947276 253.594187 
L 656.360976 253.489423 
L 664.083216 253.453848 
L 664.083216 253.453848 
L 664.083216 253.181535 
L 664.083216 253.181535 
L 656.360976 253.217111 
L 648.947276 253.321875 
L 641.828986 253.492882 
L 634.992976 253.72719 
L 628.426118 254.021853 
L 622.115282 254.373928 
L 616.047339 254.78047 
L 610.209159 255.238535 
L 604.587613 255.745179 
L 599.169572 256.297458 
L 593.941907 256.892428 
L 588.891488 257.527144 
L 584.005185 258.198662 
L 579.26987 258.904038 
L 574.672413 259.640328 
L 570.199684 260.404588 
L 565.838555 261.193873 
L 561.575896 262.00524 
L 557.398578 262.835744 
L 553.293471 263.682441 
L 549.247446 264.542386 
L 545.247374 265.412637 
L 541.280125 266.290247 
L 537.33257 267.172274 
L 533.39158 268.055773 
L 529.444025 268.9378 
L 525.476776 269.815411 
L 521.476704 270.685661 
L 517.430679 271.545607 
L 513.325572 272.392304 
L 509.148254 273.222808 
L 504.885595 274.034174 
L 500.524466 274.82346 
L 496.051738 275.587719 
L 491.454281 276.324009 
L 486.718965 277.029386 
L 481.832663 277.700904 
L 476.782243 278.33562 
L 471.554578 278.930589 
L 466.136537 279.482868 
L 460.514991 279.989512 
L 454.676812 280.447578 
L 448.608868 280.85412 
L 442.298032 281.206194 
L 435.731174 281.500858 
L 428.895165 281.735165 
L 421.776874 281.906173 
L 414.363174 282.010937 
L 406.640934 282.046512 
z
" clip-path="url(#p1340ec9be7)" style="fill: #ffa348; fill-opacity: 0.6; stroke: #ffffff; stroke-opacity: 0.6"/>
    <path d="M 406.640934 68.816219 
L 406.640934 162.35551 
L 406.640934 162.35551 
L 414.363174 162.366346 
L 421.776874 162.398256 
L 428.895165 162.450343 
L 435.731174 162.52171 
L 442.298032 162.611461 
L 448.608868 162.718699 
L 454.676812 162.842527 
L 460.514991 162.982048 
L 466.136537 163.136366 
L 471.554578 163.304584 
L 476.782243 163.485804 
L 481.832663 163.679131 
L 486.718965 163.883668 
L 491.454281 164.098517 
L 496.051738 164.322782 
L 500.524466 164.555567 
L 504.885595 164.795974 
L 509.148254 165.043106 
L 513.325572 165.296068 
L 517.430679 165.553962 
L 521.476704 165.815891 
L 525.476776 166.080959 
L 529.444025 166.348269 
L 533.39158 166.616924 
L 537.33257 166.886027 
L 541.280125 167.154682 
L 545.247374 167.421992 
L 549.247446 167.68706 
L 553.293471 167.948989 
L 557.398578 168.206883 
L 561.575896 168.459845 
L 565.838555 168.706978 
L 570.199684 168.947385 
L 574.672413 169.180169 
L 579.26987 169.404434 
L 584.005185 169.619284 
L 588.891488 169.82382 
L 593.941907 170.017147 
L 599.169572 170.198368 
L 604.587613 170.366585 
L 610.209159 170.520903 
L 616.047339 170.660424 
L 622.115282 170.784252 
L 628.426118 170.89149 
L 634.992976 170.981241 
L 641.828986 171.052608 
L 648.947276 171.104695 
L 656.360976 171.136605 
L 664.083216 171.147441 
L 664.083216 171.147441 
L 664.083216 77.60815 
L 664.083216 77.60815 
L 656.360976 77.597314 
L 648.947276 77.565404 
L 641.828986 77.513317 
L 634.992976 77.44195 
L 628.426118 77.352199 
L 622.115282 77.244961 
L 616.047339 77.121133 
L 610.209159 76.981612 
L 604.587613 76.827294 
L 599.169572 76.659077 
L 593.941907 76.477856 
L 588.891488 76.284529 
L 584.005185 76.079993 
L 579.26987 75.865143 
L 574.672413 75.640878 
L 570.199684 75.408094 
L 565.838555 75.167687 
L 561.575896 74.920554 
L 557.398578 74.667592 
L 553.293471 74.409698 
L 549.247446 74.147769 
L 545.247374 73.882701 
L 541.280125 73.615391 
L 537.33257 73.346736 
L 533.39158 73.077633 
L 529.444025 72.808978 
L 525.476776 72.541668 
L 521.476704 72.2766 
L 517.430679 72.014671 
L 513.325572 71.756777 
L 509.148254 71.503815 
L 504.885595 71.256683 
L 500.524466 71.016276 
L 496.051738 70.783491 
L 491.454281 70.559226 
L 486.718965 70.344377 
L 481.832663 70.13984 
L 476.782243 69.946513 
L 471.554578 69.765293 
L 466.136537 69.597075 
L 460.514991 69.442757 
L 454.676812 69.303236 
L 448.608868 69.179408 
L 442.298032 69.07217 
L 435.731174 68.982419 
L 428.895165 68.911052 
L 421.776874 68.858965 
L 414.363174 68.827055 
L 406.640934 68.816219 
z
" clip-path="url(#p1340ec9be7)" style="fill: #99c1f1; fill-opacity: 0.6; stroke: #ffffff; stroke-opacity: 0.6"/>
   </g>
   <g id="PathCollection_1">
    <defs>
     <path id="C0_0_1cc1bfa5ef" d="M 0 0 
C 0 0 0 0 0 0 
C 0 0 0 0 0 -0 
C 0 -0 0 -0 0 -0 
C 0 -0 0 -0 0 -0 
C 0 0 0 0 0 0 
C 0 0 0 0 0 0 
C 0 0 0 0 0 0 
C 0 0 0 0 0 0 
z
"/>
    </defs>
    <g clip-path="url(#p1340ec9be7)">
     <use xlink:href="#C0_0_1cc1bfa5ef" x="668.126813" y="341.947124" style="fill: #3d70a0; stroke: #000000"/>
    </g>
    <g clip-path="url(#p1340ec9be7)">
     <use xlink:href="#C0_0_1cc1bfa5ef" x="668.126813" y="287.45872" style="fill: #808080; stroke: #000000"/>
    </g>
    <g clip-path="url(#p1340ec9be7)">
     <use xlink:href="#C0_0_1cc1bfa5ef" x="668.126813" y="167.471224" style="fill: #f8e45c; stroke: #000000"/>
    </g>
    <g clip-path="url(#p1340ec9be7)">
     <use xlink:href="#C0_0_1cc1bfa5ef" x="402.597338" y="342.253475" style="fill: #bcbcbc; stroke: #000000"/>
    </g>
    <g clip-path="url(#p1340ec9be7)">
     <use xlink:href="#C0_0_1cc1bfa5ef" x="402.597338" y="285.68869" style="fill: #ffa348; stroke: #000000"/>
    </g>
    <g clip-path="url(#p1340ec9be7)">
     <use xlink:href="#C0_0_1cc1bfa5ef" x="402.597338" y="257.580545" style="fill: #8ff0a4; stroke: #000000"/>
    </g>
    <g clip-path="url(#p1340ec9be7)">
     <use xlink:href="#C0_0_1cc1bfa5ef" x="402.597338" y="204.011195" style="fill: #dc8add; stroke: #000000"/>
    </g>
    <g clip-path="url(#p1340ec9be7)">
     <use xlink:href="#C0_0_1cc1bfa5ef" x="402.597338" y="115.585865" style="fill: #99c1f1; stroke: #000000"/>
    </g>
    <g clip-path="url(#p1340ec9be7)">
     <use xlink:href="#C0_0_1cc1bfa5ef" x="137.067863" y="340.245172" style="fill: #bcbcbc; stroke: #000000"/>
    </g>
    <g clip-path="url(#p1340ec9be7)">
     <use xlink:href="#C0_0_1cc1bfa5ef" x="137.067863" y="219.148207" style="fill: #dc8add; stroke: #000000"/>
    </g>
    <g clip-path="url(#p1340ec9be7)">
     <use xlink:href="#C0_0_1cc1bfa5ef" x="137.067863" y="115.909757" style="fill: #99c1f1; stroke: #000000"/>
    </g>
   </g>
   <g id="PatchCollection_1">
    <path d="M 664.083216 382.623781 
L 672.170409 382.623781 
L 672.170409 301.270467 
L 664.083216 301.270467 
z
" clip-path="url(#p1340ec9be7)" style="fill: #3d70a0; stroke: #000000"/>
    <path d="M 664.083216 288.718165 
L 672.170409 288.718165 
L 672.170409 286.199275 
L 664.083216 286.199275 
z
" clip-path="url(#p1340ec9be7)" style="fill: #808080; stroke: #000000"/>
    <path d="M 664.083216 257.334299 
L 672.170409 257.334299 
L 672.170409 77.60815 
L 664.083216 77.60815 
z
" clip-path="url(#p1340ec9be7)" style="fill: #f8e45c; stroke: #000000"/>
    <path d="M 398.553742 382.623781 
L 406.640934 382.623781 
L 406.640934 301.88317 
L 398.553742 301.88317 
z
" clip-path="url(#p1340ec9be7)" style="fill: #bcbcbc; stroke: #000000"/>
    <path d="M 398.553742 289.330867 
L 406.640934 289.330867 
L 406.640934 282.046512 
L 398.553742 282.046512 
z
" clip-path="url(#p1340ec9be7)" style="fill: #ffa348; stroke: #000000"/>
    <path d="M 398.553742 269.49421 
L 406.640934 269.49421 
L 406.640934 245.66688 
L 398.553742 245.66688 
z
" clip-path="url(#p1340ec9be7)" style="fill: #8ff0a4; stroke: #000000"/>
    <path d="M 398.553742 233.114577 
L 406.640934 233.114577 
L 406.640934 174.907813 
L 398.553742 174.907813 
z
" clip-path="url(#p1340ec9be7)" style="fill: #dc8add; stroke: #000000"/>
    <path d="M 398.553742 162.35551 
L 406.640934 162.35551 
L 406.640934 68.816219 
L 398.553742 68.816219 
z
" clip-path="url(#p1340ec9be7)" style="fill: #99c1f1; stroke: #000000"/>
    <path d="M 133.024267 382.623781 
L 141.111459 382.623781 
L 141.111459 297.866562 
L 133.024267 297.866562 
z
" clip-path="url(#p1340ec9be7)" style="fill: #bcbcbc; stroke: #000000"/>
    <path d="M 133.024267 261.662972 
L 141.111459 261.662972 
L 141.111459 176.633442 
L 133.024267 176.633442 
z
" clip-path="url(#p1340ec9be7)" style="fill: #dc8add; stroke: #000000"/>
    <path d="M 133.024267 162.815559 
L 141.111459 162.815559 
L 141.111459 69.003955 
L 133.024267 69.003955 
z
" clip-path="url(#p1340ec9be7)" style="fill: #99c1f1; stroke: #000000"/>
   </g>
   <g id="text_1">
    <text style="font-size: 8px; font-family: 'Arial', 'DejaVu Sans', 'Liberation Sans', 'Bitstream Vera Sans', sans-serif; text-anchor: end; fill: #262626" x="662.061418" y="344.154624" transform="rotate(-0 662.061418 344.154624)">Backbone (BR) - 1195 (30.86%)</text>
   </g>
   <g id="text_2">
    <text style="font-size: 8px; font-family: 'Arial', 'DejaVu Sans', 'Liberation Sans', 'Bitstream Vera Sans', sans-serif; text-anchor: end; fill: #262626" x="662.061418" y="289.66622" transform="rotate(-0 662.061418 289.66622)">VR / BR - 37 (0.96%)</text>
   </g>
   <g id="text_3">
    <text style="font-size: 8px; font-family: 'Arial', 'DejaVu Sans', 'Liberation Sans', 'Bitstream Vera Sans', sans-serif; text-anchor: end; fill: #262626" x="662.061418" y="169.678724" transform="rotate(-0 662.061418 169.678724)">Variable Region (VR) - 2640 (68.18%)</text>
   </g>
   <g id="text_4">
    <text style="font-size: 8px; font-family: 'Arial', 'DejaVu Sans', 'Liberation Sans', 'Bitstream Vera Sans', sans-serif; text-anchor: end; fill: #262626" x="396.531944" y="344.460975" transform="rotate(-0 396.531944 344.460975)">Core SynGC - 1186 (32.91%):1186 (30.63%)</text>
   </g>
   <g id="text_5">
    <text style="font-size: 8px; font-family: 'Arial', 'DejaVu Sans', 'Liberation Sans', 'Bitstream Vera Sans', sans-serif; text-anchor: end; fill: #262626" x="396.531944" y="287.89619" transform="rotate(-0 396.531944 287.89619)">Duplication SynGC - 42 (1.17%):107 (2.76%)</text>
   </g>
   <g id="text_6">
    <text style="font-size: 8px; font-family: 'Arial', 'DejaVu Sans', 'Liberation Sans', 'Bitstream Vera Sans', sans-serif; text-anchor: end; fill: #262626" x="396.531944" y="259.788045" transform="rotate(-0 396.531944 259.788045)">Rearrangement SynGC - 147 (4.08%):350 (9.04%)</text>
   </g>
   <g id="text_7">
    <text style="font-size: 8px; font-family: 'Arial', 'DejaVu Sans', 'Liberation Sans', 'Bitstream Vera Sans', sans-serif; text-anchor: end; fill: #262626" x="396.531944" y="206.218695" transform="rotate(-0 396.531944 206.218695)">Accessory SynGC - 855 (23.72%):855 (22.08%)</text>
   </g>
   <g id="text_8">
    <text style="font-size: 8px; font-family: 'Arial', 'DejaVu Sans', 'Liberation Sans', 'Bitstream Vera Sans', sans-serif; text-anchor: end; fill: #262626" x="396.531944" y="117.793365" transform="rotate(-0 396.531944 117.793365)">Singleton SynGC - 1374 (38.12%):1374 (35.49%)</text>
   </g>
   <g id="text_9">
    <text style="font-size: 8px; font-family: 'Arial', 'DejaVu Sans', 'Liberation Sans', 'Bitstream Vera Sans', sans-serif; text-anchor: end; fill: #262626" x="131.002469" y="342.452672" transform="rotate(-0 131.002469 342.452672)">Core GC - 1212 (33.63%)</text>
   </g>
   <g id="text_10">
    <text style="font-size: 8px; font-family: 'Arial', 'DejaVu Sans', 'Liberation Sans', 'Bitstream Vera Sans', sans-serif; text-anchor: end; fill: #262626" x="131.002469" y="221.355707" transform="rotate(-0 131.002469 221.355707)">Accessory GC - 1016 (28.19%)</text>
   </g>
   <g id="text_11">
    <text style="font-size: 8px; font-family: 'Arial', 'DejaVu Sans', 'Liberation Sans', 'Bitstream Vera Sans', sans-serif; text-anchor: end; fill: #262626" x="131.002469" y="118.117257" transform="rotate(-0 131.002469 118.117257)">Singleton GC - 1376 (38.18%)</text>
   </g>
  </g>
 </g>
 <defs>
  <clipPath id="p1340ec9be7">
   <rect x="4.303125" y="53.125841" width="690.376635" height="345.188317"/>
  </clipPath>
 </defs>
</svg>
