<?xml version="1.0" encoding="utf-8" standalone="no"?>
<!DOCTYPE svg PUBLIC "-//W3C//DTD SVG 1.1//EN"
  "http://www.w3.org/Graphics/SVG/1.1/DTD/svg11.dtd">
<svg xmlns:xlink="http://www.w3.org/1999/xlink" width="451.44pt" height="697.68pt" viewBox="0 0 451.44 697.68" xmlns="http://www.w3.org/2000/svg" version="1.1">
 <metadata>
  <rdf:RDF xmlns:dc="http://purl.org/dc/elements/1.1/" xmlns:cc="http://creativecommons.org/ns#" xmlns:rdf="http://www.w3.org/1999/02/22-rdf-syntax-ns#">
   <cc:Work>
    <dc:type rdf:resource="http://purl.org/dc/dcmitype/StillImage"/>
    <dc:date>2026-05-13T19:43:09.419317</dc:date>
    <dc:format>image/svg+xml</dc:format>
    <dc:creator>
     <cc:Agent>
      <dc:title>Matplotlib v3.10.8, https://matplotlib.org/</dc:title>
     </cc:Agent>
    </dc:creator>
   </cc:Work>
  </rdf:RDF>
 </metadata>
 <defs>
  <style type="text/css">*{stroke-linejoin: round; stroke-linecap: butt}</style>
 </defs>
 <g id="figure_1">
  <g id="patch_1">
   <path d="M 0 697.68 
L 451.44 697.68 
L 451.44 0 
L 0 0 
z
" style="fill: #ffffff"/>
  </g>
  <g id="axes_1">
   <g id="patch_2">
    <path d="M 26.965 199.121627 
L 451.239256 199.121627 
L 451.239256 3.039375 
L 26.965 3.039375 
z
" style="fill: #ffffff"/>
   </g>
   <g id="matplotlib.axis_1">
    <g id="xtick_1">
     <g id="text_1">
      <text style="font-size: 8px; font-family: 'Arial', 'DejaVu Sans', 'Liberation Sans', 'Bitstream Vera Sans', sans-serif; fill: #262626" transform="translate(30.717886 236.540769) rotate(-45)">Backbone</text>
      <text style="font-size: 8px; font-family: 'Arial', 'DejaVu Sans', 'Liberation Sans', 'Bitstream Vera Sans', sans-serif; fill: #262626" transform="translate(34.28356 245.643973) rotate(-45)">Region (BR)</text>
     </g>
    </g>
    <g id="xtick_2">
     <g id="text_2">
      <text style="font-size: 8px; font-family: 'Arial', 'DejaVu Sans', 'Liberation Sans', 'Bitstream Vera Sans', sans-serif; fill: #262626" transform="translate(71.761821 234.061476) rotate(-45)">Variable</text>
      <text style="font-size: 8px; font-family: 'Arial', 'DejaVu Sans', 'Liberation Sans', 'Bitstream Vera Sans', sans-serif; fill: #262626" transform="translate(72.859692 245.632483) rotate(-45)">Region (VR)</text>
     </g>
    </g>
    <g id="xtick_3"/>
    <g id="xtick_4">
     <g id="text_3">
      <text style="font-size: 8px; font-family: 'Arial', 'DejaVu Sans', 'Liberation Sans', 'Bitstream Vera Sans', sans-serif; fill: #262626" transform="translate(153.809916 219.010266) rotate(-45)">Core</text>
      <text style="font-size: 8px; font-family: 'Arial', 'DejaVu Sans', 'Liberation Sans', 'Bitstream Vera Sans', sans-serif; fill: #262626" transform="translate(162.522885 222.966175) rotate(-45)">GC</text>
     </g>
    </g>
    <g id="xtick_5">
     <g id="text_4">
      <text style="font-size: 8px; font-family: 'Arial', 'DejaVu Sans', 'Liberation Sans', 'Bitstream Vera Sans', sans-serif; fill: #262626" transform="translate(192.380303 221.893936) rotate(-45)">Core</text>
      <text style="font-size: 8px; font-family: 'Arial', 'DejaVu Sans', 'Liberation Sans', 'Bitstream Vera Sans', sans-serif; fill: #262626" transform="translate(195.831072 231.112045) rotate(-45)">SynGC</text>
     </g>
    </g>
    <g id="xtick_6">
     <g id="text_5">
      <text style="font-size: 8px; font-family: 'Arial', 'DejaVu Sans', 'Liberation Sans', 'Bitstream Vera Sans', sans-serif; fill: #262626" transform="translate(221.452036 238.007574) rotate(-45)">Duplication</text>
      <text style="font-size: 8px; font-family: 'Arial', 'DejaVu Sans', 'Liberation Sans', 'Bitstream Vera Sans', sans-serif; fill: #262626" transform="translate(234.401459 237.727029) rotate(-45)">SynGC</text>
     </g>
    </g>
    <g id="xtick_7">
     <g id="text_6">
      <text style="font-size: 8px; font-family: 'Arial', 'DejaVu Sans', 'Liberation Sans', 'Bitstream Vera Sans', sans-serif; fill: #262626" transform="translate(261.815822 234.420775) rotate(-45)">Accessory</text>
      <text style="font-size: 8px; font-family: 'Arial', 'DejaVu Sans', 'Liberation Sans', 'Bitstream Vera Sans', sans-serif; fill: #262626" transform="translate(278.234046 230.671429) rotate(-45)">GC</text>
     </g>
    </g>
    <g id="xtick_8">
     <g id="text_7">
      <text style="font-size: 8px; font-family: 'Arial', 'DejaVu Sans', 'Liberation Sans', 'Bitstream Vera Sans', sans-serif; fill: #262626" transform="translate(300.386209 234.420775) rotate(-45)">Accessory</text>
      <text style="font-size: 8px; font-family: 'Arial', 'DejaVu Sans', 'Liberation Sans', 'Bitstream Vera Sans', sans-serif; fill: #262626" transform="translate(311.542233 235.93363) rotate(-45)">SynGC</text>
     </g>
    </g>
    <g id="xtick_9">
     <g id="text_8">
      <text style="font-size: 8px; font-family: 'Arial', 'DejaVu Sans', 'Liberation Sans', 'Bitstream Vera Sans', sans-serif; fill: #262626" transform="translate(331.160744 250.012479) rotate(-45)">Rearrangement</text>
      <text style="font-size: 8px; font-family: 'Arial', 'DejaVu Sans', 'Liberation Sans', 'Bitstream Vera Sans', sans-serif; fill: #262626" transform="translate(350.11262 243.729482) rotate(-45)">SynGC</text>
     </g>
    </g>
    <g id="xtick_10">
     <g id="text_9">
      <text style="font-size: 8px; font-family: 'Arial', 'DejaVu Sans', 'Liberation Sans', 'Bitstream Vera Sans', sans-serif; fill: #262626" transform="translate(378.449757 232.575226) rotate(-45)">Singleton</text>
      <text style="font-size: 8px; font-family: 'Arial', 'DejaVu Sans', 'Liberation Sans', 'Bitstream Vera Sans', sans-serif; fill: #262626" transform="translate(393.945207 229.748655) rotate(-45)">GC</text>
     </g>
    </g>
    <g id="xtick_11">
     <g id="text_10">
      <text style="font-size: 8px; font-family: 'Arial', 'DejaVu Sans', 'Liberation Sans', 'Bitstream Vera Sans', sans-serif; fill: #262626" transform="translate(417.020144 232.575226) rotate(-45)">Singleton</text>
      <text style="font-size: 8px; font-family: 'Arial', 'DejaVu Sans', 'Liberation Sans', 'Bitstream Vera Sans', sans-serif; fill: #262626" transform="translate(427.253394 235.010855) rotate(-45)">SynGC</text>
     </g>
    </g>
    <g id="text_11">
     <text style="font-weight: 700; font-size: 8px; font-family: 'Arial', 'DejaVu Sans', 'Liberation Sans', 'Bitstream Vera Sans', sans-serif; text-anchor: middle; fill: #262626" x="239.102128" y="267.602117" transform="rotate(-0 239.102128 267.602117)">Artifact</text>
    </g>
   </g>
   <g id="matplotlib.axis_2">
    <g id="ytick_1">
     <g id="text_12">
      <text style="font-size: 8px; font-family: 'Arial', 'DejaVu Sans', 'Liberation Sans', 'Bitstream Vera Sans', sans-serif; text-anchor: end; fill: #262626" x="24.465" y="202.161002" transform="rotate(-0 24.465 202.161002)">0.0</text>
     </g>
    </g>
    <g id="ytick_2">
     <g id="text_13">
      <text style="font-size: 8px; font-family: 'Arial', 'DejaVu Sans', 'Liberation Sans', 'Bitstream Vera Sans', sans-serif; text-anchor: end; fill: #262626" x="24.465" y="162.944551" transform="rotate(-0 24.465 162.944551)">0.2</text>
     </g>
    </g>
    <g id="ytick_3">
     <g id="text_14">
      <text style="font-size: 8px; font-family: 'Arial', 'DejaVu Sans', 'Liberation Sans', 'Bitstream Vera Sans', sans-serif; text-anchor: end; fill: #262626" x="24.465" y="123.728101" transform="rotate(-0 24.465 123.728101)">0.4</text>
     </g>
    </g>
    <g id="ytick_4">
     <g id="text_15">
      <text style="font-size: 8px; font-family: 'Arial', 'DejaVu Sans', 'Liberation Sans', 'Bitstream Vera Sans', sans-serif; text-anchor: end; fill: #262626" x="24.465" y="84.511651" transform="rotate(-0 24.465 84.511651)">0.6</text>
     </g>
    </g>
    <g id="ytick_5">
     <g id="text_16">
      <text style="font-size: 8px; font-family: 'Arial', 'DejaVu Sans', 'Liberation Sans', 'Bitstream Vera Sans', sans-serif; text-anchor: end; fill: #262626" x="24.465" y="45.2952" transform="rotate(-0 24.465 45.2952)">0.8</text>
     </g>
    </g>
    <g id="ytick_6">
     <g id="text_17">
      <text style="font-size: 8px; font-family: 'Arial', 'DejaVu Sans', 'Liberation Sans', 'Bitstream Vera Sans', sans-serif; text-anchor: end; fill: #262626" x="24.465" y="6.07875" transform="rotate(-0 24.465 6.07875)">1.0</text>
     </g>
    </g>
    <g id="text_18">
     <text style="font-weight: 700; font-size: 8px; font-family: 'Arial', 'DejaVu Sans', 'Liberation Sans', 'Bitstream Vera Sans', sans-serif; text-anchor: middle; fill: #262626" x="6.07875" y="101.080501" transform="rotate(-90 6.07875 101.080501)">Proportion</text>
    </g>
   </g>
   <g id="patch_3">
    <path d="M 36.607597 199.121627 
L 55.89279 199.121627 
L 55.89279 198.797524 
L 36.607597 198.797524 
z
" clip-path="url(#pe5052a228c)" style="fill: #1f77b4"/>
   </g>
   <g id="patch_4">
    <path d="M 75.177984 199.121627 
L 94.463177 199.121627 
L 94.463177 199.121627 
L 75.177984 199.121627 
z
" clip-path="url(#pe5052a228c)" style="fill: #1f77b4"/>
   </g>
   <g id="patch_5">
    <path d="M 113.748371 199.121627 
L 133.033564 199.121627 
L 133.033564 199.121627 
L 113.748371 199.121627 
z
" clip-path="url(#pe5052a228c)" style="fill: #1f77b4"/>
   </g>
   <g id="patch_6">
    <path d="M 152.318758 199.121627 
L 171.603951 199.121627 
L 171.603951 198.800371 
L 152.318758 198.800371 
z
" clip-path="url(#pe5052a228c)" style="fill: #1f77b4"/>
   </g>
   <g id="patch_7">
    <path d="M 190.889144 199.121627 
L 210.174338 199.121627 
L 210.174338 198.790965 
L 190.889144 198.790965 
z
" clip-path="url(#pe5052a228c)" style="fill: #1f77b4"/>
   </g>
   <g id="patch_8">
    <path d="M 229.459531 199.121627 
L 248.744725 199.121627 
L 248.744725 199.121627 
L 229.459531 199.121627 
z
" clip-path="url(#pe5052a228c)" style="fill: #1f77b4"/>
   </g>
   <g id="patch_9">
    <path d="M 268.029918 199.121627 
L 287.315112 199.121627 
L 287.315112 199.121627 
L 268.029918 199.121627 
z
" clip-path="url(#pe5052a228c)" style="fill: #1f77b4"/>
   </g>
   <g id="patch_10">
    <path d="M 306.600305 199.121627 
L 325.885499 199.121627 
L 325.885499 199.121627 
L 306.600305 199.121627 
z
" clip-path="url(#pe5052a228c)" style="fill: #1f77b4"/>
   </g>
   <g id="patch_11">
    <path d="M 345.170692 199.121627 
L 364.455886 199.121627 
L 364.455886 199.121627 
L 345.170692 199.121627 
z
" clip-path="url(#pe5052a228c)" style="fill: #1f77b4"/>
   </g>
   <g id="patch_12">
    <path d="M 383.741079 199.121627 
L 403.026273 199.121627 
L 403.026273 199.121627 
L 383.741079 199.121627 
z
" clip-path="url(#pe5052a228c)" style="fill: #1f77b4"/>
   </g>
   <g id="patch_13">
    <path d="M 422.311466 199.121627 
L 441.596659 199.121627 
L 441.596659 199.121627 
L 422.311466 199.121627 
z
" clip-path="url(#pe5052a228c)" style="fill: #1f77b4"/>
   </g>
   <g id="patch_14">
    <path d="M 36.607597 198.797524 
L 55.89279 198.797524 
L 55.89279 198.311369 
L 36.607597 198.311369 
z
" clip-path="url(#pe5052a228c)" style="fill: #aec7e8"/>
   </g>
   <g id="patch_15">
    <path d="M 75.177984 199.121627 
L 94.463177 199.121627 
L 94.463177 199.121627 
L 75.177984 199.121627 
z
" clip-path="url(#pe5052a228c)" style="fill: #aec7e8"/>
   </g>
   <g id="patch_16">
    <path d="M 113.748371 199.121627 
L 133.033564 199.121627 
L 133.033564 199.121627 
L 113.748371 199.121627 
z
" clip-path="url(#pe5052a228c)" style="fill: #aec7e8"/>
   </g>
   <g id="patch_17">
    <path d="M 152.318758 198.800371 
L 171.603951 198.800371 
L 171.603951 198.318487 
L 152.318758 198.318487 
z
" clip-path="url(#pe5052a228c)" style="fill: #aec7e8"/>
   </g>
   <g id="patch_18">
    <path d="M 190.889144 198.790965 
L 210.174338 198.790965 
L 210.174338 198.294973 
L 190.889144 198.294973 
z
" clip-path="url(#pe5052a228c)" style="fill: #aec7e8"/>
   </g>
   <g id="patch_19">
    <path d="M 229.459531 199.121627 
L 248.744725 199.121627 
L 248.744725 199.121627 
L 229.459531 199.121627 
z
" clip-path="url(#pe5052a228c)" style="fill: #aec7e8"/>
   </g>
   <g id="patch_20">
    <path d="M 268.029918 199.121627 
L 287.315112 199.121627 
L 287.315112 199.121627 
L 268.029918 199.121627 
z
" clip-path="url(#pe5052a228c)" style="fill: #aec7e8"/>
   </g>
   <g id="patch_21">
    <path d="M 306.600305 199.121627 
L 325.885499 199.121627 
L 325.885499 199.121627 
L 306.600305 199.121627 
z
" clip-path="url(#pe5052a228c)" style="fill: #aec7e8"/>
   </g>
   <g id="patch_22">
    <path d="M 345.170692 199.121627 
L 364.455886 199.121627 
L 364.455886 199.121627 
L 345.170692 199.121627 
z
" clip-path="url(#pe5052a228c)" style="fill: #aec7e8"/>
   </g>
   <g id="patch_23">
    <path d="M 383.741079 199.121627 
L 403.026273 199.121627 
L 403.026273 199.121627 
L 383.741079 199.121627 
z
" clip-path="url(#pe5052a228c)" style="fill: #aec7e8"/>
   </g>
   <g id="patch_24">
    <path d="M 422.311466 199.121627 
L 441.596659 199.121627 
L 441.596659 199.121627 
L 422.311466 199.121627 
z
" clip-path="url(#pe5052a228c)" style="fill: #aec7e8"/>
   </g>
   <g id="patch_25">
    <path d="M 36.607597 198.311369 
L 55.89279 198.311369 
L 55.89279 182.75443 
L 36.607597 182.75443 
z
" clip-path="url(#pe5052a228c)" style="fill: #ff7f0e"/>
   </g>
   <g id="patch_26">
    <path d="M 75.177984 199.121627 
L 94.463177 199.121627 
L 94.463177 194.612464 
L 75.177984 194.612464 
z
" clip-path="url(#pe5052a228c)" style="fill: #ff7f0e"/>
   </g>
   <g id="patch_27">
    <path d="M 113.748371 199.121627 
L 133.033564 199.121627 
L 133.033564 199.121627 
L 113.748371 199.121627 
z
" clip-path="url(#pe5052a228c)" style="fill: #ff7f0e"/>
   </g>
   <g id="patch_28">
    <path d="M 152.318758 198.318487 
L 171.603951 198.318487 
L 171.603951 182.394178 
L 152.318758 182.394178 
z
" clip-path="url(#pe5052a228c)" style="fill: #ff7f0e"/>
   </g>
   <g id="patch_29">
    <path d="M 190.889144 198.294973 
L 210.174338 198.294973 
L 210.174338 182.092561 
L 190.889144 182.092561 
z
" clip-path="url(#pe5052a228c)" style="fill: #ff7f0e"/>
   </g>
   <g id="patch_30">
    <path d="M 229.459531 199.121627 
L 248.744725 199.121627 
L 248.744725 193.045838 
L 229.459531 193.045838 
z
" clip-path="url(#pe5052a228c)" style="fill: #ff7f0e"/>
   </g>
   <g id="patch_31">
    <path d="M 268.029918 199.121627 
L 287.315112 199.121627 
L 287.315112 196.391436 
L 268.029918 196.391436 
z
" clip-path="url(#pe5052a228c)" style="fill: #ff7f0e"/>
   </g>
   <g id="patch_32">
    <path d="M 306.600305 199.121627 
L 325.885499 199.121627 
L 325.885499 196.271774 
L 306.600305 196.271774 
z
" clip-path="url(#pe5052a228c)" style="fill: #ff7f0e"/>
   </g>
   <g id="patch_33">
    <path d="M 345.170692 199.121627 
L 364.455886 199.121627 
L 364.455886 197.15589 
L 345.170692 197.15589 
z
" clip-path="url(#pe5052a228c)" style="fill: #ff7f0e"/>
   </g>
   <g id="patch_34">
    <path d="M 383.741079 199.121627 
L 403.026273 199.121627 
L 403.026273 197.271794 
L 383.741079 197.271794 
z
" clip-path="url(#pe5052a228c)" style="fill: #ff7f0e"/>
   </g>
   <g id="patch_35">
    <path d="M 422.311466 199.121627 
L 441.596659 199.121627 
L 441.596659 197.266409 
L 422.311466 197.266409 
z
" clip-path="url(#pe5052a228c)" style="fill: #ff7f0e"/>
   </g>
   <g id="patch_36">
    <path d="M 36.607597 182.75443 
L 55.89279 182.75443 
L 55.89279 179.619573 
L 36.607597 179.619573 
z
" clip-path="url(#pe5052a228c)" style="fill: #ffbb78"/>
   </g>
   <g id="patch_37">
    <path d="M 75.177984 194.612464 
L 94.463177 194.612464 
L 94.463177 193.6399 
L 75.177984 193.6399 
z
" clip-path="url(#pe5052a228c)" style="fill: #ffbb78"/>
   </g>
   <g id="patch_38">
    <path d="M 113.748371 199.121627 
L 133.033564 199.121627 
L 133.033564 199.121627 
L 113.748371 199.121627 
z
" clip-path="url(#pe5052a228c)" style="fill: #ffbb78"/>
   </g>
   <g id="patch_39">
    <path d="M 152.318758 182.394178 
L 171.603951 182.394178 
L 171.603951 179.286861 
L 152.318758 179.286861 
z
" clip-path="url(#pe5052a228c)" style="fill: #ffbb78"/>
   </g>
   <g id="patch_40">
    <path d="M 190.889144 182.092561 
L 210.174338 182.092561 
L 210.174338 178.894266 
L 190.889144 178.894266 
z
" clip-path="url(#pe5052a228c)" style="fill: #ffbb78"/>
   </g>
   <g id="patch_41">
    <path d="M 229.459531 199.121627 
L 248.744725 199.121627 
L 248.744725 199.121627 
L 229.459531 199.121627 
z
" clip-path="url(#pe5052a228c)" style="fill: #ffbb78"/>
   </g>
   <g id="patch_42">
    <path d="M 268.029918 196.391436 
L 287.315112 196.391436 
L 287.315112 195.517776 
L 268.029918 195.517776 
z
" clip-path="url(#pe5052a228c)" style="fill: #ffbb78"/>
   </g>
   <g id="patch_43">
    <path d="M 306.600305 196.271774 
L 325.885499 196.271774 
L 325.885499 195.466381 
L 306.600305 195.466381 
z
" clip-path="url(#pe5052a228c)" style="fill: #ffbb78"/>
   </g>
   <g id="patch_44">
    <path d="M 345.170692 197.15589 
L 364.455886 197.15589 
L 364.455886 195.681587 
L 345.170692 195.681587 
z
" clip-path="url(#pe5052a228c)" style="fill: #ffbb78"/>
   </g>
   <g id="patch_45">
    <path d="M 383.741079 197.271794 
L 403.026273 197.271794 
L 403.026273 195.564256 
L 383.741079 195.564256 
z
" clip-path="url(#pe5052a228c)" style="fill: #ffbb78"/>
   </g>
   <g id="patch_46">
    <path d="M 422.311466 197.266409 
L 441.596659 197.266409 
L 441.596659 195.5539 
L 422.311466 195.5539 
z
" clip-path="url(#pe5052a228c)" style="fill: #ffbb78"/>
   </g>
   <g id="patch_47">
    <path d="M 36.607597 179.619573 
L 55.89279 179.619573 
L 55.89279 149.478004 
L 36.607597 149.478004 
z
" clip-path="url(#pe5052a228c)" style="fill: #2ca02c"/>
   </g>
   <g id="patch_48">
    <path d="M 75.177984 193.6399 
L 94.463177 193.6399 
L 94.463177 176.730541 
L 75.177984 176.730541 
z
" clip-path="url(#pe5052a228c)" style="fill: #2ca02c"/>
   </g>
   <g id="patch_49">
    <path d="M 113.748371 199.121627 
L 133.033564 199.121627 
L 133.033564 199.121627 
L 113.748371 199.121627 
z
" clip-path="url(#pe5052a228c)" style="fill: #2ca02c"/>
   </g>
   <g id="patch_50">
    <path d="M 152.318758 179.286861 
L 171.603951 179.286861 
L 171.603951 149.387932 
L 152.318758 149.387932 
z
" clip-path="url(#pe5052a228c)" style="fill: #2ca02c"/>
   </g>
   <g id="patch_51">
    <path d="M 190.889144 178.894266 
L 210.174338 178.894266 
L 210.174338 148.638742 
L 190.889144 148.638742 
z
" clip-path="url(#pe5052a228c)" style="fill: #2ca02c"/>
   </g>
   <g id="patch_52">
    <path d="M 229.459531 193.045838 
L 248.744725 193.045838 
L 248.744725 176.291393 
L 229.459531 176.291393 
z
" clip-path="url(#pe5052a228c)" style="fill: #2ca02c"/>
   </g>
   <g id="patch_53">
    <path d="M 268.029918 195.517776 
L 287.315112 195.517776 
L 287.315112 176.024218 
L 268.029918 176.024218 
z
" clip-path="url(#pe5052a228c)" style="fill: #2ca02c"/>
   </g>
   <g id="patch_54">
    <path d="M 306.600305 195.466381 
L 325.885499 195.466381 
L 325.885499 173.349046 
L 306.600305 173.349046 
z
" clip-path="url(#pe5052a228c)" style="fill: #2ca02c"/>
   </g>
   <g id="patch_55">
    <path d="M 345.170692 199.121627 
L 364.455886 199.121627 
L 364.455886 199.121627 
L 345.170692 199.121627 
z
" clip-path="url(#pe5052a228c)" style="fill: #2ca02c"/>
   </g>
   <g id="patch_56">
    <path d="M 383.741079 195.564256 
L 403.026273 195.564256 
L 403.026273 188.8764 
L 383.741079 188.8764 
z
" clip-path="url(#pe5052a228c)" style="fill: #2ca02c"/>
   </g>
   <g id="patch_57">
    <path d="M 422.311466 195.5539 
L 441.596659 195.5539 
L 441.596659 188.846574 
L 422.311466 188.846574 
z
" clip-path="url(#pe5052a228c)" style="fill: #2ca02c"/>
   </g>
   <g id="patch_58">
    <path d="M 36.607597 149.478004 
L 55.89279 149.478004 
L 55.89279 141.554247 
L 36.607597 141.554247 
z
" clip-path="url(#pe5052a228c)" style="fill: #98df8a"/>
   </g>
   <g id="patch_59">
    <path d="M 75.177984 176.730541 
L 94.463177 176.730541 
L 94.463177 174.542271 
L 75.177984 174.542271 
z
" clip-path="url(#pe5052a228c)" style="fill: #98df8a"/>
   </g>
   <g id="patch_60">
    <path d="M 113.748371 199.121627 
L 133.033564 199.121627 
L 133.033564 199.121627 
L 113.748371 199.121627 
z
" clip-path="url(#pe5052a228c)" style="fill: #98df8a"/>
   </g>
   <g id="patch_61">
    <path d="M 152.318758 149.387932 
L 171.603951 149.387932 
L 171.603951 141.506091 
L 152.318758 141.506091 
z
" clip-path="url(#pe5052a228c)" style="fill: #98df8a"/>
   </g>
   <g id="patch_62">
    <path d="M 190.889144 148.638742 
L 210.174338 148.638742 
L 210.174338 140.8853 
L 190.889144 140.8853 
z
" clip-path="url(#pe5052a228c)" style="fill: #98df8a"/>
   </g>
   <g id="patch_63">
    <path d="M 229.459531 176.291393 
L 248.744725 176.291393 
L 248.744725 164.692161 
L 229.459531 164.692161 
z
" clip-path="url(#pe5052a228c)" style="fill: #98df8a"/>
   </g>
   <g id="patch_64">
    <path d="M 268.029918 176.024218 
L 287.315112 176.024218 
L 287.315112 173.512444 
L 268.029918 173.512444 
z
" clip-path="url(#pe5052a228c)" style="fill: #98df8a"/>
   </g>
   <g id="patch_65">
    <path d="M 306.600305 173.349046 
L 325.885499 173.349046 
L 325.885499 170.499194 
L 306.600305 170.499194 
z
" clip-path="url(#pe5052a228c)" style="fill: #98df8a"/>
   </g>
   <g id="patch_66">
    <path d="M 345.170692 199.121627 
L 364.455886 199.121627 
L 364.455886 199.121627 
L 345.170692 199.121627 
z
" clip-path="url(#pe5052a228c)" style="fill: #98df8a"/>
   </g>
   <g id="patch_67">
    <path d="M 383.741079 188.8764 
L 403.026273 188.8764 
L 403.026273 188.59181 
L 383.741079 188.59181 
z
" clip-path="url(#pe5052a228c)" style="fill: #98df8a"/>
   </g>
   <g id="patch_68">
    <path d="M 422.311466 188.846574 
L 441.596659 188.846574 
L 441.596659 188.561156 
L 422.311466 188.561156 
z
" clip-path="url(#pe5052a228c)" style="fill: #98df8a"/>
   </g>
   <g id="patch_69">
    <path d="M 36.607597 141.554247 
L 55.89279 141.554247 
L 55.89279 132.803469 
L 36.607597 132.803469 
z
" clip-path="url(#pe5052a228c)" style="fill: #d62728"/>
   </g>
   <g id="patch_70">
    <path d="M 75.177984 174.542271 
L 94.463177 174.542271 
L 94.463177 155.820406 
L 75.177984 155.820406 
z
" clip-path="url(#pe5052a228c)" style="fill: #d62728"/>
   </g>
   <g id="patch_71">
    <path d="M 113.748371 199.121627 
L 133.033564 199.121627 
L 133.033564 199.121627 
L 113.748371 199.121627 
z
" clip-path="url(#pe5052a228c)" style="fill: #d62728"/>
   </g>
   <g id="patch_72">
    <path d="M 152.318758 141.506091 
L 171.603951 141.506091 
L 171.603951 132.322611 
L 152.318758 132.322611 
z
" clip-path="url(#pe5052a228c)" style="fill: #d62728"/>
   </g>
   <g id="patch_73">
    <path d="M 190.889144 140.8853 
L 210.174338 140.8853 
L 210.174338 132.453433 
L 190.889144 132.453433 
z
" clip-path="url(#pe5052a228c)" style="fill: #d62728"/>
   </g>
   <g id="patch_74">
    <path d="M 229.459531 164.692161 
L 248.744725 164.692161 
L 248.744725 140.573123 
L 229.459531 140.573123 
z
" clip-path="url(#pe5052a228c)" style="fill: #d62728"/>
   </g>
   <g id="patch_75">
    <path d="M 268.029918 173.512444 
L 287.315112 173.512444 
L 287.315112 153.909679 
L 268.029918 153.909679 
z
" clip-path="url(#pe5052a228c)" style="fill: #d62728"/>
   </g>
   <g id="patch_76">
    <path d="M 306.600305 170.499194 
L 325.885499 170.499194 
L 325.885499 149.404089 
L 306.600305 149.404089 
z
" clip-path="url(#pe5052a228c)" style="fill: #d62728"/>
   </g>
   <g id="patch_77">
    <path d="M 345.170692 195.681587 
L 364.455886 195.681587 
L 364.455886 174.795633 
L 345.170692 174.795633 
z
" clip-path="url(#pe5052a228c)" style="fill: #d62728"/>
   </g>
   <g id="patch_78">
    <path d="M 383.741079 188.59181 
L 403.026273 188.59181 
L 403.026273 183.326902 
L 383.741079 183.326902 
z
" clip-path="url(#pe5052a228c)" style="fill: #d62728"/>
   </g>
   <g id="patch_79">
    <path d="M 422.311466 188.561156 
L 441.596659 188.561156 
L 441.596659 183.280921 
L 422.311466 183.280921 
z
" clip-path="url(#pe5052a228c)" style="fill: #d62728"/>
   </g>
   <g id="patch_80">
    <path d="M 36.607597 132.803469 
L 55.89279 132.803469 
L 55.89279 118.38089 
L 36.607597 118.38089 
z
" clip-path="url(#pe5052a228c)" style="fill: #ff9896"/>
   </g>
   <g id="patch_81">
    <path d="M 75.177984 155.820406 
L 94.463177 155.820406 
L 94.463177 151.687007 
L 75.177984 151.687007 
z
" clip-path="url(#pe5052a228c)" style="fill: #ff9896"/>
   </g>
   <g id="patch_82">
    <path d="M 113.748371 199.121627 
L 133.033564 199.121627 
L 133.033564 199.121627 
L 113.748371 199.121627 
z
" clip-path="url(#pe5052a228c)" style="fill: #ff9896"/>
   </g>
   <g id="patch_83">
    <path d="M 152.318758 132.322611 
L 171.603951 132.322611 
L 171.603951 118.026735 
L 152.318758 118.026735 
z
" clip-path="url(#pe5052a228c)" style="fill: #ff9896"/>
   </g>
   <g id="patch_84">
    <path d="M 190.889144 132.453433 
L 210.174338 132.453433 
L 210.174338 117.738998 
L 190.889144 117.738998 
z
" clip-path="url(#pe5052a228c)" style="fill: #ff9896"/>
   </g>
   <g id="patch_85">
    <path d="M 229.459531 199.121627 
L 248.744725 199.121627 
L 248.744725 199.121627 
L 229.459531 199.121627 
z
" clip-path="url(#pe5052a228c)" style="fill: #ff9896"/>
   </g>
   <g id="patch_86">
    <path d="M 268.029918 153.909679 
L 287.315112 153.909679 
L 287.315112 149.868998 
L 268.029918 149.868998 
z
" clip-path="url(#pe5052a228c)" style="fill: #ff9896"/>
   </g>
   <g id="patch_87">
    <path d="M 306.600305 149.404089 
L 325.885499 149.404089 
L 325.885499 145.098333 
L 306.600305 145.098333 
z
" clip-path="url(#pe5052a228c)" style="fill: #ff9896"/>
   </g>
   <g id="patch_88">
    <path d="M 345.170692 174.795633 
L 364.455886 174.795633 
L 364.455886 172.584179 
L 345.170692 172.584179 
z
" clip-path="url(#pe5052a228c)" style="fill: #ff9896"/>
   </g>
   <g id="patch_89">
    <path d="M 383.741079 183.326902 
L 403.026273 183.326902 
L 403.026273 177.777405 
L 383.741079 177.777405 
z
" clip-path="url(#pe5052a228c)" style="fill: #ff9896"/>
   </g>
   <g id="patch_90">
    <path d="M 422.311466 183.280921 
L 441.596659 183.280921 
L 441.596659 177.715267 
L 422.311466 177.715267 
z
" clip-path="url(#pe5052a228c)" style="fill: #ff9896"/>
   </g>
   <g id="patch_91">
    <path d="M 36.607597 118.38089 
L 55.89279 118.38089 
L 55.89279 108.657803 
L 36.607597 108.657803 
z
" clip-path="url(#pe5052a228c)" style="fill: #9467bd"/>
   </g>
   <g id="patch_92">
    <path d="M 75.177984 151.687007 
L 94.463177 151.687007 
L 94.463177 147.133637 
L 75.177984 147.133637 
z
" clip-path="url(#pe5052a228c)" style="fill: #9467bd"/>
   </g>
   <g id="patch_93">
    <path d="M 113.748371 199.121627 
L 133.033564 199.121627 
L 133.033564 199.121627 
L 113.748371 199.121627 
z
" clip-path="url(#pe5052a228c)" style="fill: #9467bd"/>
   </g>
   <g id="patch_94">
    <path d="M 152.318758 118.026735 
L 171.603951 118.026735 
L 171.603951 108.195205 
L 152.318758 108.195205 
z
" clip-path="url(#pe5052a228c)" style="fill: #9467bd"/>
   </g>
   <g id="patch_95">
    <path d="M 190.889144 117.738998 
L 210.174338 117.738998 
L 210.174338 108.480476 
L 190.889144 108.480476 
z
" clip-path="url(#pe5052a228c)" style="fill: #9467bd"/>
   </g>
   <g id="patch_96">
    <path d="M 229.459531 140.573123 
L 248.744725 140.573123 
L 248.744725 112.77179 
L 229.459531 112.77179 
z
" clip-path="url(#pe5052a228c)" style="fill: #9467bd"/>
   </g>
   <g id="patch_97">
    <path d="M 268.029918 149.868998 
L 287.315112 149.868998 
L 287.315112 146.347052 
L 268.029918 146.347052 
z
" clip-path="url(#pe5052a228c)" style="fill: #9467bd"/>
   </g>
   <g id="patch_98">
    <path d="M 306.600305 145.098333 
L 325.885499 145.098333 
L 325.885499 141.288204 
L 306.600305 141.288204 
z
" clip-path="url(#pe5052a228c)" style="fill: #9467bd"/>
   </g>
   <g id="patch_99">
    <path d="M 345.170692 172.584179 
L 364.455886 172.584179 
L 364.455886 171.109876 
L 345.170692 171.109876 
z
" clip-path="url(#pe5052a228c)" style="fill: #9467bd"/>
   </g>
   <g id="patch_100">
    <path d="M 383.741079 177.777405 
L 403.026273 177.777405 
L 403.026273 171.801023 
L 383.741079 171.801023 
z
" clip-path="url(#pe5052a228c)" style="fill: #9467bd"/>
   </g>
   <g id="patch_101">
    <path d="M 422.311466 177.715267 
L 441.596659 177.715267 
L 441.596659 171.721487 
L 422.311466 171.721487 
z
" clip-path="url(#pe5052a228c)" style="fill: #9467bd"/>
   </g>
   <g id="patch_102">
    <path d="M 36.607597 108.657803 
L 55.89279 108.657803 
L 55.89279 86.294703 
L 36.607597 86.294703 
z
" clip-path="url(#pe5052a228c)" style="fill: #c5b0d5"/>
   </g>
   <g id="patch_103">
    <path d="M 75.177984 147.133637 
L 94.463177 147.133637 
L 94.463177 144.525396 
L 75.177984 144.525396 
z
" clip-path="url(#pe5052a228c)" style="fill: #c5b0d5"/>
   </g>
   <g id="patch_104">
    <path d="M 113.748371 199.121627 
L 133.033564 199.121627 
L 133.033564 199.121627 
L 113.748371 199.121627 
z
" clip-path="url(#pe5052a228c)" style="fill: #c5b0d5"/>
   </g>
   <g id="patch_105">
    <path d="M 152.318758 108.195205 
L 171.603951 108.195205 
L 171.603951 86.028567 
L 152.318758 86.028567 
z
" clip-path="url(#pe5052a228c)" style="fill: #c5b0d5"/>
   </g>
   <g id="patch_106">
    <path d="M 190.889144 108.480476 
L 210.174338 108.480476 
L 210.174338 85.664835 
L 190.889144 85.664835 
z
" clip-path="url(#pe5052a228c)" style="fill: #c5b0d5"/>
   </g>
   <g id="patch_107">
    <path d="M 229.459531 199.121627 
L 248.744725 199.121627 
L 248.744725 199.121627 
L 229.459531 199.121627 
z
" clip-path="url(#pe5052a228c)" style="fill: #c5b0d5"/>
   </g>
   <g id="patch_108">
    <path d="M 268.029918 146.347052 
L 287.315112 146.347052 
L 287.315112 143.807976 
L 268.029918 143.807976 
z
" clip-path="url(#pe5052a228c)" style="fill: #c5b0d5"/>
   </g>
   <g id="patch_109">
    <path d="M 306.600305 141.288204 
L 325.885499 141.288204 
L 325.885499 138.624211 
L 306.600305 138.624211 
z
" clip-path="url(#pe5052a228c)" style="fill: #c5b0d5"/>
   </g>
   <g id="patch_110">
    <path d="M 345.170692 171.109876 
L 364.455886 171.109876 
L 364.455886 169.389857 
L 345.170692 169.389857 
z
" clip-path="url(#pe5052a228c)" style="fill: #c5b0d5"/>
   </g>
   <g id="patch_111">
    <path d="M 383.741079 171.801023 
L 403.026273 171.801023 
L 403.026273 168.243652 
L 383.741079 168.243652 
z
" clip-path="url(#pe5052a228c)" style="fill: #c5b0d5"/>
   </g>
   <g id="patch_112">
    <path d="M 422.311466 171.721487 
L 441.596659 171.721487 
L 441.596659 168.15376 
L 422.311466 168.15376 
z
" clip-path="url(#pe5052a228c)" style="fill: #c5b0d5"/>
   </g>
   <g id="patch_113">
    <path d="M 36.607597 86.294703 
L 55.89279 86.294703 
L 55.89279 81.109057 
L 36.607597 81.109057 
z
" clip-path="url(#pe5052a228c)" style="fill: #8c564b"/>
   </g>
   <g id="patch_114">
    <path d="M 75.177984 144.525396 
L 94.463177 144.525396 
L 94.463177 141.983466 
L 75.177984 141.983466 
z
" clip-path="url(#pe5052a228c)" style="fill: #8c564b"/>
   </g>
   <g id="patch_115">
    <path d="M 113.748371 199.121627 
L 133.033564 199.121627 
L 133.033564 199.121627 
L 113.748371 199.121627 
z
" clip-path="url(#pe5052a228c)" style="fill: #8c564b"/>
   </g>
   <g id="patch_116">
    <path d="M 152.318758 86.028567 
L 171.603951 86.028567 
L 171.603951 80.727849 
L 152.318758 80.727849 
z
" clip-path="url(#pe5052a228c)" style="fill: #8c564b"/>
   </g>
   <g id="patch_117">
    <path d="M 190.889144 85.664835 
L 210.174338 85.664835 
L 210.174338 80.704913 
L 190.889144 80.704913 
z
" clip-path="url(#pe5052a228c)" style="fill: #8c564b"/>
   </g>
   <g id="patch_118">
    <path d="M 229.459531 112.77179 
L 248.744725 112.77179 
L 248.744725 102.093132 
L 229.459531 102.093132 
z
" clip-path="url(#pe5052a228c)" style="fill: #8c564b"/>
   </g>
   <g id="patch_119">
    <path d="M 268.029918 143.807976 
L 287.315112 143.807976 
L 287.315112 141.760333 
L 268.029918 141.760333 
z
" clip-path="url(#pe5052a228c)" style="fill: #8c564b"/>
   </g>
   <g id="patch_120">
    <path d="M 306.600305 138.624211 
L 325.885499 138.624211 
L 325.885499 136.300962 
L 306.600305 136.300962 
z
" clip-path="url(#pe5052a228c)" style="fill: #8c564b"/>
   </g>
   <g id="patch_121">
    <path d="M 345.170692 169.389857 
L 364.455886 169.389857 
L 364.455886 162.26406 
L 345.170692 162.26406 
z
" clip-path="url(#pe5052a228c)" style="fill: #8c564b"/>
   </g>
   <g id="patch_122">
    <path d="M 383.741079 168.243652 
L 403.026273 168.243652 
L 403.026273 166.678409 
L 383.741079 166.678409 
z
" clip-path="url(#pe5052a228c)" style="fill: #8c564b"/>
   </g>
   <g id="patch_123">
    <path d="M 422.311466 168.15376 
L 441.596659 168.15376 
L 441.596659 166.58396 
L 422.311466 166.58396 
z
" clip-path="url(#pe5052a228c)" style="fill: #8c564b"/>
   </g>
   <g id="patch_124">
    <path d="M 36.607597 81.109057 
L 55.89279 81.109057 
L 55.89279 73.816742 
L 36.607597 73.816742 
z
" clip-path="url(#pe5052a228c)" style="fill: #c49c94"/>
   </g>
   <g id="patch_125">
    <path d="M 75.177984 141.983466 
L 94.463177 141.983466 
L 94.463177 137.407993 
L 75.177984 137.407993 
z
" clip-path="url(#pe5052a228c)" style="fill: #c49c94"/>
   </g>
   <g id="patch_126">
    <path d="M 113.748371 199.121627 
L 133.033564 199.121627 
L 133.033564 199.121627 
L 113.748371 199.121627 
z
" clip-path="url(#pe5052a228c)" style="fill: #c49c94"/>
   </g>
   <g id="patch_127">
    <path d="M 152.318758 80.727849 
L 171.603951 80.727849 
L 171.603951 73.499597 
L 152.318758 73.499597 
z
" clip-path="url(#pe5052a228c)" style="fill: #c49c94"/>
   </g>
   <g id="patch_128">
    <path d="M 190.889144 80.704913 
L 210.174338 80.704913 
L 210.174338 73.26503 
L 190.889144 73.26503 
z
" clip-path="url(#pe5052a228c)" style="fill: #c49c94"/>
   </g>
   <g id="patch_129">
    <path d="M 229.459531 102.093132 
L 248.744725 102.093132 
L 248.744725 100.067869 
L 229.459531 100.067869 
z
" clip-path="url(#pe5052a228c)" style="fill: #c49c94"/>
   </g>
   <g id="patch_130">
    <path d="M 268.029918 141.760333 
L 287.315112 141.760333 
L 287.315112 136.682179 
L 268.029918 136.682179 
z
" clip-path="url(#pe5052a228c)" style="fill: #c49c94"/>
   </g>
   <g id="patch_131">
    <path d="M 306.600305 136.300962 
L 325.885499 136.300962 
L 325.885499 131.561533 
L 306.600305 131.561533 
z
" clip-path="url(#pe5052a228c)" style="fill: #c49c94"/>
   </g>
   <g id="patch_132">
    <path d="M 345.170692 162.26406 
L 364.455886 162.26406 
L 364.455886 156.858284 
L 345.170692 156.858284 
z
" clip-path="url(#pe5052a228c)" style="fill: #c49c94"/>
   </g>
   <g id="patch_133">
    <path d="M 383.741079 166.678409 
L 403.026273 166.678409 
L 403.026273 163.690218 
L 383.741079 163.690218 
z
" clip-path="url(#pe5052a228c)" style="fill: #c49c94"/>
   </g>
   <g id="patch_134">
    <path d="M 422.311466 166.58396 
L 441.596659 166.58396 
L 441.596659 163.58707 
L 422.311466 163.58707 
z
" clip-path="url(#pe5052a228c)" style="fill: #c49c94"/>
   </g>
   <g id="patch_135">
    <path d="M 36.607597 73.816742 
L 55.89279 73.816742 
L 55.89279 64.188651 
L 36.607597 64.188651 
z
" clip-path="url(#pe5052a228c)" style="fill: #e377c2"/>
   </g>
   <g id="patch_136">
    <path d="M 75.177984 137.407993 
L 94.463177 137.407993 
L 94.463177 113.138089 
L 75.177984 113.138089 
z
" clip-path="url(#pe5052a228c)" style="fill: #e377c2"/>
   </g>
   <g id="patch_137">
    <path d="M 113.748371 199.121627 
L 133.033564 199.121627 
L 133.033564 199.121627 
L 113.748371 199.121627 
z
" clip-path="url(#pe5052a228c)" style="fill: #e377c2"/>
   </g>
   <g id="patch_138">
    <path d="M 152.318758 73.499597 
L 171.603951 73.499597 
L 171.603951 63.956089 
L 152.318758 63.956089 
z
" clip-path="url(#pe5052a228c)" style="fill: #e377c2"/>
   </g>
   <g id="patch_139">
    <path d="M 190.889144 73.26503 
L 210.174338 73.26503 
L 210.174338 63.442104 
L 190.889144 63.442104 
z
" clip-path="url(#pe5052a228c)" style="fill: #e377c2"/>
   </g>
   <g id="patch_140">
    <path d="M 229.459531 100.067869 
L 248.744725 100.067869 
L 248.744725 93.992081 
L 229.459531 93.992081 
z
" clip-path="url(#pe5052a228c)" style="fill: #e377c2"/>
   </g>
   <g id="patch_141">
    <path d="M 268.029918 136.682179 
L 287.315112 136.682179 
L 287.315112 114.240017 
L 268.029918 114.240017 
z
" clip-path="url(#pe5052a228c)" style="fill: #e377c2"/>
   </g>
   <g id="patch_142">
    <path d="M 306.600305 131.561533 
L 325.885499 131.561533 
L 325.885499 110.714242 
L 306.600305 110.714242 
z
" clip-path="url(#pe5052a228c)" style="fill: #e377c2"/>
   </g>
   <g id="patch_143">
    <path d="M 345.170692 156.858284 
L 364.455886 156.858284 
L 364.455886 128.3551 
L 345.170692 128.3551 
z
" clip-path="url(#pe5052a228c)" style="fill: #e377c2"/>
   </g>
   <g id="patch_144">
    <path d="M 383.741079 163.690218 
L 403.026273 163.690218 
L 403.026273 124.41685 
L 383.741079 124.41685 
z
" clip-path="url(#pe5052a228c)" style="fill: #e377c2"/>
   </g>
   <g id="patch_145">
    <path d="M 422.311466 163.58707 
L 441.596659 163.58707 
L 441.596659 124.199369 
L 422.311466 124.199369 
z
" clip-path="url(#pe5052a228c)" style="fill: #e377c2"/>
   </g>
   <g id="patch_146">
    <path d="M 36.607597 64.188651 
L 55.89279 64.188651 
L 55.89279 64.026599 
L 36.607597 64.026599 
z
" clip-path="url(#pe5052a228c)" style="fill: #f7b6d2"/>
   </g>
   <g id="patch_147">
    <path d="M 75.177984 113.138089 
L 94.463177 113.138089 
L 94.463177 106.971147 
L 75.177984 106.971147 
z
" clip-path="url(#pe5052a228c)" style="fill: #f7b6d2"/>
   </g>
   <g id="patch_148">
    <path d="M 113.748371 199.121627 
L 133.033564 199.121627 
L 133.033564 199.121627 
L 113.748371 199.121627 
z
" clip-path="url(#pe5052a228c)" style="fill: #f7b6d2"/>
   </g>
   <g id="patch_149">
    <path d="M 152.318758 63.956089 
L 171.603951 63.956089 
L 171.603951 63.634834 
L 152.318758 63.634834 
z
" clip-path="url(#pe5052a228c)" style="fill: #f7b6d2"/>
   </g>
   <g id="patch_150">
    <path d="M 190.889144 63.442104 
L 210.174338 63.442104 
L 210.174338 63.276773 
L 190.889144 63.276773 
z
" clip-path="url(#pe5052a228c)" style="fill: #f7b6d2"/>
   </g>
   <g id="patch_151">
    <path d="M 229.459531 199.121627 
L 248.744725 199.121627 
L 248.744725 199.121627 
L 229.459531 199.121627 
z
" clip-path="url(#pe5052a228c)" style="fill: #f7b6d2"/>
   </g>
   <g id="patch_152">
    <path d="M 268.029918 114.240017 
L 287.315112 114.240017 
L 287.315112 107.469146 
L 268.029918 107.469146 
z
" clip-path="url(#pe5052a228c)" style="fill: #f7b6d2"/>
   </g>
   <g id="patch_153">
    <path d="M 306.600305 110.714242 
L 325.885499 110.714242 
L 325.885499 103.713517 
L 306.600305 103.713517 
z
" clip-path="url(#pe5052a228c)" style="fill: #f7b6d2"/>
   </g>
   <g id="patch_154">
    <path d="M 345.170692 128.3551 
L 364.455886 128.3551 
L 364.455886 115.823527 
L 345.170692 115.823527 
z
" clip-path="url(#pe5052a228c)" style="fill: #f7b6d2"/>
   </g>
   <g id="patch_155">
    <path d="M 383.741079 124.41685 
L 403.026273 124.41685 
L 403.026273 124.13226 
L 383.741079 124.13226 
z
" clip-path="url(#pe5052a228c)" style="fill: #f7b6d2"/>
   </g>
   <g id="patch_156">
    <path d="M 422.311466 124.199369 
L 441.596659 124.199369 
L 441.596659 123.913951 
L 422.311466 123.913951 
z
" clip-path="url(#pe5052a228c)" style="fill: #f7b6d2"/>
   </g>
   <g id="patch_157">
    <path d="M 36.607597 64.026599 
L 55.89279 64.026599 
L 55.89279 43.691936 
L 36.607597 43.691936 
z
" clip-path="url(#pe5052a228c)" style="fill: #7f7f7f"/>
   </g>
   <g id="patch_158">
    <path d="M 75.177984 106.971147 
L 94.463177 106.971147 
L 94.463177 28.436569 
L 75.177984 28.436569 
z
" clip-path="url(#pe5052a228c)" style="fill: #7f7f7f"/>
   </g>
   <g id="patch_159">
    <path d="M 113.748371 199.121627 
L 133.033564 199.121627 
L 133.033564 199.121627 
L 113.748371 199.121627 
z
" clip-path="url(#pe5052a228c)" style="fill: #7f7f7f"/>
   </g>
   <g id="patch_160">
    <path d="M 152.318758 63.634834 
L 171.603951 63.634834 
L 171.603951 43.362496 
L 152.318758 43.362496 
z
" clip-path="url(#pe5052a228c)" style="fill: #7f7f7f"/>
   </g>
   <g id="patch_161">
    <path d="M 190.889144 63.276773 
L 210.174338 63.276773 
L 210.174338 43.026609 
L 190.889144 43.026609 
z
" clip-path="url(#pe5052a228c)" style="fill: #7f7f7f"/>
   </g>
   <g id="patch_162">
    <path d="M 229.459531 93.992081 
L 248.744725 93.992081 
L 248.744725 54.223287 
L 229.459531 54.223287 
z
" clip-path="url(#pe5052a228c)" style="fill: #7f7f7f"/>
   </g>
   <g id="patch_163">
    <path d="M 268.029918 107.469146 
L 287.315112 107.469146 
L 287.315112 30.614295 
L 268.029918 30.614295 
z
" clip-path="url(#pe5052a228c)" style="fill: #7f7f7f"/>
   </g>
   <g id="patch_164">
    <path d="M 306.600305 103.713517 
L 325.885499 103.713517 
L 325.885499 31.383018 
L 306.600305 31.383018 
z
" clip-path="url(#pe5052a228c)" style="fill: #7f7f7f"/>
   </g>
   <g id="patch_165">
    <path d="M 345.170692 115.823527 
L 364.455886 115.823527 
L 364.455886 23.433895 
L 345.170692 23.433895 
z
" clip-path="url(#pe5052a228c)" style="fill: #7f7f7f"/>
   </g>
   <g id="patch_166">
    <path d="M 383.741079 124.13226 
L 403.026273 124.13226 
L 403.026273 22.10688 
L 383.741079 22.10688 
z
" clip-path="url(#pe5052a228c)" style="fill: #7f7f7f"/>
   </g>
   <g id="patch_167">
    <path d="M 422.311466 123.913951 
L 441.596659 123.913951 
L 441.596659 22.162389 
L 422.311466 22.162389 
z
" clip-path="url(#pe5052a228c)" style="fill: #7f7f7f"/>
   </g>
   <g id="patch_168">
    <path d="M 36.607597 43.691936 
L 55.89279 43.691936 
L 55.89279 34.130901 
L 36.607597 34.130901 
z
" clip-path="url(#pe5052a228c)" style="fill: #c7c7c7"/>
   </g>
   <g id="patch_169">
    <path d="M 75.177984 28.436569 
L 94.463177 28.436569 
L 94.463177 25.076801 
L 75.177984 25.076801 
z
" clip-path="url(#pe5052a228c)" style="fill: #c7c7c7"/>
   </g>
   <g id="patch_170">
    <path d="M 113.748371 199.121627 
L 133.033564 199.121627 
L 133.033564 199.121627 
L 113.748371 199.121627 
z
" clip-path="url(#pe5052a228c)" style="fill: #c7c7c7"/>
   </g>
   <g id="patch_171">
    <path d="M 152.318758 43.362496 
L 171.603951 43.362496 
L 171.603951 33.868838 
L 152.318758 33.868838 
z
" clip-path="url(#pe5052a228c)" style="fill: #c7c7c7"/>
   </g>
   <g id="patch_172">
    <path d="M 190.889144 43.026609 
L 210.174338 43.026609 
L 210.174338 33.768087 
L 190.889144 33.768087 
z
" clip-path="url(#pe5052a228c)" style="fill: #c7c7c7"/>
   </g>
   <g id="patch_173">
    <path d="M 229.459531 54.223287 
L 248.744725 54.223287 
L 248.744725 37.652956 
L 229.459531 37.652956 
z
" clip-path="url(#pe5052a228c)" style="fill: #c7c7c7"/>
   </g>
   <g id="patch_174">
    <path d="M 268.029918 30.614295 
L 287.315112 30.614295 
L 287.315112 26.873934 
L 268.029918 26.873934 
z
" clip-path="url(#pe5052a228c)" style="fill: #c7c7c7"/>
   </g>
   <g id="patch_175">
    <path d="M 306.600305 31.383018 
L 325.885499 31.383018 
L 325.885499 27.479959 
L 306.600305 27.479959 
z
" clip-path="url(#pe5052a228c)" style="fill: #c7c7c7"/>
   </g>
   <g id="patch_176">
    <path d="M 345.170692 23.433895 
L 364.455886 23.433895 
L 364.455886 20.731007 
L 345.170692 20.731007 
z
" clip-path="url(#pe5052a228c)" style="fill: #c7c7c7"/>
   </g>
   <g id="patch_177">
    <path d="M 383.741079 22.10688 
L 403.026273 22.10688 
L 403.026273 20.399342 
L 383.741079 20.399342 
z
" clip-path="url(#pe5052a228c)" style="fill: #c7c7c7"/>
   </g>
   <g id="patch_178">
    <path d="M 422.311466 22.162389 
L 441.596659 22.162389 
L 441.596659 20.449881 
L 422.311466 20.449881 
z
" clip-path="url(#pe5052a228c)" style="fill: #c7c7c7"/>
   </g>
   <g id="patch_179">
    <path d="M 36.607597 34.130901 
L 55.89279 34.130901 
L 55.89279 28.783203 
L 36.607597 28.783203 
z
" clip-path="url(#pe5052a228c)" style="fill: #bcbd22"/>
   </g>
   <g id="patch_180">
    <path d="M 75.177984 25.076801 
L 94.463177 25.076801 
L 94.463177 21.274958 
L 75.177984 21.274958 
z
" clip-path="url(#pe5052a228c)" style="fill: #bcbd22"/>
   </g>
   <g id="patch_181">
    <path d="M 113.748371 199.121627 
L 133.033564 199.121627 
L 133.033564 199.121627 
L 113.748371 199.121627 
z
" clip-path="url(#pe5052a228c)" style="fill: #bcbd22"/>
   </g>
   <g id="patch_182">
    <path d="M 152.318758 33.868838 
L 171.603951 33.868838 
L 171.603951 28.56812 
L 152.318758 28.56812 
z
" clip-path="url(#pe5052a228c)" style="fill: #bcbd22"/>
   </g>
   <g id="patch_183">
    <path d="M 190.889144 33.768087 
L 210.174338 33.768087 
L 210.174338 28.642835 
L 190.889144 28.642835 
z
" clip-path="url(#pe5052a228c)" style="fill: #bcbd22"/>
   </g>
   <g id="patch_184">
    <path d="M 229.459531 37.652956 
L 248.744725 37.652956 
L 248.744725 26.974298 
L 229.459531 26.974298 
z
" clip-path="url(#pe5052a228c)" style="fill: #bcbd22"/>
   </g>
   <g id="patch_185">
    <path d="M 268.029918 26.873934 
L 287.315112 26.873934 
L 287.315112 22.451026 
L 268.029918 22.451026 
z
" clip-path="url(#pe5052a228c)" style="fill: #bcbd22"/>
   </g>
   <g id="patch_186">
    <path d="M 306.600305 27.479959 
L 325.885499 27.479959 
L 325.885499 22.46174 
L 306.600305 22.46174 
z
" clip-path="url(#pe5052a228c)" style="fill: #bcbd22"/>
   </g>
   <g id="patch_187">
    <path d="M 345.170692 199.121627 
L 364.455886 199.121627 
L 364.455886 199.121627 
L 345.170692 199.121627 
z
" clip-path="url(#pe5052a228c)" style="fill: #bcbd22"/>
   </g>
   <g id="patch_188">
    <path d="M 383.741079 20.399342 
L 403.026273 20.399342 
L 403.026273 18.976394 
L 383.741079 18.976394 
z
" clip-path="url(#pe5052a228c)" style="fill: #bcbd22"/>
   </g>
   <g id="patch_189">
    <path d="M 422.311466 20.449881 
L 441.596659 20.449881 
L 441.596659 19.02279 
L 422.311466 19.02279 
z
" clip-path="url(#pe5052a228c)" style="fill: #bcbd22"/>
   </g>
   <g id="patch_190">
    <path d="M 36.607597 28.783203 
L 55.89279 28.783203 
L 55.89279 23.92166 
L 36.607597 23.92166 
z
" clip-path="url(#pe5052a228c)" style="fill: #dbdb8d"/>
   </g>
   <g id="patch_191">
    <path d="M 75.177984 21.274958 
L 94.463177 21.274958 
L 94.463177 20.125564 
L 75.177984 20.125564 
z
" clip-path="url(#pe5052a228c)" style="fill: #dbdb8d"/>
   </g>
   <g id="patch_192">
    <path d="M 113.748371 199.121627 
L 133.033564 199.121627 
L 133.033564 199.121627 
L 113.748371 199.121627 
z
" clip-path="url(#pe5052a228c)" style="fill: #dbdb8d"/>
   </g>
   <g id="patch_193">
    <path d="M 152.318758 28.56812 
L 171.603951 28.56812 
L 171.603951 23.743747 
L 152.318758 23.743747 
z
" clip-path="url(#pe5052a228c)" style="fill: #dbdb8d"/>
   </g>
   <g id="patch_194">
    <path d="M 190.889144 28.642835 
L 210.174338 28.642835 
L 210.174338 23.848243 
L 190.889144 23.848243 
z
" clip-path="url(#pe5052a228c)" style="fill: #dbdb8d"/>
   </g>
   <g id="patch_195">
    <path d="M 229.459531 26.974298 
L 248.744725 26.974298 
L 248.744725 21.450854 
L 229.459531 21.450854 
z
" clip-path="url(#pe5052a228c)" style="fill: #dbdb8d"/>
   </g>
   <g id="patch_196">
    <path d="M 268.029918 22.451026 
L 287.315112 22.451026 
L 287.315112 21.331649 
L 268.029918 21.331649 
z
" clip-path="url(#pe5052a228c)" style="fill: #dbdb8d"/>
   </g>
   <g id="patch_197">
    <path d="M 306.600305 22.46174 
L 325.885499 22.46174 
L 325.885499 21.191697 
L 306.600305 21.191697 
z
" clip-path="url(#pe5052a228c)" style="fill: #dbdb8d"/>
   </g>
   <g id="patch_198">
    <path d="M 345.170692 199.121627 
L 364.455886 199.121627 
L 364.455886 199.121627 
L 345.170692 199.121627 
z
" clip-path="url(#pe5052a228c)" style="fill: #dbdb8d"/>
   </g>
   <g id="patch_199">
    <path d="M 383.741079 18.976394 
L 403.026273 18.976394 
L 403.026273 17.553446 
L 383.741079 17.553446 
z
" clip-path="url(#pe5052a228c)" style="fill: #dbdb8d"/>
   </g>
   <g id="patch_200">
    <path d="M 422.311466 19.02279 
L 441.596659 19.02279 
L 441.596659 17.595699 
L 422.311466 17.595699 
z
" clip-path="url(#pe5052a228c)" style="fill: #dbdb8d"/>
   </g>
   <g id="patch_201">
    <path d="M 36.607597 23.92166 
L 55.89279 23.92166 
L 55.89279 16.165542 
L 36.607597 16.165542 
z
" clip-path="url(#pe5052a228c)" style="fill: #17becf"/>
   </g>
   <g id="patch_202">
    <path d="M 75.177984 20.125564 
L 94.463177 20.125564 
L 94.463177 11.726144 
L 75.177984 11.726144 
z
" clip-path="url(#pe5052a228c)" style="fill: #17becf"/>
   </g>
   <g id="patch_203">
    <path d="M 113.748371 199.121627 
L 133.033564 199.121627 
L 133.033564 199.121627 
L 113.748371 199.121627 
z
" clip-path="url(#pe5052a228c)" style="fill: #17becf"/>
   </g>
   <g id="patch_204">
    <path d="M 152.318758 23.743747 
L 171.603951 23.743747 
L 171.603951 16.050228 
L 152.318758 16.050228 
z
" clip-path="url(#pe5052a228c)" style="fill: #17becf"/>
   </g>
   <g id="patch_205">
    <path d="M 190.889144 23.848243 
L 210.174338 23.848243 
L 210.174338 16.100503 
L 190.889144 16.100503 
z
" clip-path="url(#pe5052a228c)" style="fill: #17becf"/>
   </g>
   <g id="patch_206">
    <path d="M 229.459531 21.450854 
L 248.744725 21.450854 
L 248.744725 13.718033 
L 229.459531 13.718033 
z
" clip-path="url(#pe5052a228c)" style="fill: #17becf"/>
   </g>
   <g id="patch_207">
    <path d="M 268.029918 21.331649 
L 287.315112 21.331649 
L 287.315112 12.813455 
L 268.029918 12.813455 
z
" clip-path="url(#pe5052a228c)" style="fill: #17becf"/>
   </g>
   <g id="patch_208">
    <path d="M 306.600305 21.191697 
L 325.885499 21.191697 
L 325.885499 12.549209 
L 306.600305 12.549209 
z
" clip-path="url(#pe5052a228c)" style="fill: #17becf"/>
   </g>
   <g id="patch_209">
    <path d="M 345.170692 20.731007 
L 364.455886 20.731007 
L 364.455886 15.570947 
L 345.170692 15.570947 
z
" clip-path="url(#pe5052a228c)" style="fill: #17becf"/>
   </g>
   <g id="patch_210">
    <path d="M 383.741079 17.553446 
L 403.026273 17.553446 
L 403.026273 8.019693 
L 383.741079 8.019693 
z
" clip-path="url(#pe5052a228c)" style="fill: #17becf"/>
   </g>
   <g id="patch_211">
    <path d="M 422.311466 17.595699 
L 441.596659 17.595699 
L 441.596659 8.034192 
L 422.311466 8.034192 
z
" clip-path="url(#pe5052a228c)" style="fill: #17becf"/>
   </g>
   <g id="patch_212">
    <path d="M 36.607597 16.165542 
L 55.89279 16.165542 
L 55.89279 11.628102 
L 36.607597 11.628102 
z
" clip-path="url(#pe5052a228c)" style="fill: #9edae5"/>
   </g>
   <g id="patch_213">
    <path d="M 75.177984 11.726144 
L 94.463177 11.726144 
L 94.463177 9.471562 
L 75.177984 9.471562 
z
" clip-path="url(#pe5052a228c)" style="fill: #9edae5"/>
   </g>
   <g id="patch_214">
    <path d="M 113.748371 199.121627 
L 133.033564 199.121627 
L 133.033564 199.121627 
L 113.748371 199.121627 
z
" clip-path="url(#pe5052a228c)" style="fill: #9edae5"/>
   </g>
   <g id="patch_215">
    <path d="M 152.318758 16.050228 
L 171.603951 16.050228 
L 171.603951 11.552649 
L 152.318758 11.552649 
z
" clip-path="url(#pe5052a228c)" style="fill: #9edae5"/>
   </g>
   <g id="patch_216">
    <path d="M 190.889144 16.100503 
L 210.174338 16.100503 
L 210.174338 11.471242 
L 190.889144 11.471242 
z
" clip-path="url(#pe5052a228c)" style="fill: #9edae5"/>
   </g>
   <g id="patch_217">
    <path d="M 229.459531 199.121627 
L 248.744725 199.121627 
L 248.744725 199.121627 
L 229.459531 199.121627 
z
" clip-path="url(#pe5052a228c)" style="fill: #9edae5"/>
   </g>
   <g id="patch_218">
    <path d="M 268.029918 12.813455 
L 287.315112 12.813455 
L 287.315112 10.137869 
L 268.029918 10.137869 
z
" clip-path="url(#pe5052a228c)" style="fill: #9edae5"/>
   </g>
   <g id="patch_219">
    <path d="M 306.600305 12.549209 
L 325.885499 12.549209 
L 325.885499 10.41182 
L 306.600305 10.41182 
z
" clip-path="url(#pe5052a228c)" style="fill: #9edae5"/>
   </g>
   <g id="patch_220">
    <path d="M 345.170692 15.570947 
L 364.455886 15.570947 
L 364.455886 8.445151 
L 345.170692 8.445151 
z
" clip-path="url(#pe5052a228c)" style="fill: #9edae5"/>
   </g>
   <g id="patch_221">
    <path d="M 383.741079 8.019693 
L 403.026273 8.019693 
L 403.026273 7.450514 
L 383.741079 7.450514 
z
" clip-path="url(#pe5052a228c)" style="fill: #9edae5"/>
   </g>
   <g id="patch_222">
    <path d="M 422.311466 8.034192 
L 441.596659 8.034192 
L 441.596659 7.463356 
L 422.311466 7.463356 
z
" clip-path="url(#pe5052a228c)" style="fill: #9edae5"/>
   </g>
   <g id="patch_223">
    <path d="M 36.607597 11.628102 
L 55.89279 11.628102 
L 55.89279 8.06297 
L 36.607597 8.06297 
z
" clip-path="url(#pe5052a228c)" style="fill: #1f77b4"/>
   </g>
   <g id="patch_224">
    <path d="M 75.177984 9.471562 
L 94.463177 9.471562 
L 94.463177 5.625512 
L 75.177984 5.625512 
z
" clip-path="url(#pe5052a228c)" style="fill: #1f77b4"/>
   </g>
   <g id="patch_225">
    <path d="M 113.748371 199.121627 
L 133.033564 199.121627 
L 133.033564 199.121627 
L 113.748371 199.121627 
z
" clip-path="url(#pe5052a228c)" style="fill: #1f77b4"/>
   </g>
   <g id="patch_226">
    <path d="M 152.318758 11.552649 
L 171.603951 11.552649 
L 171.603951 8.018837 
L 152.318758 8.018837 
z
" clip-path="url(#pe5052a228c)" style="fill: #1f77b4"/>
   </g>
   <g id="patch_227">
    <path d="M 190.889144 11.471242 
L 210.174338 11.471242 
L 210.174338 7.833966 
L 190.889144 7.833966 
z
" clip-path="url(#pe5052a228c)" style="fill: #1f77b4"/>
   </g>
   <g id="patch_228">
    <path d="M 229.459531 199.121627 
L 248.744725 199.121627 
L 248.744725 199.121627 
L 229.459531 199.121627 
z
" clip-path="url(#pe5052a228c)" style="fill: #1f77b4"/>
   </g>
   <g id="patch_229">
    <path d="M 268.029918 10.137869 
L 287.315112 10.137869 
L 287.315112 5.41464 
L 268.029918 5.41464 
z
" clip-path="url(#pe5052a228c)" style="fill: #1f77b4"/>
   </g>
   <g id="patch_230">
    <path d="M 306.600305 10.41182 
L 325.885499 10.41182 
L 325.885499 5.176764 
L 306.600305 5.176764 
z
" clip-path="url(#pe5052a228c)" style="fill: #1f77b4"/>
   </g>
   <g id="patch_231">
    <path d="M 345.170692 8.445151 
L 364.455886 8.445151 
L 364.455886 7.462283 
L 345.170692 7.462283 
z
" clip-path="url(#pe5052a228c)" style="fill: #1f77b4"/>
   </g>
   <g id="patch_232">
    <path d="M 383.741079 7.450514 
L 403.026273 7.450514 
L 403.026273 7.308219 
L 383.741079 7.308219 
z
" clip-path="url(#pe5052a228c)" style="fill: #1f77b4"/>
   </g>
   <g id="patch_233">
    <path d="M 422.311466 7.463356 
L 441.596659 7.463356 
L 441.596659 7.320647 
L 422.311466 7.320647 
z
" clip-path="url(#pe5052a228c)" style="fill: #1f77b4"/>
   </g>
   <g id="patch_234">
    <path d="M 36.607597 8.06297 
L 55.89279 8.06297 
L 55.89279 5.146044 
L 36.607597 5.146044 
z
" clip-path="url(#pe5052a228c)" style="fill: #aec7e8"/>
   </g>
   <g id="patch_235">
    <path d="M 75.177984 5.625512 
L 94.463177 5.625512 
L 94.463177 4.387703 
L 75.177984 4.387703 
z
" clip-path="url(#pe5052a228c)" style="fill: #aec7e8"/>
   </g>
   <g id="patch_236">
    <path d="M 113.748371 199.121627 
L 133.033564 199.121627 
L 133.033564 199.121627 
L 113.748371 199.121627 
z
" clip-path="url(#pe5052a228c)" style="fill: #aec7e8"/>
   </g>
   <g id="patch_237">
    <path d="M 152.318758 8.018837 
L 171.603951 8.018837 
L 171.603951 5.127537 
L 152.318758 5.127537 
z
" clip-path="url(#pe5052a228c)" style="fill: #aec7e8"/>
   </g>
   <g id="patch_238">
    <path d="M 190.889144 7.833966 
L 210.174338 7.833966 
L 210.174338 4.858013 
L 190.889144 4.858013 
z
" clip-path="url(#pe5052a228c)" style="fill: #aec7e8"/>
   </g>
   <g id="patch_239">
    <path d="M 229.459531 199.121627 
L 248.744725 199.121627 
L 248.744725 199.121627 
L 229.459531 199.121627 
z
" clip-path="url(#pe5052a228c)" style="fill: #aec7e8"/>
   </g>
   <g id="patch_240">
    <path d="M 268.029918 5.41464 
L 287.315112 5.41464 
L 287.315112 3.885734 
L 268.029918 3.885734 
z
" clip-path="url(#pe5052a228c)" style="fill: #aec7e8"/>
   </g>
   <g id="patch_241">
    <path d="M 306.600305 5.176764 
L 325.885499 5.176764 
L 325.885499 3.442072 
L 306.600305 3.442072 
z
" clip-path="url(#pe5052a228c)" style="fill: #aec7e8"/>
   </g>
   <g id="patch_242">
    <path d="M 345.170692 199.121627 
L 364.455886 199.121627 
L 364.455886 199.121627 
L 345.170692 199.121627 
z
" clip-path="url(#pe5052a228c)" style="fill: #aec7e8"/>
   </g>
   <g id="patch_243">
    <path d="M 383.741079 199.121627 
L 403.026273 199.121627 
L 403.026273 199.121627 
L 383.741079 199.121627 
z
" clip-path="url(#pe5052a228c)" style="fill: #aec7e8"/>
   </g>
   <g id="patch_244">
    <path d="M 422.311466 199.121627 
L 441.596659 199.121627 
L 441.596659 199.121627 
L 422.311466 199.121627 
z
" clip-path="url(#pe5052a228c)" style="fill: #aec7e8"/>
   </g>
   <g id="patch_245">
    <path d="M 36.607597 5.146044 
L 55.89279 5.146044 
L 55.89279 3.201426 
L 36.607597 3.201426 
z
" clip-path="url(#pe5052a228c)" style="fill: #ff7f0e"/>
   </g>
   <g id="patch_246">
    <path d="M 75.177984 4.387703 
L 94.463177 4.387703 
L 94.463177 3.105686 
L 75.177984 3.105686 
z
" clip-path="url(#pe5052a228c)" style="fill: #ff7f0e"/>
   </g>
   <g id="patch_247">
    <path d="M 113.748371 199.121627 
L 133.033564 199.121627 
L 133.033564 199.121627 
L 113.748371 199.121627 
z
" clip-path="url(#pe5052a228c)" style="fill: #ff7f0e"/>
   </g>
   <g id="patch_248">
    <path d="M 152.318758 5.127537 
L 171.603951 5.127537 
L 171.603951 3.200003 
L 152.318758 3.200003 
z
" clip-path="url(#pe5052a228c)" style="fill: #ff7f0e"/>
   </g>
   <g id="patch_249">
    <path d="M 190.889144 4.858013 
L 210.174338 4.858013 
L 210.174338 3.204706 
L 190.889144 3.204706 
z
" clip-path="url(#pe5052a228c)" style="fill: #ff7f0e"/>
   </g>
   <g id="patch_250">
    <path d="M 229.459531 13.718033 
L 248.744725 13.718033 
L 248.744725 3.039375 
L 229.459531 3.039375 
z
" clip-path="url(#pe5052a228c)" style="fill: #ff7f0e"/>
   </g>
   <g id="patch_251">
    <path d="M 268.029918 3.885734 
L 287.315112 3.885734 
L 287.315112 3.039375 
L 268.029918 3.039375 
z
" clip-path="url(#pe5052a228c)" style="fill: #ff7f0e"/>
   </g>
   <g id="patch_252">
    <path d="M 306.600305 3.442072 
L 325.885499 3.442072 
L 325.885499 3.039375 
L 306.600305 3.039375 
z
" clip-path="url(#pe5052a228c)" style="fill: #ff7f0e"/>
   </g>
   <g id="patch_253">
    <path d="M 345.170692 7.462283 
L 364.455886 7.462283 
L 364.455886 3.039375 
L 345.170692 3.039375 
z
" clip-path="url(#pe5052a228c)" style="fill: #ff7f0e"/>
   </g>
   <g id="patch_254">
    <path d="M 383.741079 7.308219 
L 403.026273 7.308219 
L 403.026273 3.466259 
L 383.741079 3.466259 
z
" clip-path="url(#pe5052a228c)" style="fill: #ff7f0e"/>
   </g>
   <g id="patch_255">
    <path d="M 422.311466 7.320647 
L 441.596659 7.320647 
L 441.596659 3.467502 
L 422.311466 3.467502 
z
" clip-path="url(#pe5052a228c)" style="fill: #ff7f0e"/>
   </g>
   <g id="patch_256">
    <path d="M 36.607597 3.201426 
L 55.89279 3.201426 
L 55.89279 3.039375 
L 36.607597 3.039375 
z
" clip-path="url(#pe5052a228c)" style="fill: #ffbb78"/>
   </g>
   <g id="patch_257">
    <path d="M 75.177984 3.105686 
L 94.463177 3.105686 
L 94.463177 3.039375 
L 75.177984 3.039375 
z
" clip-path="url(#pe5052a228c)" style="fill: #ffbb78"/>
   </g>
   <g id="patch_258">
    <path d="M 113.748371 199.121627 
L 133.033564 199.121627 
L 133.033564 199.121627 
L 113.748371 199.121627 
z
" clip-path="url(#pe5052a228c)" style="fill: #ffbb78"/>
   </g>
   <g id="patch_259">
    <path d="M 152.318758 3.200003 
L 171.603951 3.200003 
L 171.603951 3.039375 
L 152.318758 3.039375 
z
" clip-path="url(#pe5052a228c)" style="fill: #ffbb78"/>
   </g>
   <g id="patch_260">
    <path d="M 190.889144 3.204706 
L 210.174338 3.204706 
L 210.174338 3.039375 
L 190.889144 3.039375 
z
" clip-path="url(#pe5052a228c)" style="fill: #ffbb78"/>
   </g>
   <g id="patch_261">
    <path d="M 229.459531 199.121627 
L 248.744725 199.121627 
L 248.744725 199.121627 
L 229.459531 199.121627 
z
" clip-path="url(#pe5052a228c)" style="fill: #ffbb78"/>
   </g>
   <g id="patch_262">
    <path d="M 268.029918 199.121627 
L 287.315112 199.121627 
L 287.315112 199.121627 
L 268.029918 199.121627 
z
" clip-path="url(#pe5052a228c)" style="fill: #ffbb78"/>
   </g>
   <g id="patch_263">
    <path d="M 306.600305 199.121627 
L 325.885499 199.121627 
L 325.885499 199.121627 
L 306.600305 199.121627 
z
" clip-path="url(#pe5052a228c)" style="fill: #ffbb78"/>
   </g>
   <g id="patch_264">
    <path d="M 345.170692 199.121627 
L 364.455886 199.121627 
L 364.455886 199.121627 
L 345.170692 199.121627 
z
" clip-path="url(#pe5052a228c)" style="fill: #ffbb78"/>
   </g>
   <g id="patch_265">
    <path d="M 383.741079 3.466259 
L 403.026273 3.466259 
L 403.026273 3.039375 
L 383.741079 3.039375 
z
" clip-path="url(#pe5052a228c)" style="fill: #ffbb78"/>
   </g>
   <g id="patch_266">
    <path d="M 422.311466 3.467502 
L 441.596659 3.467502 
L 441.596659 3.039375 
L 422.311466 3.039375 
z
" clip-path="url(#pe5052a228c)" style="fill: #ffbb78"/>
   </g>
   <g id="patch_267">
    <path d="M 26.965 199.121627 
L 26.965 3.039375 
" style="fill: none; stroke: #262626; stroke-width: 0.8; stroke-linejoin: miter; stroke-linecap: square"/>
   </g>
   <g id="patch_268">
    <path d="M 26.965 199.121627 
L 451.239256 199.121627 
" style="fill: none; stroke: #262626; stroke-width: 0.8; stroke-linejoin: miter; stroke-linecap: square"/>
   </g>
  </g>
  <g id="axes_2">
   <g id="legend_1">
    <g id="patch_269">
     <path d="M 59.987128 336.119 
L 418.217128 336.119 
Q 419.817128 336.119 419.817128 334.519 
L 419.817128 288.349 
Q 419.817128 286.749 418.217128 286.749 
L 59.987128 286.749 
Q 58.387128 286.749 58.387128 288.349 
L 58.387128 334.519 
Q 58.387128 336.119 59.987128 336.119 
z
" style="fill: #f5f5f5; opacity: 0.8; stroke: #cccccc; stroke-linejoin: miter"/>
    </g>
    <g id="text_19">
     <text style="font-size: 8px; font-family: 'Arial', 'DejaVu Sans', 'Liberation Sans', 'Bitstream Vera Sans', sans-serif; text-anchor: start; fill: #262626" x="205.427128" y="296.02775" transform="rotate(-0 205.427128 296.02775)">COG24 Category</text>
    </g>
    <g id="patch_270">
     <path d="M 61.587128 307.77025 
L 77.587128 307.77025 
L 77.587128 302.17025 
L 61.587128 302.17025 
z
" style="fill: #1f77b4"/>
    </g>
    <g id="text_20">
     <text style="font-size: 8px; font-family: 'Arial', 'DejaVu Sans', 'Liberation Sans', 'Bitstream Vera Sans', sans-serif; text-anchor: start; fill: #262626" x="83.987128" y="307.77025" transform="rotate(-0 83.987128 307.77025)">A</text>
    </g>
    <g id="patch_271">
     <path d="M 61.587128 319.51275 
L 77.587128 319.51275 
L 77.587128 313.91275 
L 61.587128 313.91275 
z
" style="fill: #aec7e8"/>
    </g>
    <g id="text_21">
     <text style="font-size: 8px; font-family: 'Arial', 'DejaVu Sans', 'Liberation Sans', 'Bitstream Vera Sans', sans-serif; text-anchor: start; fill: #262626" x="83.987128" y="319.51275" transform="rotate(-0 83.987128 319.51275)">B</text>
    </g>
    <g id="patch_272">
     <path d="M 61.587128 331.25525 
L 77.587128 331.25525 
L 77.587128 325.65525 
L 61.587128 325.65525 
z
" style="fill: #ff7f0e"/>
    </g>
    <g id="text_22">
     <text style="font-size: 8px; font-family: 'Arial', 'DejaVu Sans', 'Liberation Sans', 'Bitstream Vera Sans', sans-serif; text-anchor: start; fill: #262626" x="83.987128" y="331.25525" transform="rotate(-0 83.987128 331.25525)">C</text>
    </g>
    <g id="patch_273">
     <path d="M 105.573378 307.77025 
L 121.573378 307.77025 
L 121.573378 302.17025 
L 105.573378 302.17025 
z
" style="fill: #ffbb78"/>
    </g>
    <g id="text_23">
     <text style="font-size: 8px; font-family: 'Arial', 'DejaVu Sans', 'Liberation Sans', 'Bitstream Vera Sans', sans-serif; text-anchor: start; fill: #262626" x="127.973378" y="307.77025" transform="rotate(-0 127.973378 307.77025)">D</text>
    </g>
    <g id="patch_274">
     <path d="M 105.573378 319.51275 
L 121.573378 319.51275 
L 121.573378 313.91275 
L 105.573378 313.91275 
z
" style="fill: #2ca02c"/>
    </g>
    <g id="text_24">
     <text style="font-size: 8px; font-family: 'Arial', 'DejaVu Sans', 'Liberation Sans', 'Bitstream Vera Sans', sans-serif; text-anchor: start; fill: #262626" x="127.973378" y="319.51275" transform="rotate(-0 127.973378 319.51275)">E</text>
    </g>
    <g id="patch_275">
     <path d="M 105.573378 331.25525 
L 121.573378 331.25525 
L 121.573378 325.65525 
L 105.573378 325.65525 
z
" style="fill: #98df8a"/>
    </g>
    <g id="text_25">
     <text style="font-size: 8px; font-family: 'Arial', 'DejaVu Sans', 'Liberation Sans', 'Bitstream Vera Sans', sans-serif; text-anchor: start; fill: #262626" x="127.973378" y="331.25525" transform="rotate(-0 127.973378 331.25525)">F</text>
    </g>
    <g id="patch_276">
     <path d="M 150.133378 307.77025 
L 166.133378 307.77025 
L 166.133378 302.17025 
L 150.133378 302.17025 
z
" style="fill: #d62728"/>
    </g>
    <g id="text_26">
     <text style="font-size: 8px; font-family: 'Arial', 'DejaVu Sans', 'Liberation Sans', 'Bitstream Vera Sans', sans-serif; text-anchor: start; fill: #262626" x="172.533378" y="307.77025" transform="rotate(-0 172.533378 307.77025)">G</text>
    </g>
    <g id="patch_277">
     <path d="M 150.133378 319.51275 
L 166.133378 319.51275 
L 166.133378 313.91275 
L 150.133378 313.91275 
z
" style="fill: #ff9896"/>
    </g>
    <g id="text_27">
     <text style="font-size: 8px; font-family: 'Arial', 'DejaVu Sans', 'Liberation Sans', 'Bitstream Vera Sans', sans-serif; text-anchor: start; fill: #262626" x="172.533378" y="319.51275" transform="rotate(-0 172.533378 319.51275)">H</text>
    </g>
    <g id="patch_278">
     <path d="M 150.133378 331.25525 
L 166.133378 331.25525 
L 166.133378 325.65525 
L 150.133378 325.65525 
z
" style="fill: #9467bd"/>
    </g>
    <g id="text_28">
     <text style="font-size: 8px; font-family: 'Arial', 'DejaVu Sans', 'Liberation Sans', 'Bitstream Vera Sans', sans-serif; text-anchor: start; fill: #262626" x="172.533378" y="331.25525" transform="rotate(-0 172.533378 331.25525)">I</text>
    </g>
    <g id="patch_279">
     <path d="M 194.732128 307.77025 
L 210.732128 307.77025 
L 210.732128 302.17025 
L 194.732128 302.17025 
z
" style="fill: #c5b0d5"/>
    </g>
    <g id="text_29">
     <text style="font-size: 8px; font-family: 'Arial', 'DejaVu Sans', 'Liberation Sans', 'Bitstream Vera Sans', sans-serif; text-anchor: start; fill: #262626" x="217.132128" y="307.77025" transform="rotate(-0 217.132128 307.77025)">J</text>
    </g>
    <g id="patch_280">
     <path d="M 194.732128 319.51275 
L 210.732128 319.51275 
L 210.732128 313.91275 
L 194.732128 313.91275 
z
" style="fill: #8c564b"/>
    </g>
    <g id="text_30">
     <text style="font-size: 8px; font-family: 'Arial', 'DejaVu Sans', 'Liberation Sans', 'Bitstream Vera Sans', sans-serif; text-anchor: start; fill: #262626" x="217.132128" y="319.51275" transform="rotate(-0 217.132128 319.51275)">K</text>
    </g>
    <g id="patch_281">
     <path d="M 194.732128 331.25525 
L 210.732128 331.25525 
L 210.732128 325.65525 
L 194.732128 325.65525 
z
" style="fill: #c49c94"/>
    </g>
    <g id="text_31">
     <text style="font-size: 8px; font-family: 'Arial', 'DejaVu Sans', 'Liberation Sans', 'Bitstream Vera Sans', sans-serif; text-anchor: start; fill: #262626" x="217.132128" y="331.25525" transform="rotate(-0 217.132128 331.25525)">L</text>
    </g>
    <g id="patch_282">
     <path d="M 238.378378 307.77025 
L 254.378378 307.77025 
L 254.378378 302.17025 
L 238.378378 302.17025 
z
" style="fill: #e377c2"/>
    </g>
    <g id="text_32">
     <text style="font-size: 8px; font-family: 'Arial', 'DejaVu Sans', 'Liberation Sans', 'Bitstream Vera Sans', sans-serif; text-anchor: start; fill: #262626" x="260.778378" y="307.77025" transform="rotate(-0 260.778378 307.77025)">M</text>
    </g>
    <g id="patch_283">
     <path d="M 238.378378 319.51275 
L 254.378378 319.51275 
L 254.378378 313.91275 
L 238.378378 313.91275 
z
" style="fill: #f7b6d2"/>
    </g>
    <g id="text_33">
     <text style="font-size: 8px; font-family: 'Arial', 'DejaVu Sans', 'Liberation Sans', 'Bitstream Vera Sans', sans-serif; text-anchor: start; fill: #262626" x="260.778378" y="319.51275" transform="rotate(-0 260.778378 319.51275)">N</text>
    </g>
    <g id="patch_284">
     <path d="M 238.378378 331.25525 
L 254.378378 331.25525 
L 254.378378 325.65525 
L 238.378378 325.65525 
z
" style="fill: #7f7f7f"/>
    </g>
    <g id="text_34">
     <text style="font-size: 8px; font-family: 'Arial', 'DejaVu Sans', 'Liberation Sans', 'Bitstream Vera Sans', sans-serif; text-anchor: start; fill: #262626" x="260.778378" y="331.25525" transform="rotate(-0 260.778378 331.25525)">None</text>
    </g>
    <g id="patch_285">
     <path d="M 297.650878 307.77025 
L 313.650878 307.77025 
L 313.650878 302.17025 
L 297.650878 302.17025 
z
" style="fill: #c7c7c7"/>
    </g>
    <g id="text_35">
     <text style="font-size: 8px; font-family: 'Arial', 'DejaVu Sans', 'Liberation Sans', 'Bitstream Vera Sans', sans-serif; text-anchor: start; fill: #262626" x="320.050878" y="307.77025" transform="rotate(-0 320.050878 307.77025)">O</text>
    </g>
    <g id="patch_286">
     <path d="M 297.650878 319.51275 
L 313.650878 319.51275 
L 313.650878 313.91275 
L 297.650878 313.91275 
z
" style="fill: #bcbd22"/>
    </g>
    <g id="text_36">
     <text style="font-size: 8px; font-family: 'Arial', 'DejaVu Sans', 'Liberation Sans', 'Bitstream Vera Sans', sans-serif; text-anchor: start; fill: #262626" x="320.050878" y="319.51275" transform="rotate(-0 320.050878 319.51275)">P</text>
    </g>
    <g id="patch_287">
     <path d="M 297.650878 331.25525 
L 313.650878 331.25525 
L 313.650878 325.65525 
L 297.650878 325.65525 
z
" style="fill: #dbdb8d"/>
    </g>
    <g id="text_37">
     <text style="font-size: 8px; font-family: 'Arial', 'DejaVu Sans', 'Liberation Sans', 'Bitstream Vera Sans', sans-serif; text-anchor: start; fill: #262626" x="320.050878" y="331.25525" transform="rotate(-0 320.050878 331.25525)">Q</text>
    </g>
    <g id="patch_288">
     <path d="M 342.348378 307.77025 
L 358.348378 307.77025 
L 358.348378 302.17025 
L 342.348378 302.17025 
z
" style="fill: #17becf"/>
    </g>
    <g id="text_38">
     <text style="font-size: 8px; font-family: 'Arial', 'DejaVu Sans', 'Liberation Sans', 'Bitstream Vera Sans', sans-serif; text-anchor: start; fill: #262626" x="364.748378" y="307.77025" transform="rotate(-0 364.748378 307.77025)">R</text>
    </g>
    <g id="patch_289">
     <path d="M 342.348378 319.51275 
L 358.348378 319.51275 
L 358.348378 313.91275 
L 342.348378 313.91275 
z
" style="fill: #9edae5"/>
    </g>
    <g id="text_39">
     <text style="font-size: 8px; font-family: 'Arial', 'DejaVu Sans', 'Liberation Sans', 'Bitstream Vera Sans', sans-serif; text-anchor: start; fill: #262626" x="364.748378" y="319.51275" transform="rotate(-0 364.748378 319.51275)">S</text>
    </g>
    <g id="patch_290">
     <path d="M 342.348378 331.25525 
L 358.348378 331.25525 
L 358.348378 325.65525 
L 342.348378 325.65525 
z
" style="fill: #1f77b4"/>
    </g>
    <g id="text_40">
     <text style="font-size: 8px; font-family: 'Arial', 'DejaVu Sans', 'Liberation Sans', 'Bitstream Vera Sans', sans-serif; text-anchor: start; fill: #262626" x="364.748378" y="331.25525" transform="rotate(-0 364.748378 331.25525)">T</text>
    </g>
    <g id="patch_291">
     <path d="M 386.307128 307.77025 
L 402.307128 307.77025 
L 402.307128 302.17025 
L 386.307128 302.17025 
z
" style="fill: #aec7e8"/>
    </g>
    <g id="text_41">
     <text style="font-size: 8px; font-family: 'Arial', 'DejaVu Sans', 'Liberation Sans', 'Bitstream Vera Sans', sans-serif; text-anchor: start; fill: #262626" x="408.707128" y="307.77025" transform="rotate(-0 408.707128 307.77025)">U</text>
    </g>
    <g id="patch_292">
     <path d="M 386.307128 319.51275 
L 402.307128 319.51275 
L 402.307128 313.91275 
L 386.307128 313.91275 
z
" style="fill: #ff7f0e"/>
    </g>
    <g id="text_42">
     <text style="font-size: 8px; font-family: 'Arial', 'DejaVu Sans', 'Liberation Sans', 'Bitstream Vera Sans', sans-serif; text-anchor: start; fill: #262626" x="408.707128" y="319.51275" transform="rotate(-0 408.707128 319.51275)">V</text>
    </g>
    <g id="patch_293">
     <path d="M 386.307128 331.25525 
L 402.307128 331.25525 
L 402.307128 325.65525 
L 386.307128 325.65525 
z
" style="fill: #ffbb78"/>
    </g>
    <g id="text_43">
     <text style="font-size: 8px; font-family: 'Arial', 'DejaVu Sans', 'Liberation Sans', 'Bitstream Vera Sans', sans-serif; text-anchor: start; fill: #262626" x="408.707128" y="331.25525" transform="rotate(-0 408.707128 331.25525)">W</text>
    </g>
   </g>
  </g>
  <g id="axes_3">
   <g id="patch_294">
    <path d="M 26.965 556.682627 
L 451.239256 556.682627 
L 451.239256 360.600375 
L 26.965 360.600375 
z
" style="fill: #ffffff"/>
   </g>
   <g id="matplotlib.axis_3">
    <g id="xtick_12">
     <g id="text_44">
      <text style="font-size: 8px; font-family: 'Arial', 'DejaVu Sans', 'Liberation Sans', 'Bitstream Vera Sans', sans-serif; fill: #262626" transform="translate(30.717886 594.101769) rotate(-45)">Backbone</text>
      <text style="font-size: 8px; font-family: 'Arial', 'DejaVu Sans', 'Liberation Sans', 'Bitstream Vera Sans', sans-serif; fill: #262626" transform="translate(34.28356 603.204973) rotate(-45)">Region (BR)</text>
     </g>
    </g>
    <g id="xtick_13">
     <g id="text_45">
      <text style="font-size: 8px; font-family: 'Arial', 'DejaVu Sans', 'Liberation Sans', 'Bitstream Vera Sans', sans-serif; fill: #262626" transform="translate(71.761821 591.622476) rotate(-45)">Variable</text>
      <text style="font-size: 8px; font-family: 'Arial', 'DejaVu Sans', 'Liberation Sans', 'Bitstream Vera Sans', sans-serif; fill: #262626" transform="translate(72.859692 603.193483) rotate(-45)">Region (VR)</text>
     </g>
    </g>
    <g id="xtick_14"/>
    <g id="xtick_15">
     <g id="text_46">
      <text style="font-size: 8px; font-family: 'Arial', 'DejaVu Sans', 'Liberation Sans', 'Bitstream Vera Sans', sans-serif; fill: #262626" transform="translate(153.809916 576.571266) rotate(-45)">Core</text>
      <text style="font-size: 8px; font-family: 'Arial', 'DejaVu Sans', 'Liberation Sans', 'Bitstream Vera Sans', sans-serif; fill: #262626" transform="translate(162.522885 580.527175) rotate(-45)">GC</text>
     </g>
    </g>
    <g id="xtick_16">
     <g id="text_47">
      <text style="font-size: 8px; font-family: 'Arial', 'DejaVu Sans', 'Liberation Sans', 'Bitstream Vera Sans', sans-serif; fill: #262626" transform="translate(192.380303 579.454936) rotate(-45)">Core</text>
      <text style="font-size: 8px; font-family: 'Arial', 'DejaVu Sans', 'Liberation Sans', 'Bitstream Vera Sans', sans-serif; fill: #262626" transform="translate(195.831072 588.673045) rotate(-45)">SynGC</text>
     </g>
    </g>
    <g id="xtick_17">
     <g id="text_48">
      <text style="font-size: 8px; font-family: 'Arial', 'DejaVu Sans', 'Liberation Sans', 'Bitstream Vera Sans', sans-serif; fill: #262626" transform="translate(221.452036 595.568574) rotate(-45)">Duplication</text>
      <text style="font-size: 8px; font-family: 'Arial', 'DejaVu Sans', 'Liberation Sans', 'Bitstream Vera Sans', sans-serif; fill: #262626" transform="translate(234.401459 595.288029) rotate(-45)">SynGC</text>
     </g>
    </g>
    <g id="xtick_18">
     <g id="text_49">
      <text style="font-size: 8px; font-family: 'Arial', 'DejaVu Sans', 'Liberation Sans', 'Bitstream Vera Sans', sans-serif; fill: #262626" transform="translate(261.815822 591.981775) rotate(-45)">Accessory</text>
      <text style="font-size: 8px; font-family: 'Arial', 'DejaVu Sans', 'Liberation Sans', 'Bitstream Vera Sans', sans-serif; fill: #262626" transform="translate(278.234046 588.232429) rotate(-45)">GC</text>
     </g>
    </g>
    <g id="xtick_19">
     <g id="text_50">
      <text style="font-size: 8px; font-family: 'Arial', 'DejaVu Sans', 'Liberation Sans', 'Bitstream Vera Sans', sans-serif; fill: #262626" transform="translate(300.386209 591.981775) rotate(-45)">Accessory</text>
      <text style="font-size: 8px; font-family: 'Arial', 'DejaVu Sans', 'Liberation Sans', 'Bitstream Vera Sans', sans-serif; fill: #262626" transform="translate(311.542233 593.49463) rotate(-45)">SynGC</text>
     </g>
    </g>
    <g id="xtick_20">
     <g id="text_51">
      <text style="font-size: 8px; font-family: 'Arial', 'DejaVu Sans', 'Liberation Sans', 'Bitstream Vera Sans', sans-serif; fill: #262626" transform="translate(331.160744 607.573479) rotate(-45)">Rearrangement</text>
      <text style="font-size: 8px; font-family: 'Arial', 'DejaVu Sans', 'Liberation Sans', 'Bitstream Vera Sans', sans-serif; fill: #262626" transform="translate(350.11262 601.290482) rotate(-45)">SynGC</text>
     </g>
    </g>
    <g id="xtick_21">
     <g id="text_52">
      <text style="font-size: 8px; font-family: 'Arial', 'DejaVu Sans', 'Liberation Sans', 'Bitstream Vera Sans', sans-serif; fill: #262626" transform="translate(378.449757 590.136226) rotate(-45)">Singleton</text>
      <text style="font-size: 8px; font-family: 'Arial', 'DejaVu Sans', 'Liberation Sans', 'Bitstream Vera Sans', sans-serif; fill: #262626" transform="translate(393.945207 587.309655) rotate(-45)">GC</text>
     </g>
    </g>
    <g id="xtick_22">
     <g id="text_53">
      <text style="font-size: 8px; font-family: 'Arial', 'DejaVu Sans', 'Liberation Sans', 'Bitstream Vera Sans', sans-serif; fill: #262626" transform="translate(417.020144 590.136226) rotate(-45)">Singleton</text>
      <text style="font-size: 8px; font-family: 'Arial', 'DejaVu Sans', 'Liberation Sans', 'Bitstream Vera Sans', sans-serif; fill: #262626" transform="translate(427.253394 592.571855) rotate(-45)">SynGC</text>
     </g>
    </g>
    <g id="text_54">
     <text style="font-weight: 700; font-size: 8px; font-family: 'Arial', 'DejaVu Sans', 'Liberation Sans', 'Bitstream Vera Sans', sans-serif; text-anchor: middle; fill: #262626" x="239.102128" y="625.163117" transform="rotate(-0 239.102128 625.163117)">Artifact</text>
    </g>
   </g>
   <g id="matplotlib.axis_4">
    <g id="ytick_7">
     <g id="text_55">
      <text style="font-size: 8px; font-family: 'Arial', 'DejaVu Sans', 'Liberation Sans', 'Bitstream Vera Sans', sans-serif; text-anchor: end; fill: #262626" x="24.465" y="559.722002" transform="rotate(-0 24.465 559.722002)">0.0</text>
     </g>
    </g>
    <g id="ytick_8">
     <g id="text_56">
      <text style="font-size: 8px; font-family: 'Arial', 'DejaVu Sans', 'Liberation Sans', 'Bitstream Vera Sans', sans-serif; text-anchor: end; fill: #262626" x="24.465" y="520.505551" transform="rotate(-0 24.465 520.505551)">0.2</text>
     </g>
    </g>
    <g id="ytick_9">
     <g id="text_57">
      <text style="font-size: 8px; font-family: 'Arial', 'DejaVu Sans', 'Liberation Sans', 'Bitstream Vera Sans', sans-serif; text-anchor: end; fill: #262626" x="24.465" y="481.289101" transform="rotate(-0 24.465 481.289101)">0.4</text>
     </g>
    </g>
    <g id="ytick_10">
     <g id="text_58">
      <text style="font-size: 8px; font-family: 'Arial', 'DejaVu Sans', 'Liberation Sans', 'Bitstream Vera Sans', sans-serif; text-anchor: end; fill: #262626" x="24.465" y="442.072651" transform="rotate(-0 24.465 442.072651)">0.6</text>
     </g>
    </g>
    <g id="ytick_11">
     <g id="text_59">
      <text style="font-size: 8px; font-family: 'Arial', 'DejaVu Sans', 'Liberation Sans', 'Bitstream Vera Sans', sans-serif; text-anchor: end; fill: #262626" x="24.465" y="402.8562" transform="rotate(-0 24.465 402.8562)">0.8</text>
     </g>
    </g>
    <g id="ytick_12">
     <g id="text_60">
      <text style="font-size: 8px; font-family: 'Arial', 'DejaVu Sans', 'Liberation Sans', 'Bitstream Vera Sans', sans-serif; text-anchor: end; fill: #262626" x="24.465" y="363.63975" transform="rotate(-0 24.465 363.63975)">1.0</text>
     </g>
    </g>
    <g id="text_61">
     <text style="font-weight: 700; font-size: 8px; font-family: 'Arial', 'DejaVu Sans', 'Liberation Sans', 'Bitstream Vera Sans', sans-serif; text-anchor: middle; fill: #262626" x="6.07875" y="458.641501" transform="rotate(-90 6.07875 458.641501)">Proportion</text>
    </g>
   </g>
   <g id="patch_295">
    <path d="M 36.607597 556.682627 
L 55.89279 556.682627 
L 55.89279 551.172877 
L 36.607597 551.172877 
z
" clip-path="url(#p43e316c900)" style="fill: #a6d854"/>
   </g>
   <g id="patch_296">
    <path d="M 75.177984 556.682627 
L 94.463177 556.682627 
L 94.463177 551.55456 
L 75.177984 551.55456 
z
" clip-path="url(#p43e316c900)" style="fill: #a6d854"/>
   </g>
   <g id="patch_297">
    <path d="M 113.748371 556.682627 
L 133.033564 556.682627 
L 133.033564 556.682627 
L 113.748371 556.682627 
z
" clip-path="url(#p43e316c900)" style="fill: #a6d854"/>
   </g>
   <g id="patch_298">
    <path d="M 152.318758 556.682627 
L 171.603951 556.682627 
L 171.603951 551.221281 
L 152.318758 551.221281 
z
" clip-path="url(#p43e316c900)" style="fill: #a6d854"/>
   </g>
   <g id="patch_299">
    <path d="M 190.889144 556.682627 
L 210.174338 556.682627 
L 210.174338 551.392043 
L 190.889144 551.392043 
z
" clip-path="url(#p43e316c900)" style="fill: #a6d854"/>
   </g>
   <g id="patch_300">
    <path d="M 229.459531 556.682627 
L 248.744725 556.682627 
L 248.744725 546.003969 
L 229.459531 546.003969 
z
" clip-path="url(#p43e316c900)" style="fill: #a6d854"/>
   </g>
   <g id="patch_301">
    <path d="M 268.029918 556.682627 
L 287.315112 556.682627 
L 287.315112 551.113039 
L 268.029918 551.113039 
z
" clip-path="url(#p43e316c900)" style="fill: #a6d854"/>
   </g>
   <g id="patch_302">
    <path d="M 306.600305 556.682627 
L 325.885499 556.682627 
L 325.885499 551.044875 
L 306.600305 551.044875 
z
" clip-path="url(#p43e316c900)" style="fill: #a6d854"/>
   </g>
   <g id="patch_303">
    <path d="M 345.170692 556.682627 
L 364.455886 556.682627 
L 364.455886 551.27685 
L 345.170692 551.27685 
z
" clip-path="url(#p43e316c900)" style="fill: #a6d854"/>
   </g>
   <g id="patch_304">
    <path d="M 383.741079 556.682627 
L 403.026273 556.682627 
L 403.026273 552.698372 
L 383.741079 552.698372 
z
" clip-path="url(#p43e316c900)" style="fill: #a6d854"/>
   </g>
   <g id="patch_305">
    <path d="M 422.311466 556.682627 
L 441.596659 556.682627 
L 441.596659 552.686773 
L 422.311466 552.686773 
z
" clip-path="url(#p43e316c900)" style="fill: #a6d854"/>
   </g>
   <g id="patch_306">
    <path d="M 36.607597 551.172877 
L 55.89279 551.172877 
L 55.89279 538.303757 
L 36.607597 538.303757 
z
" clip-path="url(#p43e316c900)" style="fill: #e78ac3"/>
   </g>
   <g id="patch_307">
    <path d="M 75.177984 551.55456 
L 94.463177 551.55456 
L 94.463177 519.813593 
L 75.177984 519.813593 
z
" clip-path="url(#p43e316c900)" style="fill: #e78ac3"/>
   </g>
   <g id="patch_308">
    <path d="M 113.748371 556.682627 
L 133.033564 556.682627 
L 133.033564 556.682627 
L 113.748371 556.682627 
z
" clip-path="url(#p43e316c900)" style="fill: #e78ac3"/>
   </g>
   <g id="patch_309">
    <path d="M 152.318758 551.221281 
L 171.603951 551.221281 
L 171.603951 538.304589 
L 152.318758 538.304589 
z
" clip-path="url(#p43e316c900)" style="fill: #e78ac3"/>
   </g>
   <g id="patch_310">
    <path d="M 190.889144 551.392043 
L 210.174338 551.392043 
L 210.174338 538.262502 
L 190.889144 538.262502 
z
" clip-path="url(#p43e316c900)" style="fill: #e78ac3"/>
   </g>
   <g id="patch_311">
    <path d="M 229.459531 546.003969 
L 248.744725 546.003969 
L 248.744725 539.928181 
L 229.459531 539.928181 
z
" clip-path="url(#p43e316c900)" style="fill: #e78ac3"/>
   </g>
   <g id="patch_312">
    <path d="M 268.029918 551.113039 
L 287.315112 551.113039 
L 287.315112 520.371098 
L 268.029918 520.371098 
z
" clip-path="url(#p43e316c900)" style="fill: #e78ac3"/>
   </g>
   <g id="patch_313">
    <path d="M 306.600305 551.044875 
L 325.885499 551.044875 
L 325.885499 521.462165 
L 306.600305 521.462165 
z
" clip-path="url(#p43e316c900)" style="fill: #e78ac3"/>
   </g>
   <g id="patch_314">
    <path d="M 345.170692 551.27685 
L 364.455886 551.27685 
L 364.455886 510.242093 
L 345.170692 510.242093 
z
" clip-path="url(#p43e316c900)" style="fill: #e78ac3"/>
   </g>
   <g id="patch_315">
    <path d="M 383.741079 552.698372 
L 403.026273 552.698372 
L 403.026273 512.71353 
L 383.741079 512.71353 
z
" clip-path="url(#p43e316c900)" style="fill: #e78ac3"/>
   </g>
   <g id="patch_316">
    <path d="M 422.311466 552.686773 
L 441.596659 552.686773 
L 441.596659 512.585526 
L 422.311466 512.585526 
z
" clip-path="url(#p43e316c900)" style="fill: #e78ac3"/>
   </g>
   <g id="patch_317">
    <path d="M 36.607597 538.303757 
L 55.89279 538.303757 
L 55.89279 489.956546 
L 36.607597 489.956546 
z
" clip-path="url(#p43e316c900)" style="fill: #8da0cb"/>
   </g>
   <g id="patch_318">
    <path d="M 75.177984 519.813593 
L 94.463177 519.813593 
L 94.463177 505.755616 
L 75.177984 505.755616 
z
" clip-path="url(#p43e316c900)" style="fill: #8da0cb"/>
   </g>
   <g id="patch_319">
    <path d="M 113.748371 556.682627 
L 133.033564 556.682627 
L 133.033564 556.682627 
L 113.748371 556.682627 
z
" clip-path="url(#p43e316c900)" style="fill: #8da0cb"/>
   </g>
   <g id="patch_320">
    <path d="M 152.318758 538.304589 
L 171.603951 538.304589 
L 171.603951 490.204867 
L 152.318758 490.204867 
z
" clip-path="url(#p43e316c900)" style="fill: #8da0cb"/>
   </g>
   <g id="patch_321">
    <path d="M 190.889144 538.262502 
L 210.174338 538.262502 
L 210.174338 489.763586 
L 190.889144 489.763586 
z
" clip-path="url(#p43e316c900)" style="fill: #8da0cb"/>
   </g>
   <g id="patch_322">
    <path d="M 229.459531 539.928181 
L 248.744725 539.928181 
L 248.744725 510.653929 
L 229.459531 510.653929 
z
" clip-path="url(#p43e316c900)" style="fill: #8da0cb"/>
   </g>
   <g id="patch_323">
    <path d="M 268.029918 520.371098 
L 287.315112 520.371098 
L 287.315112 506.092204 
L 268.029918 506.092204 
z
" clip-path="url(#p43e316c900)" style="fill: #8da0cb"/>
   </g>
   <g id="patch_324">
    <path d="M 306.600305 521.462165 
L 325.885499 521.462165 
L 325.885499 507.027042 
L 306.600305 507.027042 
z
" clip-path="url(#p43e316c900)" style="fill: #8da0cb"/>
   </g>
   <g id="patch_325">
    <path d="M 345.170692 510.242093 
L 364.455886 510.242093 
L 364.455886 491.81331 
L 345.170692 491.81331 
z
" clip-path="url(#p43e316c900)" style="fill: #8da0cb"/>
   </g>
   <g id="patch_326">
    <path d="M 383.741079 512.71353 
L 403.026273 512.71353 
L 403.026273 501.18765 
L 383.741079 501.18765 
z
" clip-path="url(#p43e316c900)" style="fill: #8da0cb"/>
   </g>
   <g id="patch_327">
    <path d="M 422.311466 512.585526 
L 441.596659 512.585526 
L 441.596659 501.026092 
L 422.311466 501.026092 
z
" clip-path="url(#p43e316c900)" style="fill: #8da0cb"/>
   </g>
   <g id="patch_328">
    <path d="M 36.607597 489.956546 
L 55.89279 489.956546 
L 55.89279 393.228596 
L 36.607597 393.228596 
z
" clip-path="url(#p43e316c900)" style="fill: #fc8d62"/>
   </g>
   <g id="patch_329">
    <path d="M 75.177984 505.755616 
L 94.463177 505.755616 
L 94.463177 449.788954 
L 75.177984 449.788954 
z
" clip-path="url(#p43e316c900)" style="fill: #fc8d62"/>
   </g>
   <g id="patch_330">
    <path d="M 113.748371 556.682627 
L 133.033564 556.682627 
L 133.033564 556.682627 
L 113.748371 556.682627 
z
" clip-path="url(#p43e316c900)" style="fill: #fc8d62"/>
   </g>
   <g id="patch_331">
    <path d="M 152.318758 490.204867 
L 171.603951 490.204867 
L 171.603951 393.06381 
L 152.318758 393.06381 
z
" clip-path="url(#p43e316c900)" style="fill: #fc8d62"/>
   </g>
   <g id="patch_332">
    <path d="M 190.889144 489.763586 
L 210.174338 489.763586 
L 210.174338 393.22754 
L 190.889144 393.22754 
z
" clip-path="url(#p43e316c900)" style="fill: #fc8d62"/>
   </g>
   <g id="patch_333">
    <path d="M 229.459531 510.653929 
L 248.744725 510.653929 
L 248.744725 408.101991 
L 229.459531 408.101991 
z
" clip-path="url(#p43e316c900)" style="fill: #fc8d62"/>
   </g>
   <g id="patch_334">
    <path d="M 268.029918 506.092204 
L 287.315112 506.092204 
L 287.315112 448.649005 
L 268.029918 448.649005 
z
" clip-path="url(#p43e316c900)" style="fill: #fc8d62"/>
   </g>
   <g id="patch_335">
    <path d="M 306.600305 507.027042 
L 325.885499 507.027042 
L 325.885499 443.710751 
L 306.600305 443.710751 
z
" clip-path="url(#p43e316c900)" style="fill: #fc8d62"/>
   </g>
   <g id="patch_336">
    <path d="M 345.170692 491.81331 
L 364.455886 491.81331 
L 364.455886 465.275863 
L 345.170692 465.275863 
z
" clip-path="url(#p43e316c900)" style="fill: #fc8d62"/>
   </g>
   <g id="patch_337">
    <path d="M 383.741079 501.18765 
L 403.026273 501.18765 
L 403.026273 472.728687 
L 383.741079 472.728687 
z
" clip-path="url(#p43e316c900)" style="fill: #fc8d62"/>
   </g>
   <g id="patch_338">
    <path d="M 422.311466 501.026092 
L 441.596659 501.026092 
L 441.596659 472.48428 
L 422.311466 472.48428 
z
" clip-path="url(#p43e316c900)" style="fill: #fc8d62"/>
   </g>
   <g id="patch_339">
    <path d="M 36.607597 393.228596 
L 55.89279 393.228596 
L 55.89279 360.600375 
L 36.607597 360.600375 
z
" clip-path="url(#p43e316c900)" style="fill: #66c2a5"/>
   </g>
   <g id="patch_340">
    <path d="M 75.177984 449.788954 
L 94.463177 449.788954 
L 94.463177 360.600375 
L 75.177984 360.600375 
z
" clip-path="url(#p43e316c900)" style="fill: #66c2a5"/>
   </g>
   <g id="patch_341">
    <path d="M 113.748371 556.682627 
L 133.033564 556.682627 
L 133.033564 556.682627 
L 113.748371 556.682627 
z
" clip-path="url(#p43e316c900)" style="fill: #66c2a5"/>
   </g>
   <g id="patch_342">
    <path d="M 152.318758 393.06381 
L 171.603951 393.06381 
L 171.603951 360.600375 
L 152.318758 360.600375 
z
" clip-path="url(#p43e316c900)" style="fill: #66c2a5"/>
   </g>
   <g id="patch_343">
    <path d="M 190.889144 393.22754 
L 210.174338 393.22754 
L 210.174338 360.600375 
L 190.889144 360.600375 
z
" clip-path="url(#p43e316c900)" style="fill: #66c2a5"/>
   </g>
   <g id="patch_344">
    <path d="M 229.459531 408.101991 
L 248.744725 408.101991 
L 248.744725 360.600375 
L 229.459531 360.600375 
z
" clip-path="url(#p43e316c900)" style="fill: #66c2a5"/>
   </g>
   <g id="patch_345">
    <path d="M 268.029918 448.649005 
L 287.315112 448.649005 
L 287.315112 360.600375 
L 268.029918 360.600375 
z
" clip-path="url(#p43e316c900)" style="fill: #66c2a5"/>
   </g>
   <g id="patch_346">
    <path d="M 306.600305 443.710751 
L 325.885499 443.710751 
L 325.885499 360.600375 
L 306.600305 360.600375 
z
" clip-path="url(#p43e316c900)" style="fill: #66c2a5"/>
   </g>
   <g id="patch_347">
    <path d="M 345.170692 465.275863 
L 364.455886 465.275863 
L 364.455886 360.600375 
L 345.170692 360.600375 
z
" clip-path="url(#p43e316c900)" style="fill: #66c2a5"/>
   </g>
   <g id="patch_348">
    <path d="M 383.741079 472.728687 
L 403.026273 472.728687 
L 403.026273 360.600375 
L 383.741079 360.600375 
z
" clip-path="url(#p43e316c900)" style="fill: #66c2a5"/>
   </g>
   <g id="patch_349">
    <path d="M 422.311466 472.48428 
L 441.596659 472.48428 
L 441.596659 360.600375 
L 422.311466 360.600375 
z
" clip-path="url(#p43e316c900)" style="fill: #66c2a5"/>
   </g>
   <g id="patch_350">
    <path d="M 26.965 556.682627 
L 26.965 360.600375 
" style="fill: none; stroke: #262626; stroke-width: 0.8; stroke-linejoin: miter; stroke-linecap: square"/>
   </g>
   <g id="patch_351">
    <path d="M 26.965 556.682627 
L 451.239256 556.682627 
" style="fill: none; stroke: #262626; stroke-width: 0.8; stroke-linejoin: miter; stroke-linecap: square"/>
   </g>
  </g>
  <g id="axes_4">
   <g id="legend_2">
    <g id="patch_352">
     <path d="M 71.594003 693.68 
L 406.610253 693.68 
Q 408.210253 693.68 408.210253 692.08 
L 408.210253 645.91 
Q 408.210253 644.31 406.610253 644.31 
L 71.594003 644.31 
Q 69.994003 644.31 69.994003 645.91 
L 69.994003 692.08 
Q 69.994003 693.68 71.594003 693.68 
z
" style="fill: #f5f5f5; opacity: 0.8; stroke: #cccccc; stroke-linejoin: miter"/>
    </g>
    <g id="text_62">
     <text style="font-size: 8px; font-family: 'Arial', 'DejaVu Sans', 'Liberation Sans', 'Bitstream Vera Sans', sans-serif; text-anchor: start; fill: #262626" x="222.090253" y="653.58875" transform="rotate(-0 222.090253 653.58875)">Function</text>
    </g>
    <g id="patch_353">
     <path d="M 73.194003 665.33125 
L 89.194003 665.33125 
L 89.194003 659.73125 
L 73.194003 659.73125 
z
" style="fill: #a6d854"/>
    </g>
    <g id="text_63">
     <text style="font-size: 8px; font-family: 'Arial', 'DejaVu Sans', 'Liberation Sans', 'Bitstream Vera Sans', sans-serif; text-anchor: start; fill: #262626" x="95.594003" y="665.33125" transform="rotate(-0 95.594003 665.33125)">Cellular Communication &amp; Defense</text>
    </g>
    <g id="patch_354">
     <path d="M 73.194003 677.07375 
L 89.194003 677.07375 
L 89.194003 671.47375 
L 73.194003 671.47375 
z
" style="fill: #e78ac3"/>
    </g>
    <g id="text_64">
     <text style="font-size: 8px; font-family: 'Arial', 'DejaVu Sans', 'Liberation Sans', 'Bitstream Vera Sans', sans-serif; text-anchor: start; fill: #262626" x="95.594003" y="677.07375" transform="rotate(-0 95.594003 677.07375)">Cellular Structure &amp; Organization</text>
    </g>
    <g id="patch_355">
     <path d="M 73.194003 688.81625 
L 89.194003 688.81625 
L 89.194003 683.21625 
L 73.194003 683.21625 
z
" style="fill: #8da0cb"/>
    </g>
    <g id="text_65">
     <text style="font-size: 8px; font-family: 'Arial', 'DejaVu Sans', 'Liberation Sans', 'Bitstream Vera Sans', sans-serif; text-anchor: start; fill: #262626" x="95.594003" y="688.81625" transform="rotate(-0 95.594003 688.81625)">Genetic Information Processing</text>
    </g>
    <g id="patch_356">
     <path d="M 251.932753 665.33125 
L 267.932753 665.33125 
L 267.932753 659.73125 
L 251.932753 659.73125 
z
" style="fill: #fc8d62"/>
    </g>
    <g id="text_66">
     <text style="font-size: 8px; font-family: 'Arial', 'DejaVu Sans', 'Liberation Sans', 'Bitstream Vera Sans', sans-serif; text-anchor: start; fill: #262626" x="274.332753" y="665.33125" transform="rotate(-0 274.332753 665.33125)">Metabolism &amp; Energy Production</text>
    </g>
    <g id="patch_357">
     <path d="M 251.932753 677.07375 
L 267.932753 677.07375 
L 267.932753 671.47375 
L 251.932753 671.47375 
z
" style="fill: #66c2a5"/>
    </g>
    <g id="text_67">
     <text style="font-size: 8px; font-family: 'Arial', 'DejaVu Sans', 'Liberation Sans', 'Bitstream Vera Sans', sans-serif; text-anchor: start; fill: #262626" x="274.332753" y="677.07375" transform="rotate(-0 274.332753 677.07375)">Poorly Characterized / Unknown</text>
    </g>
   </g>
  </g>
 </g>
 <defs>
  <clipPath id="pe5052a228c">
   <rect x="26.965" y="3.039375" width="424.274256" height="196.082252"/>
  </clipPath>
  <clipPath id="p43e316c900">
   <rect x="26.965" y="360.600375" width="424.274256" height="196.082252"/>
  </clipPath>
 </defs>
</svg>
