<?xml version="1.0" encoding="UTF-8" standalone="no"?>
<svg
   width="1635.1368"
   height="367.85886"
   viewBox="0 0 432.62995 97.329324"
   version="1.1"
   id="svg5"
   inkscape:version="1.2.1 (9c6d41e4, 2022-07-14)"
   sodipodi:docname="eds.svg"
   inkscape:export-filename="/Users/meren/Downloads/letterhead.png"
   inkscape:export-xdpi="482.78"
   inkscape:export-ydpi="482.78"
   xml:space="preserve"
   xmlns:inkscape="http://www.inkscape.org/namespaces/inkscape"
   xmlns:sodipodi="http://sodipodi.sourceforge.net/DTD/sodipodi-0.dtd"
   xmlns="http://www.w3.org/2000/svg"
   xmlns:svg="http://www.w3.org/2000/svg"><sodipodi:namedview
     id="namedview7"
     pagecolor="#ffffff"
     bordercolor="#666666"
     borderopacity="1.0"
     objecttolerance="10.0"
     gridtolerance="10.0"
     guidetolerance="10.0"
     inkscape:pageshadow="2"
     inkscape:pageopacity="0.0"
     inkscape:pagecheckerboard="0"
     inkscape:document-units="mm"
     showgrid="false"
     inkscape:zoom="1.025625"
     inkscape:cx="816.57526"
     inkscape:cy="182.81536"
     inkscape:window-width="2160"
     inkscape:window-height="1385"
     inkscape:window-x="2160"
     inkscape:window-y="25"
     inkscape:window-maximized="0"
     inkscape:current-layer="layer1"
     inkscape:snap-global="false"
     inkscape:showpageshadow="2"
     inkscape:deskcolor="#d1d1d1" /><defs
     id="defs2"><clipPath
       clipPathUnits="userSpaceOnUse"
       id="clipPath1771"><rect
         style="fill:#000000;fill-opacity:0.25;stroke-width:0.999998;paint-order:markers fill stroke"
         id="rect1773"
         width="210.44633"
         height="50.959709"
         x="0.83205551"
         y="-43.955891" /></clipPath><filter
       style="color-interpolation-filters:sRGB"
       inkscape:label="Drop Shadow"
       id="filter13576"
       x="-0.024774192"
       y="-0.045714479"
       width="1.2043871"
       height="1.3771445"><feFlood
         flood-opacity="0.498039"
         flood-color="rgb(0,0,0)"
         result="flood"
         id="feFlood13566" /><feComposite
         in="flood"
         in2="SourceGraphic"
         operator="in"
         result="composite1"
         id="feComposite13568" /><feGaussianBlur
         in="composite1"
         stdDeviation="3"
         result="blur"
         id="feGaussianBlur13570" /><feOffset
         dx="6"
         dy="6"
         result="offset"
         id="feOffset13572" /><feComposite
         in="SourceGraphic"
         in2="offset"
         operator="over"
         result="fbSourceGraphic"
         id="feComposite13574" /><feColorMatrix
         result="fbSourceGraphicAlpha"
         in="fbSourceGraphic"
         values="0 0 0 -1 0 0 0 0 -1 0 0 0 0 -1 0 0 0 0 1 0"
         id="feColorMatrix13596" /><feFlood
         id="feFlood13598"
         flood-opacity="0.498039"
         flood-color="rgb(0,0,0)"
         result="flood"
         in="fbSourceGraphic" /><feComposite
         in2="fbSourceGraphic"
         id="feComposite13600"
         in="flood"
         operator="in"
         result="composite1" /><feGaussianBlur
         id="feGaussianBlur13602"
         in="composite1"
         stdDeviation="3.6"
         result="blur" /><feOffset
         id="feOffset13604"
         dx="6"
         dy="6"
         result="offset" /><feComposite
         in2="offset"
         id="feComposite13606"
         in="fbSourceGraphic"
         operator="over"
         result="composite2" /></filter><filter
       style="color-interpolation-filters:sRGB"
       inkscape:label="Drop Shadow"
       id="filter13716"
       x="-0.083520837"
       y="-0.32300785"
       width="1.2250422"
       height="1.8703268"><feFlood
         flood-opacity="0.498039"
         flood-color="rgb(0,0,0)"
         result="flood"
         id="feFlood13706" /><feComposite
         in="flood"
         in2="SourceGraphic"
         operator="in"
         result="composite1"
         id="feComposite13708" /><feGaussianBlur
         in="composite1"
         stdDeviation="3.6"
         result="blur"
         id="feGaussianBlur13710" /><feOffset
         dx="6"
         dy="6"
         result="offset"
         id="feOffset13712" /><feComposite
         in="SourceGraphic"
         in2="offset"
         operator="over"
         result="composite2"
         id="feComposite13714" /></filter><filter
       style="color-interpolation-filters:sRGB"
       inkscape:label="Drop Shadow"
       id="filter13746"
       x="-0.071298063"
       y="-0.18052961"
       width="1.1921088"
       height="1.4864269"><feFlood
         flood-opacity="0.498039"
         flood-color="rgb(0,0,0)"
         result="flood"
         id="feFlood13736" /><feComposite
         in="flood"
         in2="SourceGraphic"
         operator="in"
         result="composite1"
         id="feComposite13738" /><feGaussianBlur
         in="composite1"
         stdDeviation="3.6"
         result="blur"
         id="feGaussianBlur13740" /><feOffset
         dx="6"
         dy="6"
         result="offset"
         id="feOffset13742" /><feComposite
         in="SourceGraphic"
         in2="offset"
         operator="over"
         result="composite2"
         id="feComposite13744" /></filter><clipPath
       clipPathUnits="userSpaceOnUse"
       id="clipPath13907"><ellipse
         style="fill:#782121;stroke-width:0.717947;paint-order:markers fill stroke"
         id="ellipse13909"
         cx="21.361671"
         cy="-575.54425"
         rx="176.38634"
         ry="176.38651" /></clipPath><filter
       style="color-interpolation-filters:sRGB"
       inkscape:label="Drop Shadow"
       id="filter17879"
       x="-0.055741932"
       y="-0.10285758"
       width="1.1501935"
       height="1.277144"><feFlood
         flood-opacity="0.498039"
         flood-color="rgb(0,0,0)"
         result="flood"
         id="feFlood17869" /><feComposite
         in="flood"
         in2="SourceGraphic"
         operator="in"
         result="composite1"
         id="feComposite17871" /><feGaussianBlur
         in="composite1"
         stdDeviation="3.6"
         result="blur"
         id="feGaussianBlur17873" /><feOffset
         dx="6"
         dy="6"
         result="offset"
         id="feOffset17875" /><feComposite
         in="SourceGraphic"
         in2="offset"
         operator="over"
         result="composite2"
         id="feComposite17877" /></filter><clipPath
       clipPathUnits="userSpaceOnUse"
       id="clipPath18613"><text
         xml:space="preserve"
         style="font-style:normal;font-variant:normal;font-weight:bold;font-stretch:normal;font-size:10.8364px;line-height:1.25;font-family:'Neo Sans Std';-inkscape-font-specification:'Neo Sans Std Bold';text-align:start;text-anchor:start;fill:#666666;stroke-width:0.108364"
         x="48.105606"
         y="-843.98694"
         id="text18617"
         transform="rotate(90)"><tspan
           sodipodi:role="line"
           style="font-style:normal;font-variant:normal;font-weight:500;font-stretch:normal;font-size:10.8364px;font-family:'Neo Sans Std';-inkscape-font-specification:'Neo Sans Std Medium';text-align:start;text-anchor:start;fill:#666666;stroke-width:0.108364"
           x="48.105606"
           y="-843.98694"
           id="tspan18615">Ecosystem Data Science at</tspan></text></clipPath><clipPath
       clipPathUnits="userSpaceOnUse"
       id="clipPath18675"><text
         xml:space="preserve"
         style="font-style:normal;font-variant:normal;font-weight:bold;font-stretch:normal;font-size:10.8364px;line-height:1.25;font-family:'Neo Sans Std';-inkscape-font-specification:'Neo Sans Std Bold';text-align:start;text-anchor:start;fill:#666666;stroke-width:0.108364"
         x="47.387615"
         y="-617.10193"
         id="text18679"
         transform="rotate(123.37497)"><tspan
           sodipodi:role="line"
           style="font-style:normal;font-variant:normal;font-weight:500;font-stretch:normal;font-size:10.8364px;font-family:'Neo Sans Std';-inkscape-font-specification:'Neo Sans Std Medium';text-align:start;text-anchor:start;fill:#666666;stroke-width:0.108364"
           x="47.387615"
           y="-617.10193"
           id="tspan18677">Ecosystem Data Science at</tspan></text></clipPath><clipPath
       clipPathUnits="userSpaceOnUse"
       id="clipPath18727"><text
         xml:space="preserve"
         style="font-style:normal;font-variant:normal;font-weight:bold;font-stretch:normal;font-size:19.5057px;line-height:1.25;font-family:'Neo Sans Std';-inkscape-font-specification:'Neo Sans Std Bold';text-align:start;text-anchor:start;fill:#000000;stroke-width:0.254066"
         x="46.677341"
         y="-790.80072"
         id="text18733"
         transform="rotate(90)"><tspan
           sodipodi:role="line"
           style="font-style:normal;font-variant:normal;font-weight:500;font-stretch:normal;font-size:19.5057px;font-family:'Neo Sans Std';-inkscape-font-specification:'Neo Sans Std Medium';text-align:start;text-anchor:start;fill:#000000;stroke-width:0.254066"
           x="46.677341"
           y="-790.80072"
           id="tspan18731">MerenLab<tspan
   style="font-size:19.5057px;fill:#4d4d4d;stroke-width:0.254066"
   id="tspan18729">.org</tspan></tspan></text></clipPath><clipPath
       clipPathUnits="userSpaceOnUse"
       id="clipPath18877"><rect
         style="fill:#000000;stroke-width:1.30498;paint-order:markers fill stroke"
         id="rect18879"
         width="142.64078"
         height="142.40144"
         x="-113.92116"
         y="-960.91064"
         transform="rotate(90)" /></clipPath><filter
       style="color-interpolation-filters:sRGB"
       inkscape:label="Drop Shadow"
       id="filter11127"
       x="-0.03080171"
       y="-0.14811982"
       width="1.0658814"
       height="1.3168118"><feFlood
         flood-opacity="0.498039"
         flood-color="rgb(0,0,0)"
         result="flood"
         id="feFlood11117" /><feComposite
         in="flood"
         in2="SourceGraphic"
         operator="in"
         result="composite1"
         id="feComposite11119" /><feGaussianBlur
         in="composite1"
         stdDeviation="3"
         result="blur"
         id="feGaussianBlur11121" /><feOffset
         dx="1"
         dy="1"
         result="offset"
         id="feOffset11123" /><feComposite
         in="SourceGraphic"
         in2="offset"
         operator="over"
         result="fbSourceGraphic"
         id="feComposite11125" /><feColorMatrix
         result="fbSourceGraphicAlpha"
         in="fbSourceGraphic"
         values="0 0 0 -1 0 0 0 0 -1 0 0 0 0 -1 0 0 0 0 1 0"
         id="feColorMatrix11129" /><feFlood
         id="feFlood11131"
         flood-opacity="0.498039"
         flood-color="rgb(241,241,241)"
         result="flood"
         in="fbSourceGraphic" /><feComposite
         in2="fbSourceGraphic"
         id="feComposite11133"
         in="flood"
         operator="in"
         result="composite1" /><feGaussianBlur
         id="feGaussianBlur11135"
         in="composite1"
         stdDeviation="3"
         result="blur" /><feOffset
         id="feOffset11137"
         dx="1"
         dy="1"
         result="offset" /><feComposite
         in2="offset"
         id="feComposite11139"
         in="fbSourceGraphic"
         operator="over"
         result="fbSourceGraphic" /><feColorMatrix
         result="fbSourceGraphicAlpha"
         in="fbSourceGraphic"
         values="0 0 0 -1 0 0 0 0 -1 0 0 0 0 -1 0 0 0 0 1 0"
         id="feColorMatrix11141" /><feFlood
         id="feFlood11143"
         flood-opacity="0.498039"
         flood-color="rgb(224,224,224)"
         result="flood"
         in="fbSourceGraphic" /><feComposite
         in2="fbSourceGraphic"
         id="feComposite11145"
         in="flood"
         operator="in"
         result="composite1" /><feGaussianBlur
         id="feGaussianBlur11147"
         in="composite1"
         stdDeviation="3"
         result="blur" /><feOffset
         id="feOffset11149"
         dx="1"
         dy="1"
         result="offset" /><feComposite
         in2="offset"
         id="feComposite11151"
         in="fbSourceGraphic"
         operator="over"
         result="composite2" /></filter><filter
       style="color-interpolation-filters:sRGB;"
       inkscape:label="Drop Shadow"
       id="filter20898"
       x="-0.0041068948"
       y="-0.01974931"
       width="1.0096398"
       height="1.046356"><feFlood
         flood-opacity="0.498039"
         flood-color="rgb(255,255,255)"
         result="flood"
         id="feFlood20888" /><feComposite
         in="flood"
         in2="SourceGraphic"
         operator="in"
         result="composite1"
         id="feComposite20890" /><feGaussianBlur
         in="composite1"
         stdDeviation="1.2"
         result="blur"
         id="feGaussianBlur20892" /><feOffset
         dx="1"
         dy="1"
         result="offset"
         id="feOffset20894" /><feComposite
         in="SourceGraphic"
         in2="offset"
         operator="over"
         result="composite2"
         id="feComposite20896" /></filter></defs><g
     inkscape:label="Layer 1"
     inkscape:groupmode="layer"
     id="layer1"
     transform="translate(666.44471,396.9217)"><g
       id="g24934"
       transform="matrix(0.60367549,0,0,0.60367549,-229.52759,-534.72127)"
       style="fill:#004867;fill-opacity:0.99215686;stroke-width:1.65652;filter:url(#filter20898)"><text
         xml:space="preserve"
         style="font-style:normal;font-variant:normal;font-weight:normal;font-stretch:normal;font-size:48.448px;line-height:1.25;font-family:'Neo Sans Pro';-inkscape-font-specification:'Neo Sans Pro';text-align:start;text-anchor:start;fill:#004867;fill-opacity:0.99215686;stroke-width:0.438286"
         x="-699.63892"
         y="299.87833"
         id="text6077"><tspan
           sodipodi:role="line"
           style="font-style:normal;font-variant:normal;font-weight:normal;font-stretch:normal;font-size:48.448px;font-family:'Neo Sans Pro';-inkscape-font-specification:'Neo Sans Pro';text-align:start;text-anchor:start;fill:#004867;fill-opacity:0.99215686;stroke-width:0.438286"
           x="-699.63892"
           y="299.87833"
           id="tspan11543"><tspan
   style="font-style:normal;font-variant:normal;font-weight:normal;font-stretch:normal;font-size:23.8125px;font-family:'Neo Sans Pro';-inkscape-font-specification:'Neo Sans Pro';fill:#004867;fill-opacity:0.99215686;stroke-width:0.438286"
   id="tspan13663">at the Helmholtz Institute for Functional Marine Biodiversity</tspan> </tspan></text><text
         xml:space="preserve"
         style="font-style:normal;font-variant:normal;font-weight:normal;font-stretch:normal;font-size:50.15px;line-height:1.25;font-family:'Neo Sans Pro';-inkscape-font-specification:'Neo Sans Pro';text-align:start;text-anchor:start;fill:#004867;fill-opacity:0.99215686;stroke-width:0.438286"
         x="-720.47327"
         y="273.48132"
         id="text19699"><tspan
           sodipodi:role="line"
           style="font-style:normal;font-variant:normal;font-weight:normal;font-stretch:normal;font-size:50.15px;font-family:'Neo Sans Pro';-inkscape-font-specification:'Neo Sans Pro';text-align:start;text-anchor:start;fill:#004867;fill-opacity:0.99215686;stroke-width:0.438286"
           x="-720.47327"
           y="273.48132"
           id="tspan19697">Ecosystem Data Science Group</tspan></text><g
         id="g24873"
         transform="translate(0,407.06749)"
         style="fill:#004867;fill-opacity:0.99215686;stroke-width:1.65652"><g
           id="g24733"
           transform="matrix(0.73711959,0,0,0.73711959,-714.43821,-90.338595)"
           style="fill:#004867;fill-opacity:0.99215686;stroke-width:0.594596"><path
             d="m 277.5,72.4 v -1.91 c 0,-0.17 -0.13,-0.24 -0.31,-0.28 a 17.54,17.54 0 0 0 -3.78,-0.41 c -2.63,0 -5.5,1.16 -5.5,5.77 v 2.25 c 0,4.58 3.09,5.76 5.15,5.76 a 19.66,19.66 0 0 0 4.06,-0.38 c 0.27,-0.06 0.36,-0.17 0.36,-0.42 V 76.7 a 0.37,0.37 0 0 0 -0.36,-0.37 h -2.32 a 0.35,0.35 0 0 0 -0.34,0.37 v 4.16 c -0.44,0 -0.89,0.06 -1.4,0.06 -0.88,0 -2,-0.58 -2,-3.08 v -2.27 c 0,-2.37 0.9,-3.08 2.37,-3.08 1.47,0 2.89,0.11 3.76,0.15 h 0.06 c 0.16,0 0.27,0 0.27,-0.24 M 263,74.27 c 0,1.23 -0.6,1.72 -2.5,1.72 -0.2,0 -1.09,0 -1.29,0 v -3.51 c 0.22,0 1.16,-0.06 1.41,-0.06 1.52,0 2.38,0.51 2.38,1.61 z m 3.52,8.93 A 0.53,0.53 0 0 0 266.47,83 l -2.73,-5.11 A 3.64,3.64 0 0 0 266,74.27 V 74 c 0,-3.2 -2.37,-4.23 -5.45,-4.23 A 30,30 0 0 0 256.88,70 c -0.56,0.09 -0.82,0.26 -0.82,0.87 v 12.18 a 0.37,0.37 0 0 0 0.37,0.36 h 2.35 a 0.36,0.36 0 0 0 0.36,-0.36 v -4.6 c 0.34,0 0.9,0 1.29,0 h 0.2 l 2.42,4.58 c 0.09,0.18 0.16,0.36 0.36,0.36 h 2.77 c 0.2,0 0.27,-0.09 0.27,-0.21 M 253.22,78.34 V 70.3 a 0.37,0.37 0 0 0 -0.38,-0.34 h -2.35 a 0.35,0.35 0 0 0 -0.36,0.34 v 8.06 c 0,1.85 -0.51,2.63 -2.14,2.63 -1.63,0 -2.12,-0.78 -2.12,-2.63 V 70.3 a 0.35,0.35 0 0 0 -0.36,-0.34 h -2.37 a 0.35,0.35 0 0 0 -0.36,0.34 v 8.06 c 0,4.13 2.33,5.22 5.21,5.22 2.88,0 5.23,-1.09 5.23,-5.22 m -15.85,1.09 c 0,1 -0.6,1.59 -2.47,1.59 h -1.48 v -3.4 h 2 c 1.45,0 1.92,0.74 1.92,1.61 z m -0.08,-5.4 c 0,0.78 -0.41,1.43 -1.84,1.43 h -2 v -3.13 c 0.25,0 1.09,0 1.38,0 1.86,0 2.49,0.45 2.49,1.45 z m 3.08,5.47 v -0.27 a 2.89,2.89 0 0 0 -1.61,-2.68 2.87,2.87 0 0 0 1.52,-2.66 v -0.33 c 0,-2.88 -2.3,-3.78 -5.72,-3.78 a 28.12,28.12 0 0 0 -3.24,0.2 c -0.7,0.1 -1,0.36 -1,1.17 v 11 c 0,0.82 0.27,1 1,1.18 a 22.28,22.28 0 0 0 3.31,0.22 c 3.13,0 5.7,-0.87 5.7,-4.06 M 227.5,82.73 V 70.3 a 0.35,0.35 0 0 0 -0.36,-0.34 H 225 a 0.35,0.35 0 0 0 -0.36,0.34 V 78 c 0,0.13 -0.06,0.17 -0.1,0.17 -0.04,0 -0.07,0 -0.14,-0.15 l -4.29,-7.46 C 219.89,70.18 219.71,70 219.35,70 h -1.83 a 0.69,0.69 0 0 0 -0.69,0.69 v 12.4 a 0.37,0.37 0 0 0 0.37,0.36 h 2.13 a 0.36,0.36 0 0 0 0.36,-0.36 v -7.37 c 0,-0.11 0,-0.15 0.09,-0.15 0.09,0 0.09,0 0.16,0.15 l 4.13,7.13 a 0.94,0.94 0 0 0 0.95,0.56 h 1.77 a 0.69,0.69 0 0 0 0.7,-0.68 M 214.2,83 v -1.72 a 0.36,0.36 0 0 0 -0.36,-0.36 h -3.68 c -0.85,0 -1.15,-0.29 -1.15,-1.23 v -1.93 h 4.68 a 0.36,0.36 0 0 0 0.36,-0.36 v -1.72 a 0.36,0.36 0 0 0 -0.36,-0.36 H 209 v -1.65 c 0,-0.94 0.3,-1.23 1.15,-1.23 h 3.68 a 0.36,0.36 0 0 0 0.36,-0.36 V 70.4 c 0,-0.24 -0.11,-0.33 -0.36,-0.37 a 21.46,21.46 0 0 0 -3.5,-0.23 c -2.33,0 -4.41,0.58 -4.41,3.87 v 6 c 0,3.29 2.06,3.89 4.4,3.89 a 21.3,21.3 0 0 0 3.51,-0.24 c 0.25,0 0.36,-0.14 0.36,-0.38 m -13.86,-5.1 c 0,2.44 -1.05,3.09 -2.68,3.09 -0.46,0 -1,0 -1.29,0 v -8.47 c 0.25,0 0.83,0 1.29,0 1.63,0 2.68,0.65 2.68,3.1 z m 3.09,0 v -2.32 c 0,-3.82 -2.17,-5.72 -5.77,-5.72 a 26.66,26.66 0 0 0 -3.86,0.27 0.54,0.54 0 0 0 -0.52,0.63 v 12 a 0.55,0.55 0 0 0 0.52,0.64 28.19,28.19 0 0 0 3.86,0.27 c 3.6,0 5.77,-1.9 5.77,-5.72 M 191.25,83 v -1.72 a 0.36,0.36 0 0 0 -0.36,-0.36 h -3.12 c -0.85,0 -1.16,-0.29 -1.16,-1.23 v -9.37 a 0.36,0.36 0 0 0 -0.36,-0.36 h -2.37 a 0.36,0.36 0 0 0 -0.36,0.36 v 9.37 c 0,3.29 2.08,3.89 4.42,3.89 a 18.28,18.28 0 0 0 2.95,-0.24 c 0.25,0 0.36,-0.14 0.36,-0.38 m -13.43,-5.19 c 0,2.17 -0.72,3.09 -2.25,3.09 -1.53,0 -2.22,-0.92 -2.22,-3.09 v -2.16 c 0,-2.17 0.7,-3.1 2.22,-3.1 1.52,0 2.25,0.93 2.25,3.1 z m 3.11,0 v -2.16 c 0,-4.2 -2.37,-5.81 -5.36,-5.81 -2.99,0 -5.35,1.61 -5.35,5.81 v 2.16 c 0,4.2 2.37,5.81 5.35,5.81 2.98,0 5.36,-1.61 5.36,-5.81"
             fill="#ffffff"
             id="path24717"
             style="fill:#004867;fill-opacity:0.99215686;stroke-width:0.594596" /><path
             d="m 141.68,73.76 a 0.28,0.28 0 0 0 -0.29,-0.3 h -1 a 0.35,0.35 0 0 0 -0.34,0.27 L 137.83,82 h -0.29 c -0.13,0 -0.26,0 -0.35,-0.39 l -2.13,-7.86 a 0.37,0.37 0 0 0 -0.31,-0.29 h -1 a 0.28,0.28 0 0 0 -0.32,0.3 0.3,0.3 0 0 0 0,0.13 l 2.4,8.28 c 0.33,1.12 0.8,1.24 1.34,1.24 h 0.26 l -0.18,0.75 c -0.31,1.27 -0.77,1.54 -1.8,1.54 -0.39,0 -1.21,-0.07 -1.61,-0.11 h -0.05 c -0.2,0 -0.35,0.09 -0.35,0.29 v 0.67 c 0,0.18 0.17,0.23 0.38,0.29 a 7.65,7.65 0 0 0 1.53,0.16 c 2.08,0 2.75,-0.72 3.31,-2.68 l 3,-10.43 a 0.3,0.3 0 0 0 0,-0.13 m -10,9.38 v -0.63 c 0,-0.18 -0.12,-0.25 -0.38,-0.25 h -1 c -0.73,0 -1,-0.15 -1,-1.14 v -6.33 h 2 a 0.36,0.36 0 0 0 0.36,-0.36 v -0.61 a 0.36,0.36 0 0 0 -0.36,-0.36 h -2 v -2 a 0.29,0.29 0 0 0 -0.27,-0.31 h -0.06 l -0.93,0.15 a 0.37,0.37 0 0 0 -0.33,0.36 v 1.78 h -1.76 a 0.31,0.31 0 0 0 -0.34,0.32 v 0.49 a 0.33,0.33 0 0 0 0.34,0.33 l 1.76,0.19 v 6.33 c 0,2 0.8,2.42 2.46,2.42 a 8.12,8.12 0 0 0 1.18,-0.09 c 0.23,0 0.32,-0.14 0.32,-0.31 m -8.59,-0.09 v -9.21 a 0.36,0.36 0 0 0 -0.36,-0.36 h -0.87 a 0.36,0.36 0 0 0 -0.36,0.36 v 9.23 a 0.36,0.36 0 0 0 0.36,0.36 h 0.87 a 0.36,0.36 0 0 0 0.36,-0.36 m 0,-11.55 v -1.45 a 0.36,0.36 0 0 0 -0.36,-0.36 h -0.93 a 0.36,0.36 0 0 0 -0.36,0.36 v 1.45 a 0.36,0.36 0 0 0 0.36,0.36 h 0.93 a 0.36,0.36 0 0 0 0.36,-0.36 m -4.59,9.42 c 0,-1.07 -0.49,-1.85 -2,-2.74 l -1.79,-1.07 c -0.84,-0.49 -1.25,-0.83 -1.25,-1.37 0,-0.93 0.66,-1.06 1.68,-1.06 1.02,0 2.17,0.1 2.8,0.15 H 118 a 0.28,0.28 0 0 0 0.31,-0.31 v -0.59 c 0,-0.2 -0.11,-0.33 -0.35,-0.37 a 17.49,17.49 0 0 0 -2.82,-0.23 c -1.87,0 -3.28,0.52 -3.28,2.41 a 3.1,3.1 0 0 0 1.85,2.59 l 1.83,1.08 c 1,0.62 1.36,1 1.36,1.51 0,1 -0.62,1.28 -1.8,1.28 -0.65,0 -2,-0.09 -2.84,-0.2 h -0.07 a 0.3,0.3 0 0 0 -0.33,0.28 v 0.63 c 0,0.2 0.15,0.31 0.38,0.36 a 13.85,13.85 0 0 0 2.86,0.27 c 2,0 3.39,-0.78 3.39,-2.62 m -8.65,-6.52 v -0.75 c 0,-0.21 -0.12,-0.32 -0.38,-0.32 a 4.3,4.3 0 0 0 -2.55,0.87 v -0.38 a 0.35,0.35 0 0 0 -0.34,-0.36 h -0.85 a 0.35,0.35 0 0 0 -0.35,0.36 v 9.23 a 0.36,0.36 0 0 0 0.35,0.36 h 0.88 a 0.37,0.37 0 0 0 0.36,-0.36 v -7.58 a 4.62,4.62 0 0 1 2.5,-0.77 c 0.26,0 0.38,-0.1 0.38,-0.3 M 101,77.73 h -4.8 v -0.16 c 0,-2 0.87,-2.85 2.43,-2.85 1.56,0 2.37,0.8 2.37,2.85 z m 1.61,0.81 v -1 c 0,-2.58 -1.34,-4.24 -4,-4.24 -2.66,0 -4,1.64 -4,4.24 v 1.62 c 0,3.37 2,4.35 4.11,4.35 a 16.27,16.27 0 0 0 3.24,-0.31 c 0.29,0 0.36,-0.18 0.36,-0.41 V 82.2 c 0,-0.18 -0.14,-0.25 -0.29,-0.25 h -0.09 a 24.16,24.16 0 0 1 -3.22,0.2 c -1.66,0 -2.52,-0.8 -2.52,-3 V 78.9 h 6.07 c 0.22,0 0.34,-0.16 0.34,-0.4 m -9.87,-4.78 a 0.28,0.28 0 0 0 -0.29,-0.3 h -1 c -0.14,0 -0.27,0.1 -0.34,0.34 L 89,81.7 c -0.11,0.43 -0.22,0.52 -0.38,0.52 -0.16,0 -0.27,-0.09 -0.38,-0.52 l -2.09,-7.9 c -0.07,-0.24 -0.2,-0.34 -0.34,-0.34 h -1 a 0.27,0.27 0 0 0 -0.28,0.3 0.62,0.62 0 0 0 0,0.13 L 87,82.51 c 0.23,0.81 0.85,1 1.63,1 a 1.46,1.46 0 0 0 1.63,-1 l 2.44,-8.62 a 0.32,0.32 0 0 0 0,-0.13 m -11,9.29 v -9.23 a 0.36,0.36 0 0 0 -0.36,-0.36 h -0.87 a 0.36,0.36 0 0 0 -0.36,0.36 v 9.23 a 0.36,0.36 0 0 0 0.36,0.36 h 0.87 a 0.36,0.36 0 0 0 0.36,-0.36 m 0,-11.55 V 70.05 A 0.36,0.36 0 0 0 81.34,69.69 H 80.5 a 0.36,0.36 0 0 0 -0.36,0.36 v 1.45 a 0.36,0.36 0 0 0 0.36,0.36 h 0.92 a 0.36,0.36 0 0 0 0.36,-0.36 m -4.92,11.55 v -6 c 0,-2.41 -1,-3.76 -3.14,-3.76 a 5.45,5.45 0 0 0 -2.88,0.83 v -0.34 a 0.35,0.35 0 0 0 -0.35,-0.36 h -0.9 a 0.34,0.34 0 0 0 -0.34,0.36 v 9.23 a 0.35,0.35 0 0 0 0.34,0.36 h 0.88 a 0.38,0.38 0 0 0 0.37,-0.36 v -7.6 a 5.67,5.67 0 0 1 2.44,-0.71 c 1.38,0 2,0.57 2,2.39 v 6 a 0.36,0.36 0 0 0 0.36,0.36 h 0.87 a 0.36,0.36 0 0 0 0.36,-0.36 M 66,78.53 V 70.3 a 0.34,0.34 0 0 0 -0.34,-0.34 h -1 a 0.34,0.34 0 0 0 -0.34,0.34 v 8.23 c 0,2.35 -0.73,3.6 -3,3.6 -2.27,0 -3,-1.27 -3,-3.6 V 70.3 a 0.35,0.35 0 0 0 -0.35,-0.34 h -1 a 0.35,0.35 0 0 0 -0.35,0.34 v 8.23 c 0,3.46 1.7,5 4.64,5 2.94,0 4.74,-1.53 4.74,-5 m -18.37,-0.8 h -4.8 v -0.16 c 0,-2 0.87,-2.85 2.43,-2.85 1.56,0 2.37,0.8 2.37,2.85 z m 1.61,0.81 v -1 c 0,-2.58 -1.34,-4.24 -4,-4.24 -2.66,0 -4,1.64 -4,4.24 v 1.62 c 0,3.37 2,4.35 4.11,4.35 a 16.35,16.35 0 0 0 3.24,-0.31 c 0.29,0 0.36,-0.18 0.36,-0.41 V 82.2 A 0.26,0.26 0 0 0 48.66,81.95 H 48.6 a 24.16,24.16 0 0 1 -3.22,0.2 c -1.67,0 -2.52,-0.8 -2.52,-3 V 78.9 h 6.06 c 0.22,0 0.35,-0.16 0.35,-0.4 M 38.5,83.05 v -6 c 0,-2.66 -1.33,-3.76 -3.25,-3.76 a 7.56,7.56 0 0 0 -2.77,0.56 V 70.16 A 0.35,0.35 0 0 0 32.13,69.8 h -0.9 a 0.34,0.34 0 0 0 -0.34,0.36 v 12.89 a 0.35,0.35 0 0 0 0.34,0.36 h 0.88 a 0.38,0.38 0 0 0 0.37,-0.36 v -7.82 a 7,7 0 0 1 2.5,-0.51 c 1.17,0 1.93,0.56 1.93,2.37 v 6 a 0.36,0.36 0 0 0 0.36,0.36 h 0.87 a 0.36,0.36 0 0 0 0.36,-0.36 m -9.66,0.09 v -0.63 c 0,-0.18 -0.39,-0.25 -0.65,-0.25 h -1 c -0.72,0 -1,-0.15 -1,-1.14 v -6.37 h 2 c 0.2,0 0.62,-0.16 0.62,-0.36 v -0.61 c 0,-0.2 -0.42,-0.36 -0.62,-0.36 h -2 v -2 a 0.29,0.29 0 0 0 -0.27,-0.31 h -0.05 l -0.94,0.15 a 0.37,0.37 0 0 0 -0.33,0.36 v 1.78 h -1.74 a 0.32,0.32 0 0 0 -0.35,0.32 v 0.49 c 0,0.2 0.15,0.31 0.35,0.33 l 1.75,0.19 v 6.33 c 0,2 0.8,2.42 2.46,2.42 a 7.91,7.91 0 0 0 1.18,-0.09 c 0.23,0 0.59,-0.14 0.59,-0.31 m -13,0 v -0.63 c 0,-0.18 -0.12,-0.25 -0.38,-0.25 h -1 c -0.73,0 -1,-0.15 -1,-1.14 v -6.31 h 2 a 0.36,0.36 0 0 0 0.36,-0.36 v -0.61 a 0.36,0.36 0 0 0 -0.36,-0.36 h -2 v -2 A 0.29,0.29 0 0 0 13.19,71.15 H 13.14 L 12.2,71.3 a 0.37,0.37 0 0 0 -0.33,0.36 v 1.78 h -1.71 a 0.31,0.31 0 0 0 -0.34,0.32 v 0.49 a 0.33,0.33 0 0 0 0.34,0.33 l 1.76,0.19 v 6.33 c 0,2 0.79,2.42 2.46,2.42 a 8.12,8.12 0 0 0 1.18,-0.09 c 0.23,0 0.32,-0.14 0.32,-0.31 M 6.35,81.51 a 4.89,4.89 0 0 1 -2.44,0.73 c -1.05,0 -1.67,-0.35 -1.67,-1.65 v -0.22 c 0,-1.28 0.58,-1.77 2.77,-1.77 h 1.34 z m 1.59,1.54 v -6.32 c 0,-2.13 -1,-3.4 -3.53,-3.4 a 16.24,16.24 0 0 0 -2.8,0.23 c -0.26,0 -0.38,0.15 -0.38,0.35 v 0.63 c 0,0.24 0.16,0.29 0.32,0.29 h 0.09 a 27,27 0 0 1 2.77,-0.15 c 1.42,0 1.94,0.53 1.94,2 v 0.73 H 5 c -3.22,0 -4.36,1 -4.36,2.93 v 0.22 a 2.64,2.64 0 0 0 3,2.93 5.51,5.51 0 0 0 2.79,-0.89 V 83 a 0.36,0.36 0 0 0 0.36,0.36 H 7.62 A 0.36,0.36 0 0 0 7.98,83 Z"
             fill="#ffffff"
             id="path24719"
             style="fill:#004867;fill-opacity:0.99215686;stroke-width:0.594596" /><path
             d="m 278.82,50 a 0.28,0.28 0 0 0 -0.29,-0.31 h -1 a 0.38,0.38 0 0 0 -0.34,0.27 L 275,58.2 h -0.29 c -0.12,0 -0.25,0 -0.34,-0.4 l -2.14,-7.86 a 0.36,0.36 0 0 0 -0.31,-0.29 h -1 a 0.29,0.29 0 0 0 -0.33,0.31 0.25,0.25 0 0 0 0,0.12 l 2.41,8.28 c 0.33,1.12 0.8,1.25 1.34,1.25 h 0.25 l -0.18,0.74 c -0.31,1.27 -0.76,1.54 -1.79,1.54 -0.4,0 -1.21,-0.07 -1.61,-0.11 h -0.06 c -0.2,0 -0.34,0.09 -0.34,0.29 v 0.67 c 0,0.18 0.16,0.24 0.38,0.29 a 7.54,7.54 0 0 0 1.52,0.16 c 2.08,0 2.75,-0.72 3.31,-2.68 l 3,-10.43 a 0.25,0.25 0 0 0 0,-0.12 M 269,59.34 v -0.63 c 0,-0.19 -0.12,-0.26 -0.38,-0.26 h -1 c -0.73,0 -1,-0.14 -1,-1.14 V 51 h 2 a 0.36,0.36 0 0 0 0.36,-0.36 V 50 a 0.36,0.36 0 0 0 -0.36,-0.36 h -2 v -2 a 0.28,0.28 0 0 0 -0.27,-0.31 v 0 l -0.94,0.14 a 0.38,0.38 0 0 0 -0.33,0.37 v 1.77 h -1.75 A 0.33,0.33 0 0 0 263,50 v 0.48 c 0,0.2 0.15,0.31 0.35,0.33 l 1.75,0.2 v 6.32 c 0,2 0.8,2.43 2.46,2.43 a 9.67,9.67 0 0 0 1.18,-0.09 c 0.23,0 0.32,-0.15 0.32,-0.31 m -8.32,-0.09 V 50 a 0.37,0.37 0 0 0 -0.37,-0.36 h -0.86 A 0.36,0.36 0 0 0 259.15,50 v 9.24 a 0.36,0.36 0 0 0 0.36,0.36 h 0.86 a 0.37,0.37 0 0 0 0.37,-0.36 m 0,-11.56 v -1.43 a 0.37,0.37 0 0 0 -0.36,-0.37 h -0.92 a 0.37,0.37 0 0 0 -0.36,0.37 v 1.44 a 0.36,0.36 0 0 0 0.36,0.36 h 0.92 a 0.36,0.36 0 0 0 0.36,-0.36 m -4.32,9.42 c 0,-1.07 -0.49,-1.85 -2,-2.73 l -1.8,-1.07 c -0.83,-0.49 -1.25,-0.84 -1.25,-1.38 0,-0.92 0.68,-1 1.69,-1 1.01,0 2.17,0.09 2.8,0.14 h 0.06 a 0.28,0.28 0 0 0 0.31,-0.3 v -0.6 c 0,-0.2 -0.11,-0.33 -0.35,-0.36 a 16.38,16.38 0 0 0 -2.82,-0.24 c -1.87,0 -3.28,0.53 -3.28,2.41 a 3.1,3.1 0 0 0 1.85,2.59 l 1.83,1.09 c 1,0.61 1.36,1 1.36,1.5 0,1 -0.62,1.29 -1.8,1.29 -0.65,0 -2,-0.09 -2.84,-0.2 h -0.07 a 0.3,0.3 0 0 0 -0.33,0.27 v 0.63 c 0,0.2 0.15,0.31 0.38,0.36 a 13.92,13.92 0 0 0 2.86,0.28 c 2,0 3.39,-0.78 3.39,-2.63 m -8.38,-6.52 V 49.9 c 0,-0.22 -0.13,-0.33 -0.38,-0.33 a 4.37,4.37 0 0 0 -2.56,0.87 V 50 a 0.34,0.34 0 0 0 -0.34,-0.36 H 243.9 A 0.34,0.34 0 0 0 243.56,50 v 9.24 a 0.35,0.35 0 0 0 0.34,0.36 h 0.89 a 0.38,0.38 0 0 0 0.36,-0.36 v -7.58 a 4.55,4.55 0 0 1 2.5,-0.76 c 0.25,0 0.38,-0.11 0.38,-0.31 m -8.62,3.33 h -4.8 v -0.16 c 0,-2 0.87,-2.84 2.43,-2.84 1.56,0 2.37,0.79 2.37,2.84 z m 1.61,0.82 v -1 c 0,-2.57 -1.34,-4.24 -4,-4.24 -2.66,0 -4,1.65 -4,4.24 v 1.63 c 0,3.37 2,4.35 4.11,4.35 a 16.35,16.35 0 0 0 3.24,-0.31 c 0.29,-0.06 0.36,-0.18 0.36,-0.42 V 58.4 a 0.26,0.26 0 0 0 -0.29,-0.26 h -0.09 a 24.16,24.16 0 0 1 -3.22,0.2 c -1.67,0 -2.52,-0.79 -2.52,-3 v -0.26 h 6.07 c 0.22,0 0.34,-0.16 0.34,-0.39 M 231.43,50 a 0.28,0.28 0 0 0 -0.29,-0.31 h -1 c -0.15,0 -0.28,0.11 -0.35,0.34 l -2.08,7.9 c -0.11,0.43 -0.22,0.53 -0.38,0.53 -0.16,0 -0.27,-0.1 -0.38,-0.53 L 224.88,50 c -0.07,-0.23 -0.2,-0.34 -0.35,-0.34 h -1 a 0.28,0.28 0 0 0 -0.29,0.31 0.3,0.3 0 0 0 0,0.12 l 2.44,8.63 a 1.8,1.8 0 0 0 3.26,0 l 2.44,-8.63 a 0.3,0.3 0 0 0 0,-0.12 m -10.7,9.29 V 50 a 0.36,0.36 0 0 0 -0.36,-0.36 h -0.87 A 0.36,0.36 0 0 0 219.09,50 v 9.24 a 0.36,0.36 0 0 0 0.36,0.36 h 0.87 a 0.36,0.36 0 0 0 0.36,-0.36 m 0,-11.56 v -1.43 a 0.37,0.37 0 0 0 -0.36,-0.37 h -0.92 a 0.38,0.38 0 0 0 -0.37,0.37 v 1.44 a 0.37,0.37 0 0 0 0.37,0.36 h 0.92 a 0.36,0.36 0 0 0 0.36,-0.36 m -6.24,10.54 c -0.62,0.06 -1.51,0.11 -2.12,0.11 -1.8,0 -2.36,-1.1 -2.36,-3.08 V 54 c 0,-1.94 0.58,-3 2.36,-3 a 13.85,13.85 0 0 1 2.12,0.12 z m 1.59,0.78 V 46.34 a 0.34,0.34 0 0 0 -0.33,-0.35 h -0.92 a 0.35,0.35 0 0 0 -0.34,0.35 v 3.36 a 14.09,14.09 0 0 0 -2.12,-0.18 c -2.65,0 -3.95,1.59 -3.95,4.44 v 1.3 c 0,2.72 1.25,4.48 3.95,4.48 a 17.2,17.2 0 0 0 3.33,-0.31 c 0.32,-0.06 0.38,-0.18 0.38,-0.42 M 204.7,55.32 c 0,1.86 -0.76,3 -2.45,3 -1.69,0 -2.42,-1.17 -2.42,-3 v -1.38 c 0,-1.87 0.74,-3 2.42,-3 1.68,0 2.45,1.17 2.45,3 z m 1.59,0 v -1.38 c 0,-2.66 -1.38,-4.42 -4,-4.42 -2.62,0 -4,1.76 -4,4.42 v 1.38 c 0,2.66 1.36,4.42 4,4.42 2.64,0 4,-1.76 4,-4.42 m -10.77,3.93 V 50 a 0.36,0.36 0 0 0 -0.36,-0.36 h -0.87 A 0.36,0.36 0 0 0 193.93,50 v 9.24 a 0.36,0.36 0 0 0 0.36,0.36 h 0.87 a 0.36,0.36 0 0 0 0.36,-0.36 m 0,-11.56 v -1.43 a 0.37,0.37 0 0 0 -0.36,-0.37 h -0.92 a 0.37,0.37 0 0 0 -0.36,0.37 v 1.44 a 0.36,0.36 0 0 0 0.36,0.36 h 0.92 a 0.36,0.36 0 0 0 0.36,-0.36 m -6,8.22 c 0,2 -1.39,2.43 -3.64,2.43 -0.63,0 -1.28,-0.05 -1.88,-0.07 v -5 h 2.79 c 2.14,0 2.73,1.1 2.73,2.29 z m -0.07,-6.09 c 0,1.15 -0.56,2.17 -2.66,2.17 H 184 v -4.51 c 0.51,0 1.18,-0.06 1.79,-0.06 2.21,0 3.66,0.36 3.66,2.11 z m 1.72,6.09 V 55.6 a 3,3 0 0 0 -2,-2.93 2.9,2.9 0 0 0 1.94,-2.85 v -0.29 c 0,-2.74 -2.43,-3.5 -5.31,-3.5 a 27.42,27.42 0 0 0 -2.87,0.14 0.59,0.59 0 0 0 -0.58,0.67 V 58.9 c 0,0.46 0.18,0.62 0.59,0.67 a 20.7,20.7 0 0 0 2.95,0.17 c 2.83,0 5.29,-0.8 5.29,-3.83 m -18,-2 h -4.8 v -0.16 c 0,-2 0.87,-2.84 2.43,-2.84 1.56,0 2.37,0.79 2.37,2.84 z m 1.61,0.82 v -1 c 0,-2.57 -1.34,-4.24 -4,-4.24 -2.66,0 -4,1.65 -4,4.24 v 1.63 c 0,3.37 2,4.35 4.11,4.35 a 16.35,16.35 0 0 0 3.24,-0.31 c 0.29,-0.06 0.36,-0.18 0.36,-0.42 V 58.4 a 0.26,0.26 0 0 0 -0.29,-0.26 h -0.09 a 24.16,24.16 0 0 1 -3.22,0.2 c -1.67,0 -2.52,-0.79 -2.52,-3 v -0.26 h 6.06 a 0.35,0.35 0 0 0 0.35,-0.39 m -10.5,4.51 v -6 c 0,-2.41 -1,-3.77 -3.15,-3.77 a 5.47,5.47 0 0 0 -2.88,0.83 V 50 a 0.34,0.34 0 0 0 -0.34,-0.36 h -0.91 A 0.35,0.35 0 0 0 156.67,50 v 9.24 a 0.35,0.35 0 0 0 0.34,0.36 H 158 a 0.37,0.37 0 0 0 0.36,-0.36 v -7.63 a 5.74,5.74 0 0 1 2.45,-0.71 c 1.37,0 2,0.56 2,2.39 v 6 a 0.36,0.36 0 0 0 0.36,0.36 H 164 a 0.36,0.36 0 0 0 0.36,-0.36 m -10.66,0 V 50 a 0.36,0.36 0 0 0 -0.36,-0.36 h -0.87 A 0.36,0.36 0 0 0 152.11,50 v 9.24 a 0.36,0.36 0 0 0 0.36,0.36 h 0.87 a 0.36,0.36 0 0 0 0.36,-0.36 m 0,-11.56 v -1.43 a 0.37,0.37 0 0 0 -0.36,-0.37 h -0.92 a 0.37,0.37 0 0 0 -0.36,0.37 v 1.44 a 0.36,0.36 0 0 0 0.36,0.36 h 0.92 a 0.36,0.36 0 0 0 0.36,-0.36 m -3.91,2.9 v -0.74 c 0,-0.22 -0.12,-0.33 -0.38,-0.33 a 4.37,4.37 0 0 0 -2.55,0.87 V 50 a 0.34,0.34 0 0 0 -0.34,-0.36 h -0.85 A 0.34,0.34 0 0 0 145.33,50 v 9.24 a 0.35,0.35 0 0 0 0.34,0.36 h 0.88 a 0.38,0.38 0 0 0 0.37,-0.36 v -7.58 a 4.54,4.54 0 0 1 2.49,-0.76 c 0.26,0 0.38,-0.11 0.38,-0.31 m -8.88,7.12 a 5,5 0 0 1 -2.44,0.72 c -1.06,0 -1.67,-0.34 -1.67,-1.64 v -0.22 c 0,-1.29 0.58,-1.78 2.77,-1.78 h 1.34 z m 1.59,1.54 v -6.32 c 0,-2.14 -1,-3.41 -3.53,-3.41 a 15.35,15.35 0 0 0 -2.81,0.24 c -0.25,0 -0.37,0.14 -0.37,0.34 v 0.64 c 0,0.23 0.16,0.28 0.32,0.28 h 0.09 a 27.13,27.13 0 0 1 2.77,-0.14 c 1.41,0 1.94,0.53 1.94,2 v 0.72 h -1.34 c -3.22,0 -4.36,1 -4.36,2.94 v 0.21 a 2.64,2.64 0 0 0 3,2.94 5.51,5.51 0 0 0 2.79,-0.89 v 0.4 a 0.36,0.36 0 0 0 0.36,0.36 h 0.83 a 0.36,0.36 0 0 0 0.33,-0.31 z m -9.92,0 V 46.68 a 0.52,0.52 0 0 0 -0.52,-0.52 h -1.16 c -0.32,0 -0.47,0.07 -0.58,0.3 l -3,6.21 c -0.08,0.17 -0.13,0.2 -0.22,0.2 -0.09,0 -0.15,0 -0.22,-0.2 l -3,-6.21 c -0.11,-0.23 -0.25,-0.3 -0.58,-0.3 h -1.17 a 0.52,0.52 0 0 0 -0.53,0.52 v 12.57 a 0.37,0.37 0 0 0 0.37,0.36 h 0.88 a 0.36,0.36 0 0 0 0.36,-0.36 V 48.51 c 0,0 0,-0.06 0,-0.06 0,0 0,0 0,0 l 2.59,5.36 a 0.78,0.78 0 0 0 0.81,0.53 h 0.83 a 0.78,0.78 0 0 0 0.82,-0.53 l 2.59,-5.36 c 0,0 0,0 0,0 0,0 0,0 0,0.06 v 10.74 a 0.36,0.36 0 0 0 0.36,0.36 h 0.89 a 0.36,0.36 0 0 0 0.36,-0.36 m -19,0 V 46.34 a 0.33,0.33 0 0 0 -0.32,-0.35 h -0.94 a 0.34,0.34 0 0 0 -0.33,0.35 v 12.91 a 0.35,0.35 0 0 0 0.33,0.36 h 0.94 a 0.34,0.34 0 0 0 0.32,-0.36 m -6.18,-1.54 a 5,5 0 0 1 -2.45,0.72 c -1,0 -1.67,-0.34 -1.67,-1.64 v -0.22 c 0,-1.29 0.58,-1.78 2.77,-1.78 h 1.35 z m 1.72,1.54 v -6.32 c 0,-2.14 -1,-3.41 -3.53,-3.41 a 15.27,15.27 0 0 0 -2.81,0.24 c -0.25,0 -0.38,0.14 -0.38,0.34 v 0.64 c 0,0.23 0.17,0.28 0.33,0.28 h 0.09 a 27.13,27.13 0 0 1 2.77,-0.14 c 1.41,0 1.94,0.53 1.94,2 v 0.72 h -1.35 c -3.22,0 -4.36,1 -4.36,2.94 v 0.21 a 2.64,2.64 0 0 0 3,2.94 5.48,5.48 0 0 0 2.79,-0.89 v 0.4 a 0.36,0.36 0 0 0 0.36,0.36 h 0.83 A 0.37,0.37 0 0 0 109,59.25 Z m -9.76,0 v -6 c 0,-2.41 -1,-3.77 -3.15,-3.77 a 5.47,5.47 0 0 0 -2.88,0.83 V 50 A 0.34,0.34 0 0 0 92.87,49.64 H 92 A 0.35,0.35 0 0 0 91.66,50 v 9.24 A 0.35,0.35 0 0 0 92,59.6 h 0.89 a 0.37,0.37 0 0 0 0.36,-0.36 V 51.61 A 5.74,5.74 0 0 1 95.7,50.9 c 1.37,0 2,0.56 2,2.39 v 6 a 0.36,0.36 0 0 0 0.36,0.36 h 0.87 a 0.36,0.36 0 0 0 0.36,-0.36 M 87.55,55.32 c 0,1.86 -0.76,3 -2.44,3 -1.68,0 -2.43,-1.17 -2.43,-3 v -1.38 c 0,-1.87 0.74,-3 2.43,-3 1.69,0 2.44,1.17 2.44,3 z m 1.59,0 v -1.38 c 0,-2.66 -1.37,-4.42 -4,-4.42 -2.63,0 -4,1.76 -4,4.42 v 1.38 c 0,2.66 1.35,4.42 4,4.42 2.65,0 4,-1.76 4,-4.42 M 78.37,59.25 V 50 A 0.36,0.36 0 0 0 78.01,49.64 H 77.14 A 0.36,0.36 0 0 0 76.78,50 v 9.24 a 0.36,0.36 0 0 0 0.36,0.36 H 78 a 0.36,0.36 0 0 0 0.36,-0.36 m 0,-11.56 V 46.25 A 0.37,0.37 0 0 0 78,45.88 h -0.92 a 0.38,0.38 0 0 0 -0.37,0.37 v 1.44 a 0.37,0.37 0 0 0 0.37,0.36 H 78 a 0.36,0.36 0 0 0 0.36,-0.36 m -3.83,11.65 v -0.63 c 0,-0.19 -0.12,-0.26 -0.38,-0.26 h -1 c -0.72,0 -1,-0.14 -1,-1.14 V 51 h 2 a 0.36,0.36 0 0 0 0.36,-0.36 V 50 a 0.36,0.36 0 0 0 -0.36,-0.36 h -2 v -2 a 0.28,0.28 0 0 0 -0.27,-0.31 v 0 l -0.94,0.14 a 0.38,0.38 0 0 0 -0.33,0.37 v 1.77 h -1.79 a 0.33,0.33 0 0 0 -0.35,0.33 v 0.48 c 0,0.2 0.15,0.31 0.35,0.33 l 1.75,0.2 v 6.32 c 0,2 0.8,2.43 2.46,2.43 a 9.52,9.52 0 0 0 1.18,-0.09 c 0.23,0 0.32,-0.15 0.32,-0.31 m -7.67,-0.2 v -0.65 a 0.28,0.28 0 0 0 -0.31,-0.27 h -0.07 a 17.82,17.82 0 0 1 -2.24,0.12 c -1.47,0 -2.27,-1 -2.27,-3 v -1.38 c 0,-2 0.82,-3 2.27,-3 a 17.82,17.82 0 0 1 2.24,0.12 h 0.07 a 0.28,0.28 0 0 0 0.31,-0.27 v -0.65 c 0,-0.25 -0.07,-0.34 -0.36,-0.4 a 13.17,13.17 0 0 0 -2.26,-0.2 c -2.48,0 -3.86,1.74 -3.86,4.4 v 1.42 c 0,2.66 1.39,4.4 3.86,4.4 a 13,13 0 0 0 2.26,-0.2 c 0.29,-0.06 0.36,-0.17 0.36,-0.4 m -9,0.11 v -6 c 0,-2.41 -1,-3.77 -3.15,-3.77 a 5.47,5.47 0 0 0 -2.88,0.83 V 50 a 0.34,0.34 0 0 0 -0.34,-0.36 h -0.9 A 0.35,0.35 0 0 0 50.24,50 v 9.24 a 0.36,0.36 0 0 0 0.35,0.36 h 0.88 a 0.37,0.37 0 0 0 0.36,-0.36 v -7.63 a 5.74,5.74 0 0 1 2.45,-0.71 c 1.38,0 2,0.56 2,2.39 v 6 a 0.36,0.36 0 0 0 0.36,0.36 h 0.87 a 0.36,0.36 0 0 0 0.36,-0.36 m -10.44,0 V 50 A 0.36,0.36 0 0 0 47.08,49.64 H 46.2 A 0.37,0.37 0 0 0 45.84,50 v 7.64 a 5.74,5.74 0 0 1 -2.45,0.71 c -1.37,0 -2,-0.56 -2,-2.39 V 50 A 0.36,0.36 0 0 0 41.03,49.64 H 40.16 A 0.36,0.36 0 0 0 39.8,50 v 6 c 0,2.41 1,3.77 3.15,3.77 a 5.49,5.49 0 0 0 2.88,-0.84 v 0.35 a 0.34,0.34 0 0 0 0.34,0.36 h 0.9 a 0.35,0.35 0 0 0 0.37,-0.39 z M 37.23,53 V 52.32 A 0.37,0.37 0 0 0 36.87,51.95 H 31.31 V 49.4 c 0,-1.38 0.31,-1.89 2.23,-1.89 H 37 a 0.19,0.19 0 0 0 0.2,-0.22 v -0.9 a 0.25,0.25 0 0 0 -0.18,-0.25 c -0.76,-0.08 -2.46,-0.11 -3.53,-0.11 -2.53,0 -3.85,1 -3.85,3.37 v 9.85 A 0.36,0.36 0 0 0 30,59.61 h 1 a 0.36,0.36 0 0 0 0.36,-0.36 v -5.93 h 5.56 a 0.36,0.36 0 0 0 0.36,-0.36 M 22.57,50.59 v -0.74 c 0,-0.22 -0.13,-0.33 -0.38,-0.33 a 4.32,4.32 0 0 0 -2.55,0.87 V 50 A 0.35,0.35 0 0 0 19.29,49.64 H 18.44 A 0.34,0.34 0 0 0 18.1,50 v 9.24 a 0.35,0.35 0 0 0 0.34,0.36 h 0.89 a 0.37,0.37 0 0 0 0.36,-0.36 v -7.58 a 4.6,4.6 0 0 1 2.5,-0.76 c 0.25,0 0.38,-0.11 0.38,-0.31 M 14,55.32 c 0,1.86 -0.76,3 -2.45,3 -1.69,0 -2.42,-1.17 -2.42,-3 v -1.38 c 0,-1.87 0.74,-3 2.42,-3 1.68,0 2.45,1.17 2.45,3 z m 1.59,0 v -1.38 c 0,-2.66 -1.38,-4.42 -4,-4.42 -2.62,0 -4,1.76 -4,4.42 v 1.38 c 0,2.66 1.35,4.42 4,4.42 2.65,0 4,-1.76 4,-4.42 m -9.38,-8.5 v -0.59 c 0,-0.17 -0.14,-0.24 -0.34,-0.29 a 4,4 0 0 0 -1,-0.11 c -1.59,0 -2.53,0.58 -2.53,2.52 v 1.3 H 0.58 A 0.33,0.33 0 0 0 0.23,50 v 0.48 a 0.35,0.35 0 0 0 0.35,0.33 l 1.75,0.2 v 8.26 a 0.38,0.38 0 0 0 0.36,0.36 H 3.58 A 0.37,0.37 0 0 0 3.92,59.27 V 51 h 1.9 A 0.32,0.32 0 0 0 6.17,50.69 V 50 A 0.33,0.33 0 0 0 5.82,49.67 h -1.9 v -1.3 c 0,-1 0.26,-1.26 1.11,-1.26 H 5.9 c 0.2,0 0.32,-0.07 0.32,-0.27"
             fill="#ffffff"
             id="path24721"
             style="fill:#004867;fill-opacity:0.99215686;stroke-width:0.594596" /><path
             d="m 298.39,30.12 h -4.8 V 30 c 0,-2 0.87,-2.85 2.43,-2.85 1.56,0 2.37,0.8 2.37,2.85 z M 300,30.93 V 30 c 0,-2.58 -1.34,-4.24 -4,-4.24 -2.66,0 -4,1.64 -4,4.24 v 1.62 c 0,3.37 2,4.35 4.11,4.35 a 16.35,16.35 0 0 0 3.24,-0.31 c 0.29,0 0.36,-0.18 0.36,-0.41 v -0.62 c 0,-0.18 -0.14,-0.25 -0.29,-0.25 h -0.09 a 26,26 0 0 1 -3.22,0.2 c -1.67,0 -2.52,-0.8 -2.52,-3 v -0.25 h 6.07 c 0.21,0 0.34,-0.16 0.34,-0.4 m -9.36,4.6 V 34.9 c 0,-0.18 -0.12,-0.25 -0.38,-0.25 h -1 c -0.72,0 -1,-0.15 -1,-1.15 v -6.32 h 2 a 0.36,0.36 0 0 0 0.36,-0.36 v -0.61 a 0.36,0.36 0 0 0 -0.36,-0.36 h -2 v -2 a 0.29,0.29 0 0 0 -0.27,-0.31 H 288 l -0.94,0.15 a 0.37,0.37 0 0 0 -0.33,0.36 v 1.78 h -1.76 a 0.32,0.32 0 0 0 -0.34,0.32 v 0.49 a 0.32,0.32 0 0 0 0.34,0.32 l 1.76,0.2 v 6.34 c 0,2 0.8,2.43 2.46,2.43 a 9.82,9.82 0 0 0 1.18,-0.09 c 0.23,0 0.32,-0.15 0.32,-0.31 m -7.74,-0.09 v -9.23 a 0.36,0.36 0 0 0 -0.35,-0.36 h -0.88 a 0.38,0.38 0 0 0 -0.37,0.36 v 7.64 a 5.64,5.64 0 0 1 -2.44,0.7 c -1.38,0 -2,-0.56 -2,-2.39 v -5.95 a 0.36,0.36 0 0 0 -0.36,-0.36 h -0.87 a 0.36,0.36 0 0 0 -0.36,0.36 v 5.95 c 0,2.41 1,3.77 3.15,3.77 a 5.44,5.44 0 0 0 2.87,-0.83 v 0.34 a 0.35,0.35 0 0 0 0.35,0.36 h 0.9 a 0.35,0.35 0 0 0 0.35,-0.36 z m -9.31,0.09 V 34.9 c 0,-0.18 -0.12,-0.25 -0.38,-0.25 h -1 c -0.73,0 -1,-0.15 -1,-1.15 v -6.32 h 2 a 0.36,0.36 0 0 0 0.36,-0.36 v -0.61 a 0.36,0.36 0 0 0 -0.36,-0.36 h -2 v -2 a 0.29,0.29 0 0 0 -0.27,-0.31 h -0.05 L 270,23.69 a 0.37,0.37 0 0 0 -0.33,0.36 v 1.78 h -1.76 a 0.31,0.31 0 0 0 -0.34,0.32 v 0.49 a 0.32,0.32 0 0 0 0.34,0.32 l 1.76,0.2 v 6.34 c 0,2 0.79,2.43 2.46,2.43 a 9.82,9.82 0 0 0 1.18,-0.09 c 0.23,0 0.32,-0.15 0.32,-0.31 m -8,-0.09 v -9.23 a 0.36,0.36 0 0 0 -0.36,-0.36 h -0.87 a 0.36,0.36 0 0 0 -0.36,0.36 v 9.23 a 0.36,0.36 0 0 0 0.36,0.36 h 0.87 a 0.36,0.36 0 0 0 0.36,-0.36 m 0,-11.55 v -1.45 a 0.36,0.36 0 0 0 -0.36,-0.36 h -0.92 a 0.36,0.36 0 0 0 -0.36,0.36 v 1.45 a 0.36,0.36 0 0 0 0.36,0.36 h 0.92 a 0.36,0.36 0 0 0 0.36,-0.36 m -3.51,11.64 V 34.9 c 0,-0.18 -0.12,-0.25 -0.38,-0.25 h -1 c -0.72,0 -1,-0.15 -1,-1.15 v -6.32 h 2 a 0.36,0.36 0 0 0 0.36,-0.36 v -0.61 a 0.36,0.36 0 0 0 -0.36,-0.36 h -2 v -2 a 0.29,0.29 0 0 0 -0.27,-0.31 h -0.05 l -0.94,0.15 a 0.37,0.37 0 0 0 -0.33,0.36 v 1.78 h -1.76 a 0.32,0.32 0 0 0 -0.34,0.32 v 0.49 a 0.32,0.32 0 0 0 0.34,0.32 l 1.76,0.2 v 6.34 c 0,2 0.8,2.43 2.46,2.43 a 9.82,9.82 0 0 0 1.18,-0.09 c 0.23,0 0.32,-0.15 0.32,-0.31 M 255,33.31 c 0,-1.07 -0.49,-1.85 -2,-2.74 l -1.8,-1.07 c -0.83,-0.49 -1.25,-0.83 -1.25,-1.38 0,-0.92 0.67,-1.05 1.69,-1.05 1.02,0 2.17,0.09 2.8,0.15 h 0.06 a 0.27,0.27 0 0 0 0.3,-0.31 v -0.6 c 0,-0.2 -0.1,-0.32 -0.34,-0.36 a 17.49,17.49 0 0 0 -2.82,-0.23 c -1.87,0 -3.28,0.52 -3.28,2.4 a 3.09,3.09 0 0 0 1.85,2.59 L 252,31.8 c 1,0.62 1.36,1 1.36,1.51 0,1 -0.62,1.28 -1.8,1.28 -0.65,0 -2,-0.09 -2.84,-0.2 h -0.07 a 0.3,0.3 0 0 0 -0.33,0.27 v 0.64 c 0,0.2 0.15,0.3 0.38,0.36 a 13.85,13.85 0 0 0 2.86,0.27 c 2,0 3.39,-0.78 3.39,-2.62 m -8.77,2.13 v -6 c 0,-2.41 -1,-3.76 -3.14,-3.76 a 5.45,5.45 0 0 0 -2.88,0.83 v -0.34 a 0.35,0.35 0 0 0 -0.35,-0.36 h -0.9 a 0.34,0.34 0 0 0 -0.34,0.36 v 9.23 a 0.35,0.35 0 0 0 0.34,0.36 h 0.89 a 0.37,0.37 0 0 0 0.36,-0.36 v -7.6 a 5.67,5.67 0 0 1 2.44,-0.71 c 1.38,0 2,0.56 2,2.39 v 6 a 0.36,0.36 0 0 0 0.36,0.36 h 0.86 a 0.36,0.36 0 0 0 0.36,-0.36 m -10.44,0 V 22.69 a 0.32,0.32 0 0 0 -0.32,-0.34 h -1 a 0.32,0.32 0 0 0 -0.32,0.34 v 12.75 a 0.34,0.34 0 0 0 0.32,0.36 h 1 a 0.34,0.34 0 0 0 0.32,-0.36 m -8.61,0 v -0.61 a 0.38,0.38 0 0 0 -0.37,-0.37 H 222 c -0.13,0 -0.15,-0.05 -0.15,-0.14 a 0.29,0.29 0 0 1 0.09,-0.2 l 4.76,-6 a 1.44,1.44 0 0 0 0.42,-1 v -0.43 c 0,-0.54 -0.27,-0.88 -1,-0.88 h -5.33 a 0.36,0.36 0 0 0 -0.36,0.36 v 0.61 a 0.36,0.36 0 0 0 0.36,0.36 h 4.4 c 0.15,0 0.18,0.06 0.18,0.13 a 0.28,0.28 0 0 1 -0.07,0.16 l -4.67,5.82 a 1.63,1.63 0 0 0 -0.41,1.17 v 0.35 a 1,1 0 0 0 1.1,1 h 5.46 a 0.37,0.37 0 0 0 0.37,-0.36 m -8.28,0.09 v -0.6 c 0,-0.18 -0.12,-0.25 -0.38,-0.25 h -1 c -0.72,0 -1,-0.15 -1,-1.15 v -6.32 h 2 a 0.36,0.36 0 0 0 0.36,-0.36 v -0.61 a 0.36,0.36 0 0 0 -0.36,-0.36 h -2 v -2 a 0.29,0.29 0 0 0 -0.27,-0.31 v 0 l -0.94,0.15 a 0.37,0.37 0 0 0 -0.33,0.36 v 1.78 h -1.75 a 0.32,0.32 0 0 0 -0.35,0.32 v 0.49 a 0.32,0.32 0 0 0 0.35,0.32 l 1.75,0.2 v 6.34 c 0,2 0.8,2.43 2.46,2.43 a 9.67,9.67 0 0 0 1.18,-0.09 c 0.23,0 0.32,-0.15 0.32,-0.31 M 211,35.44 V 22.53 a 0.33,0.33 0 0 0 -0.33,-0.34 h -0.94 a 0.32,0.32 0 0 0 -0.32,0.34 v 12.91 a 0.34,0.34 0 0 0 0.32,0.36 h 0.94 A 0.35,0.35 0 0 0 211,35.44 m -5.5,-3.93 c 0,1.87 -0.76,3 -2.45,3 -1.69,0 -2.43,-1.18 -2.43,-3 v -1.38 c 0,-1.86 0.75,-3 2.43,-3 1.68,0 2.45,1.18 2.45,3 z m 1.59,0 v -1.38 c 0,-2.66 -1.38,-4.41 -4,-4.41 -2.62,0 -4,1.75 -4,4.41 v 1.38 c 0,2.67 1.36,4.42 4,4.42 2.64,0 4,-1.75 4,-4.42 m -10.19,3.93 v -6 c 0,-2.66 -1.34,-3.76 -3.26,-3.76 a 7.56,7.56 0 0 0 -2.77,0.56 v -3.69 a 0.35,0.35 0 0 0 -0.35,-0.36 h -0.9 a 0.34,0.34 0 0 0 -0.34,0.36 v 12.89 a 0.35,0.35 0 0 0 0.34,0.36 h 0.89 a 0.37,0.37 0 0 0 0.36,-0.36 v -7.82 a 6.86,6.86 0 0 1 2.5,-0.51 c 1.17,0 1.94,0.56 1.94,2.37 v 6 a 0.36,0.36 0 0 0 0.36,0.36 h 0.86 a 0.37,0.37 0 0 0 0.37,-0.36 m -10.09,0 V 29 c 0,-2.52 -1.3,-3.33 -2.93,-3.33 a 7.23,7.23 0 0 0 -3,0.74 2.23,2.23 0 0 0 -1.88,-0.71 5.14,5.14 0 0 0 -2.65,0.85 v -0.34 a 0.34,0.34 0 0 0 -0.34,-0.36 h -0.9 a 0.35,0.35 0 0 0 -0.35,0.36 v 9.23 a 0.33,0.33 0 0 0 0.31,0.36 h 1 a 0.34,0.34 0 0 0 0.32,-0.36 V 27.8 a 5.51,5.51 0 0 1 2.21,-0.71 c 0.94,0 1.4,0.33 1.4,1.9 v 6.45 a 0.33,0.33 0 0 0 0.31,0.36 h 1 a 0.35,0.35 0 0 0 0.33,-0.36 V 29 a 5.82,5.82 0 0 0 -0.16,-1.41 6.25,6.25 0 0 1 2.12,-0.49 c 0.94,0 1.64,0.42 1.64,1.94 v 6.41 a 0.36,0.36 0 0 0 0.36,0.36 h 0.87 a 0.36,0.36 0 0 0 0.36,-0.36 m -14.62,0 V 22.53 a 0.33,0.33 0 0 0 -0.33,-0.34 h -0.94 a 0.32,0.32 0 0 0 -0.32,0.34 v 12.91 a 0.34,0.34 0 0 0 0.32,0.36 h 0.94 a 0.35,0.35 0 0 0 0.33,-0.36 m -5.56,-5.32 h -4.8 V 30 c 0,-2 0.87,-2.85 2.43,-2.85 1.56,0 2.37,0.8 2.37,2.85 z m 1.61,0.81 V 30 c 0,-2.58 -1.33,-4.24 -4,-4.24 -2.67,0 -4,1.64 -4,4.24 v 1.62 c 0,3.37 2,4.35 4.11,4.35 a 16.27,16.27 0 0 0 3.24,-0.31 c 0.29,0 0.36,-0.18 0.36,-0.41 v -0.62 c 0,-0.18 -0.14,-0.25 -0.29,-0.25 h -0.09 a 26,26 0 0 1 -3.22,0.2 c -1.66,0 -2.52,-0.8 -2.52,-3 v -0.25 h 6.07 c 0.22,0 0.34,-0.16 0.34,-0.4 m -10.31,4.51 V 22.71 a 0.37,0.37 0 0 0 -0.37,-0.36 h -0.92 a 0.36,0.36 0 0 0 -0.36,0.36 V 28 H 150 v -5.29 a 0.36,0.36 0 0 0 -0.36,-0.36 h -0.93 a 0.36,0.36 0 0 0 -0.36,0.36 v 12.73 a 0.36,0.36 0 0 0 0.36,0.36 h 0.93 A 0.36,0.36 0 0 0 150,35.44 v -6 h 6.19 v 6 a 0.36,0.36 0 0 0 0.36,0.36 h 0.92 a 0.37,0.37 0 0 0 0.37,-0.36 m -25.4,-10.06 c 0,2.66 -1.57,4.19 -6.47,4.19 l -3.9,-0.05 v -8.9 h 5.33 c 3.8,0 5,1.95 5,4.23 z m -0.19,-14.19 c 0,2.05 -1.09,3.76 -4.85,3.76 h -5.33 V 6.71 c 0.66,0 2.85,0 3.61,0 4.9,0 6.57,1.19 6.57,3.8 z m 8.09,14.38 v -0.72 a 7.58,7.58 0 0 0 -4.24,-7 7.53,7.53 0 0 0 4,-7 V 10 c 0,-7.57 -6,-9.95 -15,-9.95 a 75.37,75.37 0 0 0 -8.51,0.52 c -1.86,0.29 -2.53,1 -2.53,3.1 v 29 c 0,2.14 0.72,2.76 2.62,3.09 a 60.87,60.87 0 0 0 8.71,0.57 c 8.23,0 15,-2.28 15,-10.66 m -32.5,9.57 v -33 a 1.62,1.62 0 0 0 -1.73,-1.81 h -4.47 A 2.21,2.21 0 0 0 99.6,1.71 l -7.28,13.57 c -0.19,0.38 -0.34,0.62 -0.53,0.62 -0.19,0 -0.33,-0.24 -0.52,-0.62 L 84,1.71 A 2.22,2.22 0 0 0 81.9,0.43 h -4.48 a 1.57,1.57 0 0 0 -1.71,1.62 v 33.09 c 0,0.52 0.43,0.66 0.81,0.66 h 6.28 a 0.86,0.86 0 0 0 0.76,-0.95 V 15 c 0,-0.34 0.14,-0.38 0.24,-0.38 0.1,0 0.24,0.09 0.38,0.33 l 4.28,7.86 a 1.54,1.54 0 0 0 1.43,0.81 h 3.81 a 1.51,1.51 0 0 0 1.42,-0.81 L 99.41,15 c 0.14,-0.24 0.24,-0.33 0.38,-0.33 0.14,0 0.24,0 0.24,0.38 v 19.8 a 0.86,0.86 0 0 0 0.76,0.95 h 6.28 c 0.38,0 0.81,-0.14 0.81,-0.66 M 70.14,6.05 V 1.62 c 0,-0.62 -0.28,-0.86 -1,-0.95 A 55,55 0 0 0 60,0.05 c -6.14,0 -11.62,1.52 -11.62,10.19 v 24.61 a 1,1 0 0 0 1,0.95 h 6.18 a 0.94,0.94 0 0 0 0.95,-0.95 V 21 h 12.3 a 1,1 0 0 0 1,-0.95 v -4.58 a 1,1 0 0 0 -1,-1 H 56.48 V 10.24 C 56.48,7.76 57.29,7 59.53,7 h 9.66 a 1,1 0 0 0 1,-1"
             fill="#ffffff"
             id="path24723"
             style="fill:#004867;fill-opacity:0.99215686;stroke-width:0.594596" /><path
             d="M 42.35,34.85 V 1.33 a 0.87,0.87 0 0 0 -0.9,-0.9 h -6.38 a 0.84,0.84 0 0 0 -0.86,0.9 v 33.52 a 0.88,0.88 0 0 0 0.86,0.95 h 6.38 a 0.91,0.91 0 0 0 0.9,-0.95 M 28,34.85 V 1.33 a 0.91,0.91 0 0 0 -1,-0.9 h -6.16 a 0.91,0.91 0 0 0 -0.95,0.9 V 14 H 8.14 V 1.33 a 0.91,0.91 0 0 0 -1,-0.9 H 1 a 0.91,0.91 0 0 0 -0.95,0.9 v 33.52 a 1,1 0 0 0 1,0.95 h 6.14 a 1,1 0 0 0 1,-0.95 V 21.09 h 11.7 v 13.76 a 1,1 0 0 0 0.95,0.95 h 6.24 a 1,1 0 0 0 1,-0.95"
             fill="#ffffff"
             id="path24725"
             style="fill:#004867;fill-opacity:0.99215686;stroke-width:0.594596" /><g
             id="g24731"
             style="fill:#004867;fill-opacity:0.99215686;stroke-width:0.594596"><path
               d="m 151.78,73.33 c -2.67,0 -4,1.76 -4,4.42 v 1.38 c 0,2.66 1.35,4.42 4,4.42 2.65,0 4,-1.76 4,-4.42 v -1.38 c 0.03,-2.66 -1.34,-4.42 -4,-4.42 z m 2.44,5.8 c 0,1.86 -0.76,3 -2.44,3 -1.68,0 -2.43,-1.17 -2.43,-3 v -1.38 c 0,-1.87 0.74,-3 2.43,-3 1.69,0 2.44,1.17 2.44,3 z"
               fill="#ffffff"
               id="path24727"
               style="fill:#004867;fill-opacity:0.99215686;stroke-width:0.594596" /><path
               d="M 163.19,70.63 V 70 c 0,-0.17 -0.14,-0.24 -0.34,-0.29 a 3.92,3.92 0 0 0 -1,-0.11 c -1.59,0 -2.54,0.58 -2.54,2.52 v 1.3 h -1.75 a 0.33,0.33 0 0 0 -0.35,0.33 v 0.48 a 0.35,0.35 0 0 0 0.35,0.33 l 1.75,0.2 v 8.26 a 0.38,0.38 0 0 0 0.37,0.36 h 0.88 a 0.38,0.38 0 0 0 0.35,-0.36 V 74.8 h 1.9 a 0.32,0.32 0 0 0 0.34,-0.31 v -0.7 a 0.33,0.33 0 0 0 -0.34,-0.33 h -1.9 v -1.3 c 0,-1 0.25,-1.26 1.1,-1.26 h 0.87 c 0.2,0 0.32,-0.07 0.32,-0.27"
               fill="#ffffff"
               id="path24729"
               style="fill:#004867;fill-opacity:0.99215686;stroke-width:0.594596" /></g></g><g
           id="g24809"
           transform="matrix(0.76827384,0,0,0.76827384,-134.38424,-90.306985)"
           style="fill:#004867;fill-opacity:0.99215686;stroke-width:0.570487"><path
             d="m 153.28,0.71 c -0.76,0 -76.16,-6.36 -152.53,19 L 0,19.89 1.18,23.66 1.94,23.45 C 31.78,13.53 64.84,7.28 100.28,4.91 A 418.85,418.85 0 0 1 151.12,4.48 V 84 H 155 V 0.82 Z"
             fill="#ffffff"
             id="path24735"
             style="fill:#004867;fill-opacity:0.99215686;stroke-width:0.641738" /><path
             d="m 14.43,39.5 a 3.83,3.83 0 0 1 -1.61,0.32 2.63,2.63 0 0 1 -2.82,-2.91 2.71,2.71 0 0 1 2.8,-3 3.53,3.53 0 0 1 1.61,0.32 L 14.76,33 A 6,6 0 0 0 12.82,32.68 4.07,4.07 0 0 0 8.51,37 a 3.83,3.83 0 0 0 4.2,4.1 4.36,4.36 0 0 0 2,-0.33 z"
             fill="#ffffff"
             id="path24737"
             style="fill:#004867;fill-opacity:0.99215686;stroke-width:0.641738" /><path
             d="m 19.07,37.45 0.64,-2 c 0.11,-0.44 0.22,-1.08 0.32,-1.51 v 0 a 11,11 0 0 0 0.44,1.51 l 0.64,2 z m 2.37,1.19 0.75,2.26 h 1.61 l -2.69,-8.19 h -1.94 l -2.58,8.19 h 1.51 l 0.64,-2.26 z"
             fill="#ffffff"
             id="path24739"
             style="fill:#004867;fill-opacity:0.99215686;stroke-width:0.641738" /><path
             d="m 27.57,33.9 h 0.87 c 1,0 1.61,0.43 1.61,1.29 0,0.86 -0.64,1.29 -1.61,1.29 h -0.87 z m -1.4,7 h 1.51 v -3.34 h 0.76 c 0.86,0 1.18,0.32 1.4,1.4 a 16.33,16.33 0 0 0 0.54,1.94 h 1.5 c -0.1,-0.32 -0.32,-1.29 -0.64,-2.26 a 2.07,2.07 0 0 0 -1.08,-1.51 v 0 A 2.14,2.14 0 0 0 31.67,35.08 2,2 0 0 0 31,33.47 3.74,3.74 0 0 0 28.52,32.82 13.48,13.48 0 0 0 26.26,32.93 l -0.11,8 z"
             fill="#ffffff"
             id="path24741"
             style="fill:#004867;fill-opacity:0.99215686;stroke-width:0.641738" /><polygon
             points="39.1,39.72 35.76,39.72 35.76,32.82 34.25,32.82 34.25,40.9 39.1,40.9 "
             fill="#ffffff"
             id="polygon24743"
             style="fill:#004867;fill-opacity:0.99215686;stroke-width:0.641738" /><path
             d="m 48.26,40.9 2.8,-8.19 h -1.62 l -1.18,3.88 a 29.2,29.2 0 0 0 -0.87,2.91 v 0 c -0.21,-1 -0.43,-1.94 -0.75,-3 L 45.56,32.84 H 44 L 46.64,41 h 1.62 z"
             fill="#ffffff"
             id="path24745"
             style="fill:#004867;fill-opacity:0.99215686;stroke-width:0.641738" /><path
             d="m 56.55,33.9 c 1.51,0 2.26,1.4 2.26,3 0,1.6 -0.75,3 -2.26,3 -1.51,0 -2.26,-1.29 -2.26,-3 0,-1.71 0.71,-3 2.26,-3 z m 0,-1.19 c -2.26,0 -3.88,1.73 -3.88,4.31 0,2.37 1.4,4.2 3.77,4.2 2.37,0 3.88,-1.5 3.88,-4.31 0,-2.47 -1.4,-4.2 -3.77,-4.2 z"
             fill="#ffffff"
             id="path24747"
             style="fill:#004867;fill-opacity:0.99215686;stroke-width:0.641738" /><path
             d="m 64.2,40.9 v -6.36 0 c 0.32,0.87 1,1.94 1.4,2.8 l 2.15,3.56 h 1.51 v -8.19 h -1.4 v 2.8 A 32.68,32.68 0 0 0 68,38.85 v 0 A 16.48,16.48 0 0 0 66.6,36.16 L 64.66,32.82 H 62.9 v 8.08 z"
             fill="#ffffff"
             id="path24749"
             style="fill:#004867;fill-opacity:0.99215686;stroke-width:0.641738" /><path
             d="m 79.38,33.9 c 1.51,0 2.27,1.4 2.27,3 0,1.6 -0.76,3 -2.27,3 -1.51,0 -2.26,-1.29 -2.26,-3 0,-1.71 0.76,-3 2.26,-3 z m 0,-1.19 c -2.26,0 -3.87,1.73 -3.87,4.31 0,2.37 1.4,4.2 3.77,4.2 2.37,0 3.87,-1.5 3.87,-4.31 0,-2.47 -1.29,-4.2 -3.77,-4.2 z"
             fill="#ffffff"
             id="path24751"
             style="fill:#004867;fill-opacity:0.99215686;stroke-width:0.641738" /><path
             d="m 85.31,40.58 a 5.29,5.29 0 0 0 2.15,0.54 c 2.05,0 3.13,-1.08 3.13,-2.48 0,-1.19 -0.65,-1.83 -2,-2.37 C 87.46,35.84 87,35.62 87,35 c 0,-0.43 0.43,-1 1.3,-1 a 4.52,4.52 0 0 1 1.61,0.33 l 0.32,-1.19 A 4.34,4.34 0 0 0 88.3,32.71 c -1.73,0 -2.91,1 -2.91,2.37 0,1.19 0.86,1.83 2.15,2.37 1,0.33 1.4,0.76 1.4,1.3 0,0.54 -0.54,1.07 -1.51,1.07 a 3.43,3.43 0 0 1 -1.94,-0.54 z"
             fill="#ffffff"
             id="path24753"
             style="fill:#004867;fill-opacity:0.99215686;stroke-width:0.641738" /><path
             d="M 92.85,40.58 A 5.29,5.29 0 0 0 95,41.12 c 2,0 3.13,-1.08 3.13,-2.48 0,-1.19 -0.65,-1.83 -2,-2.37 -1.08,-0.43 -1.51,-0.65 -1.51,-1.3 0,-0.43 0.43,-1 1.3,-1 a 4.52,4.52 0 0 1 1.61,0.33 l 0.32,-1.19 a 4.34,4.34 0 0 0 -1.93,-0.43 c -1.73,0 -2.91,1 -2.91,2.37 0,1.19 0.86,1.83 2.15,2.37 1,0.33 1.4,0.76 1.4,1.3 0,0.54 -0.56,1.1 -1.56,1.1 a 3.43,3.43 0 0 1 -1.94,-0.54 z"
             fill="#ffffff"
             id="path24755"
             style="fill:#004867;fill-opacity:0.99215686;stroke-width:0.641738" /><rect
             x="100.71"
             y="32.82"
             width="1.51"
             height="8.1899996"
             fill="#ffffff"
             id="rect24757"
             style="fill:#004867;fill-opacity:0.99215686;stroke-width:0.641738" /><polygon
             points="106.64,34.01 109.87,34.01 109.87,32.82 105.13,32.82 105.13,40.9 109.98,40.9 109.98,39.72 106.64,39.72 106.64,37.34 109.65,37.34 109.65,36.16 106.64,36.16 "
             fill="#ffffff"
             id="polygon24759"
             style="fill:#004867;fill-opacity:0.99215686;stroke-width:0.641738" /><polygon
             points="111.92,34.01 114.28,34.01 114.28,40.9 115.68,40.9 115.68,34.01 118.05,34.01 118.05,32.82 111.92,32.82 "
             fill="#ffffff"
             id="polygon24761"
             style="fill:#004867;fill-opacity:0.99215686;stroke-width:0.641738" /><polygon
             points="123.87,34.01 123.87,34.11 119.67,40.15 119.67,40.9 125.92,40.9 125.92,39.72 121.72,39.72 125.81,33.68 125.81,32.82 120.1,32.82 120.1,34.01 "
             fill="#ffffff"
             id="polygon24763"
             style="fill:#004867;fill-opacity:0.99215686;stroke-width:0.641738" /><path
             d="m 128.29,40.9 h 1.5 V 38 l 0.76,-0.86 2.26,3.77 h 1.72 l -3,-4.74 2.8,-3.45 h -1.83 l -2.16,2.91 a 7.66,7.66 0 0 0 -0.54,0.86 v 0 -3.78 h -1.5 v 8.19 z"
             fill="#ffffff"
             id="path24765"
             style="fill:#004867;fill-opacity:0.99215686;stroke-width:0.641738" /><path
             d="m 139.81,40.9 v -3.45 l 2.7,-4.74 h -1.73 l -1,2 a 9.9,9.9 0 0 0 -0.64,1.62 v 0 c -0.22,-0.54 -0.43,-1 -0.65,-1.62 l -1,-2 h -1.72 l 2.58,4.74 v 3.45 z"
             fill="#ffffff"
             id="path24767"
             style="fill:#004867;fill-opacity:0.99215686;stroke-width:0.641738" /><path
             d="m 13.14,70.42 c 1.51,0 2.37,1.51 2.37,3.24 0,1.73 -0.86,3.34 -2.37,3.34 -1.51,0 -2.37,-1.3 -2.37,-3.24 0,-1.94 0.86,-3.34 2.37,-3.34 z m 0,-1.83 c -2.91,0 -4.74,2.16 -4.74,5.17 0,2.81 1.73,5 4.63,5 2.9,0 4.85,-1.94 4.85,-5.17 a 4.63,4.63 0 0 0 -4.74,-5 z"
             fill="#ffffff"
             id="path24769"
             style="fill:#004867;fill-opacity:0.99215686;stroke-width:0.641738" /><polygon
             points="31.78,76.67 27.79,76.67 27.79,68.81 25.64,68.81 25.64,78.61 31.78,78.61 "
             fill="#ffffff"
             id="polygon24771"
             style="fill:#004867;fill-opacity:0.99215686;stroke-width:0.641738" /><path
             d="m 41.69,70.53 a 8,8 0 0 1 1,-0.11 2.76,2.76 0 0 1 3,3.13 C 45.69,75.92 44.4,77 42.35,77 H 41.6 v -6.47 z m -2.27,8 c 0.54,0 1.3,0.11 2.48,0.11 a 7.05,7.05 0 0 0 4.52,-1.29 4.78,4.78 0 0 0 1.62,-4 4.38,4.38 0 0 0 -1.62,-3.66 6.73,6.73 0 0 0 -4,-1 13,13 0 0 0 -3,0.22 v 9.59 z"
             fill="#ffffff"
             id="path24773"
             style="fill:#004867;fill-opacity:0.99215686;stroke-width:0.641738" /><polygon
             points="58.06,70.64 61.94,70.64 61.94,68.81 55.9,68.81 55.9,78.61 62.15,78.61 62.15,76.78 58.06,76.78 58.06,74.52 61.72,74.52 61.72,72.69 58.06,72.69 "
             fill="#ffffff"
             id="polygon24775"
             style="fill:#004867;fill-opacity:0.99215686;stroke-width:0.641738" /><path
             d="M 72.06,78.61 V 75.7 c 0,-1.61 0,-2.91 -0.11,-4.31 v 0 a 25.27,25.27 0 0 0 1.73,3.45 l 2,3.77 H 78 v -9.69 h -2 v 2.8 a 26,26 0 0 0 0.21,4.09 v 0 A 24.25,24.25 0 0 0 74.6,72.47 L 72.55,68.92 H 70 v 9.69 z"
             fill="#ffffff"
             id="path24777"
             style="fill:#004867;fill-opacity:0.99215686;stroke-width:0.641738" /><path
             d="m 88.54,74.3 h 0.75 c 1.08,0 1.94,0.33 1.94,1.4 0,1.07 -0.86,1.4 -1.83,1.4 h -0.86 z m 0,-3.88 h 1 c 1,0 1.51,0.33 1.51,1.08 0,0.75 -0.65,1.19 -1.73,1.19 h -0.75 z m -2.15,8.08 c 0.43,0 1.29,0.11 2.37,0.11 a 6.59,6.59 0 0 0 3.87,-0.86 2.65,2.65 0 0 0 1,-2 2.33,2.33 0 0 0 -1.94,-2.37 v 0 a 2.23,2.23 0 0 0 1.62,-2 2.14,2.14 0 0 0 -1.18,-1.94 5.18,5.18 0 0 0 -2.91,-0.54 18.3,18.3 0 0 0 -2.8,0.21 v 9.39 z"
             fill="#ffffff"
             id="path24779"
             style="fill:#004867;fill-opacity:0.99215686;stroke-width:0.641738" /><path
             d="m 101.47,68.81 v 5.49 c 0,3.13 1.4,4.53 3.87,4.53 2.47,0 4.1,-1.4 4.1,-4.42 v -5.49 h -2.16 v 5.6 c 0,1.72 -0.64,2.48 -1.83,2.48 -1.19,0 -1.72,-0.87 -1.72,-2.48 v -5.6 z"
             fill="#ffffff"
             id="path24781"
             style="fill:#004867;fill-opacity:0.99215686;stroke-width:0.641738" /><path
             d="m 119.89,70.42 h 1 c 1,0 1.62,0.43 1.62,1.3 0,0.87 -0.65,1.4 -1.72,1.4 h -0.86 z m -2.16,8.19 h 2.16 v -3.88 h 0.64 c 0.86,0 1.29,0.33 1.51,1.51 a 12.66,12.66 0 0 0 0.65,2.26 H 125 A 24.79,24.79 0 0 1 124.24,75.81 2.61,2.61 0 0 0 122.9,74 v 0 a 2.6,2.6 0 0 0 1.72,-2.37 2.76,2.76 0 0 0 -0.86,-2 4.92,4.92 0 0 0 -3.12,-0.75 20.12,20.12 0 0 0 -2.91,0.21 v 9.59 z"
             fill="#ffffff"
             id="path24783"
             style="fill:#004867;fill-opacity:0.99215686;stroke-width:0.641738" /><path
             d="m 140.78,73 h -3.66 v 1.72 h 1.51 v 2 a 2.39,2.39 0 0 1 -1.08,0.11 2.9,2.9 0 0 1 -3,-3.23 3,3 0 0 1 3.24,-3.13 A 5.7,5.7 0 0 1 140,71 l 0.43,-1.72 a 6.73,6.73 0 0 0 -2.69,-0.43 c -3.24,0 -5.61,1.83 -5.61,5.06 a 4.67,4.67 0 0 0 1.4,3.56 5.41,5.41 0 0 0 4,1.29 10.88,10.88 0 0 0 3.23,-0.54 z"
             fill="#ffffff"
             id="path24785"
             style="fill:#004867;fill-opacity:0.99215686;stroke-width:0.641738" /><path
             d="m 9.05,50.17 v 6 c 0,3.45 1.61,5 4.31,5 2.7,0 4.52,-1.62 4.52,-5 V 50.06 H 15.4 v 6.25 c 0,1.94 -0.64,2.8 -1.94,2.8 -1.3,0 -1.93,-1 -1.93,-2.8 V 50.06 H 9.05 Z"
             fill="#ffffff"
             id="path24787"
             style="fill:#004867;fill-opacity:0.99215686;stroke-width:0.641738" /><path
             d="m 26.39,61.05 v -3.23 c 0,-1.73 0,-3.34 -0.11,-4.74 v 0 a 32.24,32.24 0 0 0 1.83,3.77 l 2.27,4.2 H 33 V 50.27 h -2.3 v 3.13 a 31,31 0 0 0 0.21,4.52 v 0 a 22.6,22.6 0 0 0 -1.72,-3.66 l -2.26,-4 h -2.8 v 10.79 z"
             fill="#ffffff"
             id="path24789"
             style="fill:#004867;fill-opacity:0.99215686;stroke-width:0.641738" /><rect
             x="39.419998"
             y="50.169998"
             width="2.48"
             height="10.77"
             fill="#ffffff"
             id="rect24791"
             style="fill:#004867;fill-opacity:0.99215686;stroke-width:0.641738" /><path
             d="M 53.64,61.05 57.3,50.27 h -2.58 l -1.4,4.64 c -0.32,1.18 -0.65,2.48 -1,3.77 v 0 a 26.21,26.21 0 0 0 -1,-3.88 l -1.29,-4.63 h -2.7 l 3.45,10.77 2.8,0.11 z"
             fill="#ffffff"
             id="path24793"
             style="fill:#004867;fill-opacity:0.99215686;stroke-width:0.641738" /><polygon
             points="65.06,52.21 69.26,52.21 69.26,50.17 62.58,50.17 62.58,61.05 69.47,61.05 69.47,59 65.06,59 65.06,56.42 69.04,56.42 69.04,54.48 65.06,54.48 "
             fill="#ffffff"
             id="polygon24795"
             style="fill:#004867;fill-opacity:0.99215686;stroke-width:0.641738" /><path
             d="m 77.77,52 a 8.24,8.24 0 0 1 1.08,-0.11 c 1.07,0 1.83,0.54 1.83,1.51 0,0.97 -0.76,1.51 -1.94,1.51 h -1 V 52 Z m -2.48,9 h 2.37 v -4.26 h 0.76 c 1,0 1.4,0.32 1.72,1.72 a 9.81,9.81 0 0 0 0.75,2.48 h 2.48 a 28.41,28.41 0 0 1 -0.86,-3 2.69,2.69 0 0 0 -1.4,-2 v 0 a 3,3 0 0 0 1.94,-2.7 2.8,2.8 0 0 0 -1,-2.26 5.77,5.77 0 0 0 -3.45,-0.86 25.53,25.53 0 0 0 -3.23,0.21 v 10.72 z"
             fill="#ffffff"
             id="path24797"
             style="fill:#004867;fill-opacity:0.99215686;stroke-width:0.641738" /><path
             d="m 88.65,60.51 a 7,7 0 0 0 3,0.65 c 3,0 4.42,-1.51 4.42,-3.34 0,-1.51 -0.86,-2.48 -2.8,-3.24 -1.4,-0.53 -2,-0.86 -2,-1.5 0,-0.64 0.5,-1.08 1.47,-1.08 A 4.83,4.83 0 0 1 95,52.54 l 0.54,-1.94 a 7.86,7.86 0 0 0 -2.8,-0.54 c -2.58,0 -4.09,1.4 -4.09,3.23 0,1.51 1.18,2.59 3,3.23 C 93,57 93.5,57.39 93.5,58 c 0,0.61 -0.54,1.19 -1.73,1.19 a 6.22,6.22 0 0 1 -2.69,-0.65 z"
             fill="#ffffff"
             id="path24799"
             style="fill:#004867;fill-opacity:0.99215686;stroke-width:0.641738" /><rect
             x="101.9"
             y="50.169998"
             width="2.48"
             height="10.77"
             fill="#ffffff"
             id="rect24801"
             style="fill:#004867;fill-opacity:0.99215686;stroke-width:0.641738" /><polygon
             points="109.87,52.21 112.78,52.21 112.78,61.05 115.25,61.05 115.25,52.21 118.16,52.21 118.16,50.17 109.87,50.17 "
             fill="#ffffff"
             id="polygon24803"
             style="fill:#004867;fill-opacity:0.99215686;stroke-width:0.641738" /><path
             d="m 128.39,49.52 a 1.08,1.08 0 0 0 1.08,-1.08 1.08,1.08 0 1 0 -1.08,1.08 z m -3.23,0 a 1.16,1.16 0 0 0 1.08,-1.08 1.08,1.08 0 0 0 -2.15,0 c -0.09,0.65 0.43,1.08 1.07,1.08 z m 0.22,6.9 0.65,-2.27 c 0.1,-0.64 0.32,-1.4 0.43,-2 v 0 a 13.93,13.93 0 0 0 0.53,2 l 0.65,2.27 z m 2.69,1.83 0.86,2.8 h 2.59 L 128.18,50.27 H 125 l -3.34,10.78 h 2.48 l 0.75,-2.8 z"
             fill="#ffffff"
             id="path24805"
             style="fill:#004867;fill-opacity:0.99215686;stroke-width:0.641738" /><polygon
             points="135.07,52.21 137.98,52.21 137.98,61.05 140.46,61.05 140.46,52.21 143.37,52.21 143.37,50.17 135.07,50.17 "
             fill="#ffffff"
             id="polygon24807"
             style="fill:#004867;fill-opacity:0.99215686;stroke-width:0.641738" /></g><g
           id="g24819"
           transform="matrix(1.0855852,0,0,1.0855852,-478.86975,-81.968935)"
           style="fill:#004867;fill-opacity:0.99215686;stroke-width:0.403733"><path
             d="m 17.78,24.83 c 0.11,0.63 0.2,1.26 0.27,1.88 0,0.34 0,0.45 -0.37,0.52 a 34,34 0 0 1 -8.54,0.52 q -0.56,0 -1.08,-0.09 c -0.32,0 -0.43,-0.14 -0.58,-0.59 A 16,16 0 0 1 9.14,14.29 0.63,0.63 0 0 1 9.8,13.93 17.72,17.72 0 0 0 12.72,13.66 h 0.11 c 0.43,-0.08 0.59,0 0.78,0.31 a 29.89,29.89 0 0 1 4.17,10.88 M 7.43,14.46 a 16,16 0 0 0 -1.69,12.3 c 0.12,0.42 0,0.61 -0.38,0.53 C 4.77,27.18 4.18,27.06 3.6,26.93 3.23,26.84 3.22,26.86 3.09,26.26 3.02,25.94 2.96,25.62 2.91,25.26 A 13.66,13.66 0 0 1 6.67,13.84 0.53,0.53 0 0 1 7.16,13.68 l 0.47,0.09 c 0.2,0 -0.07,0.47 -0.2,0.69 m -3.31,14 c 0.47,0.07 0.94,0.14 1.41,0.19 l 0.52,0.05 c 0.43,0 0.42,0.08 0.64,0.51 l 0.06,0.12 a 14.3,14.3 0 0 0 5.12,5.56 0.22,0.22 0 0 1 0,0.38 c -0.24,0.15 -0.47,0.31 -0.68,0.47 -0.21,0.16 -0.32,0.13 -0.55,0 A 13.69,13.69 0 0 1 4,29 C 3.83,28.63 3.9,28.45 4.15,28.49 m 8.55,5.82 A 14.32,14.32 0 0 1 8.45,29.37 v 0 c -0.15,-0.3 0,-0.45 0.3,-0.45 a 32.92,32.92 0 0 0 9,-1.07 c 0.31,-0.09 0.45,-0.07 0.47,0.27 a 29.52,29.52 0 0 1 0,4.61 c 0,0.42 -0.06,0.55 -0.47,0.6 l -0.7,0.11 a 15.9,15.9 0 0 0 -3.38,1 0.75,0.75 0 0 1 -0.93,-0.07 m 10,-23.22 -0.29,-0.17 C 22.16,10.8 21.9,10.66 21.67,10.54 a 14.83,14.83 0 1 0 3.72,23.62 c 0.18,-0.18 0.49,-0.47 0.62,-0.63 0.13,-0.16 -0.06,-0.26 -0.23,-0.12 l -0.7,0.6 c -0.13,0.11 -0.32,0.31 -0.54,0.21 0,0 -0.42,-0.21 -0.61,-0.29 A 5.35,5.35 0 0 0 23.26,33.69 11.49,11.49 0 0 0 19.79,33.2 c -0.25,0 -0.49,-0.13 -0.44,-0.43 a 29.23,29.23 0 0 0 0.27,-4.9 c 0,-0.32 -0.06,-0.54 0.29,-0.66 0.35,-0.12 0.59,-0.2 0.87,-0.31 0.45,-0.17 1,-0.36 1,-0.51 0,-0.15 -0.23,0 -1.08,0.23 l -0.85,0.23 c -0.2,0.05 -0.3,0 -0.31,-0.28 a 32.19,32.19 0 0 0 -0.41,-3.33 30,30 0 0 0 -3.59,-9.92 c -0.07,-0.13 -0.1,-0.25 0.1,-0.33 a 11.47,11.47 0 0 0 1.5,-0.65 0.41,0.41 0 0 1 0.52,0 15.07,15.07 0 0 1 3.48,2.62 15.47,15.47 0 0 1 4.12,12.64 c -0.07,0.65 -0.17,1.2 -0.07,1.22 0.1,0.02 0.27,-0.77 0.35,-1.18 a 15.65,15.65 0 0 0 -3.91,-14.27 14.74,14.74 0 0 0 -2.39,-2 c -0.23,-0.15 -0.49,-0.21 -0.16,-0.53 l 0.13,-0.13 a 1.26,1.26 0 0 0 0.19,-0.2 v 0 l 0.08,-0.09 a 0.43,0.43 0 0 1 0.27,-0.15 4.22,4.22 0 0 1 1.62,0.46 9.82,9.82 0 0 0 1.33,0.56 c 0.09,0 0.13,-0.18 0,-0.28 m 9.57,-6.66 -2,-1 L 31,1.29 28.83,2 l -1,-2 -1,2 -2.13,-0.75 0.76,2.13 -2,1 2,1 -0.71,2.12 2.13,-0.76 1,2 1,-2 L 31,7.5 30.25,5.37 Z M 99.9,12.64 A 3.0377664,3.0377664 0 0 0 94.05,11 v 0 l -7.24,24.4 a 0.93,0.93 0 0 1 -1.8,0 L 81.3,22.83 v 0 l -2.84,-9.55 a 6.25,6.25 0 0 0 -12,0 l -5.63,19 v 0 L 59.9,35.42 A 0.94,0.94 0 0 1 59,36 0.92,0.92 0 0 1 58.11,35.31 l -0.94,-3.14 v 0 l -0.4,-1.36 -1.94,-6.54 v 0 l -3.28,-11 a 6.25,6.25 0 0 0 -12,0 l -3.04,10.3 v 0 L 31.6,40.11 v 0 a 3.0358401,3.0358401 0 0 0 5.82,1.73 v 0 l 1,-3.4 h 6.34 a 3.04,3.04 0 0 0 0,-6.08 h -4.53 l 0.05,-0.15 v 0 l 4.39,-14.77 a 0.91,0.91 0 0 1 0.89,-0.69 0.93,0.93 0 0 1 0.9,0.69 l 4.39,14.77 v 0 L 53,39.53 a 6.24,6.24 0 0 0 12,0 l 5,-16.78 v 0 l 1.57,-5.28 a 0.93,0.93 0 0 1 0.9,-0.69 0.91,0.91 0 0 1 0.89,0.69 l 4.39,14.77 v 0 l 2.18,7.32 a 6.24,6.24 0 0 0 12,0 l 8,-26.82 z m 9.61,-3.76 a 3,3 0 0 0 -3.78,2 l -8.68,29.23 v 0 a 3.0358401,3.0358401 0 0 0 5.82,1.73 v 0 l 8.65,-29.14 a 3,3 0 0 0 -2,-3.78"
             fill="#ffffff"
             id="path24811"
             style="fill:#004867;fill-opacity:0.99215686;stroke-width:0.545766" /><path
             d="m 250.38,43.18 v -3.47 a 0.2,0.2 0 0 0 -0.19,-0.21 h -0.56 a 0.2,0.2 0 0 0 -0.19,0.21 v 3 c -0.24,0 -0.67,0.06 -1.3,0.06 -1,0 -1.73,-0.68 -1.73,-2.38 V 39 c 0,-1.86 0.86,-2.37 1.82,-2.37 0.96,0 1.36,0 2,0.07 v 0 c 0.09,0 0.13,0 0.13,-0.1 V 36 c 0,-0.1 -0.08,-0.15 -0.17,-0.16 a 12.29,12.29 0 0 0 -2,-0.14 c -1.32,0 -2.76,0.71 -2.76,3.22 v 1.39 c 0,2.37 1.38,3.21 2.67,3.21 a 12.25,12.25 0 0 0 2.06,-0.15 0.23,0.23 0 0 0 0.18,-0.23 m -7,0 V 36 a 0.19,0.19 0 0 0 -0.19,-0.2 h -0.54 a 0.19,0.19 0 0 0 -0.19,0.2 v 6 c 0,0 0,0 0,0 v 0 l -3.17,-6 c -0.08,-0.16 -0.13,-0.21 -0.42,-0.21 h -0.57 a 0.29,0.29 0 0 0 -0.3,0.29 v 7.27 c 0,0.1 0.08,0.12 0.19,0.12 h 0.53 a 0.19,0.19 0 0 0 0.19,-0.2 v -6 c 0,0 0,0 0,0 0,0 0,0 0,0 l 3.19,6.07 a 0.34,0.34 0 0 0 0.33,0.16 H 243 a 0.29,0.29 0 0 0 0.3,-0.3 m -7.71,-2.49 V 36 a 0.2,0.2 0 0 0 -0.2,-0.2 h -0.56 a 0.19,0.19 0 0 0 -0.19,0.2 v 4.7 c 0,1.35 -0.42,2.06 -1.7,2.06 -1.28,0 -1.69,-0.73 -1.69,-2.06 V 36 a 0.19,0.19 0 0 0 -0.2,-0.2 h -0.55 a 0.19,0.19 0 0 0 -0.2,0.2 v 4.7 c 0,2 1,2.86 2.64,2.86 1.64,0 2.65,-0.89 2.65,-2.86 M 228,43.29 V 36 a 0.21,0.21 0 0 0 -0.21,-0.21 h -0.53 a 0.2,0.2 0 0 0 -0.2,0.21 v 3 h -3.54 v -3 a 0.2,0.2 0 0 0 -0.2,-0.21 h -0.53 A 0.21,0.21 0 0 0 222.58,36 v 7.27 a 0.21,0.21 0 0 0 0.21,0.2 h 0.53 a 0.2,0.2 0 0 0 0.2,-0.2 v -3.42 h 3.54 v 3.44 a 0.2,0.2 0 0 0 0.2,0.2 h 0.53 a 0.21,0.21 0 0 0 0.21,-0.2 m -7.31,-0.07 V 42.8 c 0,-0.11 0,-0.17 -0.16,-0.17 v 0 c -0.37,0 -1.12,0.09 -1.71,0.09 -1,0 -1.79,-0.61 -1.79,-2.35 v -1.44 c 0,-1.75 0.78,-2.34 1.79,-2.34 0.6,0 1.37,0.06 1.74,0.09 v 0 c 0.1,0 0.12,0 0.12,-0.11 V 36 c 0,-0.09 -0.07,-0.12 -0.16,-0.14 a 11.5,11.5 0 0 0 -1.74,-0.16 c -1.27,0 -2.72,0.66 -2.72,3.19 v 1.44 c 0,2.51 1.45,3.19 2.72,3.19 a 8.49,8.49 0 0 0 1.72,-0.13 0.21,0.21 0 0 0 0.2,-0.21 m -6.5,-1.72 c 0,-0.83 -0.42,-1.4 -1.62,-2.11 l -1,-0.57 c -0.79,-0.48 -1.13,-0.76 -1.13,-1.25 0,-0.76 0.46,-1 1.52,-1 0.6,0 1.32,0 1.78,0.06 v 0 a 0.16,0.16 0 0 0 0.17,-0.17 V 36 a 0.18,0.18 0 0 0 -0.17,-0.18 14.6,14.6 0 0 0 -1.8,-0.12 c -1.57,0 -2.47,0.58 -2.47,1.83 0,0.83 0.48,1.35 1.43,1.93 l 1,0.61 c 0.94,0.58 1.24,0.87 1.24,1.39 0,0.72 -0.33,1.22 -1.57,1.22 -0.48,0 -1.23,0 -1.71,-0.07 v 0 a 0.16,0.16 0 0 0 -0.17,0.17 v 0.41 c 0,0.12 0,0.16 0.19,0.19 a 10.81,10.81 0 0 0 1.72,0.14 c 2,0 2.55,-1.07 2.55,-2.06 M 206.72,38 c 0,1.12 -0.69,1.44 -2,1.44 h -1.14 v -2.82 c 0.25,0 0.82,0 1.14,0 1.29,0 2,0.34 2,1.37 z m 1.22,5.33 a 0.19,0.19 0 0 0 0,-0.1 L 206,40.12 A 2,2 0 0 0 207.65,38 v 0 c 0,-1.67 -1.26,-2.22 -2.89,-2.22 -0.6,0 -1.37,0 -1.82,0.08 -0.18,0 -0.25,0.08 -0.25,0.23 v 7.24 a 0.2,0.2 0 0 0 0.19,0.2 h 0.56 a 0.19,0.19 0 0 0 0.18,-0.2 v -3 h 1.14 0.24 l 1.85,3.08 c 0.08,0.13 0.14,0.13 0.26,0.13 h 0.67 a 0.13,0.13 0 0 0 0.13,-0.13 m -8.35,-3 c 0,1.73 -0.71,2.4 -1.83,2.4 -1.12,0 -1.85,-0.67 -1.85,-2.4 V 39 c 0,-1.74 0.72,-2.4 1.85,-2.4 1.13,0 1.83,0.66 1.83,2.4 z m 1,0 V 39 c 0,-2.3 -1.17,-3.25 -2.79,-3.25 -1.62,0 -2.77,0.94 -2.77,3.25 v 1.33 c 0,2.29 1.18,3.24 2.8,3.24 1.62,0 2.79,-1 2.79,-3.24 m -7.38,-0.62 v -0.39 a 0.2,0.2 0 0 0 -0.2,-0.21 h -3.21 v -1.45 c 0,-0.78 0.17,-1.07 1.27,-1.07 h 2 c 0.07,0 0.11,-0.05 0.11,-0.13 V 36 a 0.15,0.15 0 0 0 -0.1,-0.15 c -0.43,0 -1.4,-0.06 -2,-0.06 -1.45,0 -2.2,0.55 -2.2,1.92 v 5.63 a 0.2,0.2 0 0 0 0.2,0.2 h 0.53 a 0.21,0.21 0 0 0 0.21,-0.2 V 39.91 H 193 a 0.21,0.21 0 0 0 0.2,-0.21 m -6.36,1.8 c 0,-0.83 -0.42,-1.4 -1.62,-2.11 l -0.95,-0.57 c -0.78,-0.48 -1.12,-0.76 -1.12,-1.25 0,-0.76 0.45,-1 1.51,-1 0.6,0 1.33,0 1.78,0.06 v 0 a 0.17,0.17 0 0 0 0.18,-0.17 V 36 c 0,-0.1 -0.08,-0.16 -0.18,-0.18 a 14.46,14.46 0 0 0 -1.8,-0.12 c -1.57,0 -2.46,0.58 -2.46,1.83 0,0.83 0.47,1.35 1.42,1.93 l 1,0.61 c 0.94,0.58 1.24,0.87 1.24,1.39 0,0.72 -0.33,1.22 -1.57,1.22 -0.47,0 -1.23,0 -1.7,-0.07 v 0 a 0.17,0.17 0 0 0 -0.18,0.17 v 0.41 c 0,0.12 0,0.16 0.2,0.19 a 10.57,10.57 0 0 0 1.71,0.14 c 2,0 2.55,-1.07 2.55,-2.06 m -6.45,1.87 V 42.8 a 0.11,0.11 0 0 0 -0.11,-0.12 h -2 c -1.09,0 -1.27,-0.29 -1.27,-1.08 v -1.69 h 3.17 A 0.21,0.21 0 0 0 180.4,39.7 V 39.31 A 0.21,0.21 0 0 0 180.19,39.1 H 177 v -1.44 c 0,-0.78 0.18,-1.07 1.27,-1.07 h 2 c 0.07,0 0.11,-0.05 0.11,-0.13 V 36 a 0.14,0.14 0 0 0 -0.11,-0.15 c -0.43,0 -1.4,-0.06 -2,-0.06 -1.44,0 -2.2,0.55 -2.2,1.92 v 4 c 0,1.38 0.76,1.92 2.2,1.92 0.61,0 1.62,0 2,-0.05 a 0.14,0.14 0 0 0 0.11,-0.14 M 172.89,38 c 0,1.12 -0.69,1.44 -2,1.44 h -1.14 v -2.82 c 0.25,0 0.82,0 1.14,0 1.29,0 2,0.34 2,1.37 z m 1.22,5.33 a 0.19,0.19 0 0 0 0,-0.1 l -1.88,-3.14 A 2,2 0 0 0 173.82,38 v 0 c 0,-1.67 -1.26,-2.22 -2.89,-2.22 -0.6,0 -1.37,0 -1.82,0.08 -0.18,0 -0.25,0.08 -0.25,0.23 v 7.24 a 0.2,0.2 0 0 0 0.19,0.2 h 0.56 a 0.19,0.19 0 0 0 0.18,-0.2 v -3 h 1.14 0.27 l 1.85,3.08 c 0.08,0.13 0.14,0.13 0.27,0.13 H 174 a 0.13,0.13 0 0 0 0.13,-0.13 m -7.34,0 v -0.53 a 0.11,0.11 0 0 0 -0.12,-0.12 h -2 c -1.09,0 -1.27,-0.29 -1.27,-1.08 v -1.77 h 3.17 a 0.22,0.22 0 0 0 0.21,-0.21 v -0.39 a 0.21,0.21 0 0 0 -0.21,-0.21 h -3.17 v -1.44 c 0,-0.78 0.18,-1.07 1.27,-1.07 h 2 c 0.08,0 0.12,-0.05 0.12,-0.13 V 36 a 0.14,0.14 0 0 0 -0.11,-0.15 c -0.43,0 -1.4,-0.06 -2,-0.06 -1.44,0 -2.2,0.55 -2.2,1.92 v 4 c 0,1.38 0.76,1.92 2.2,1.92 0.61,0 1.62,0 2,-0.05 a 0.14,0.14 0 0 0 0.11,-0.14 m -6.42,0 v -0.53 a 0.11,0.11 0 0 0 -0.11,-0.12 h -2 c -1.1,0 -1.27,-0.29 -1.27,-1.08 v -1.8 h 3.17 a 0.21,0.21 0 0 0 0.2,-0.21 v -0.39 a 0.2,0.2 0 0 0 -0.2,-0.21 H 157 v -1.44 c 0,-0.78 0.17,-1.07 1.27,-1.07 h 2 c 0.07,0 0.11,-0.05 0.11,-0.13 V 36 a 0.15,0.15 0 0 0 -0.1,-0.15 c -0.43,0 -1.4,-0.06 -2,-0.06 -1.45,0 -2.2,0.55 -2.2,1.92 v 4 c 0,1.38 0.75,1.92 2.2,1.92 0.61,0 1.62,0 2,-0.05 a 0.14,0.14 0 0 0 0.1,-0.14 m -6.64,-0.08 v -7.25 a 0.3,0.3 0 0 0 -0.29,-0.3 h -0.68 c -0.18,0 -0.26,0 -0.33,0.18 l -1.7,3.54 c 0,0.1 -0.07,0.12 -0.12,0.12 -0.05,0 -0.09,0 -0.13,-0.12 L 148.76,36 c -0.07,-0.14 -0.15,-0.18 -0.33,-0.18 h -0.67 a 0.3,0.3 0 0 0 -0.3,0.3 v 7.18 a 0.2,0.2 0 0 0 0.2,0.2 h 0.51 a 0.21,0.21 0 0 0 0.21,-0.2 v -6.14 c 0,0 0,0 0,0 0,0 0,0 0,0 l 1.47,3.05 a 0.45,0.45 0 0 0 0.47,0.3 h 0.47 a 0.45,0.45 0 0 0 0.47,-0.3 l 1.47,-3.05 v 0 c 0,0 0,0 0,0 v 6.13 a 0.2,0.2 0 0 0 0.2,0.2 h 0.51 a 0.2,0.2 0 0 0 0.2,-0.2 m -12.58,-2.94 c 0,1.86 -0.95,2.41 -2.19,2.41 -0.49,0 -0.82,0 -1.15,0 v -6.18 c 0.34,0 0.66,0 1.15,0 1.24,0 2.19,0.53 2.19,2.4 z m 0.94,0 V 39 c 0,-2.23 -1.22,-3.21 -3.13,-3.21 a 15,15 0 0 0 -1.88,0.1 0.24,0.24 0 0 0 -0.22,0.26 v 7.1 a 0.23,0.23 0 0 0 0.22,0.26 15,15 0 0 0 1.88,0.1 c 1.91,0 3.13,-1 3.13,-3.21 m -7.56,2.84 V 36 a 0.19,0.19 0 0 0 -0.19,-0.2 h -0.55 a 0.19,0.19 0 0 0 -0.18,0.2 v 6 c 0,0 0,0 0,0 v 0 l -3.17,-6 c -0.09,-0.16 -0.14,-0.21 -0.43,-0.21 h -0.57 a 0.29,0.29 0 0 0 -0.29,0.29 v 7.27 c 0,0.1 0.08,0.12 0.18,0.12 h 0.54 a 0.19,0.19 0 0 0 0.18,-0.2 v -6 c 0,0 0,0 0,0 l 3.19,6.07 a 0.34,0.34 0 0 0 0.33,0.16 h 0.64 a 0.3,0.3 0 0 0 0.3,-0.3 M 126.7,40.71 V 36 a 0.19,0.19 0 0 0 -0.19,-0.2 H 126 a 0.19,0.19 0 0 0 -0.2,0.2 v 4.7 c 0,1.35 -0.41,2.06 -1.69,2.06 -1.28,0 -1.7,-0.73 -1.7,-2.06 V 36 a 0.19,0.19 0 0 0 -0.19,-0.2 h -0.56 a 0.2,0.2 0 0 0 -0.2,0.2 v 4.7 c 0,2 1,2.86 2.65,2.86 1.65,0 2.64,-0.89 2.64,-2.86"
             fill="#ffffff"
             id="path24813"
             style="fill:#004867;fill-opacity:0.99215686;stroke-width:0.545766" /><path
             d="M 304,28.36 V 28 a 0.18,0.18 0 0 0 -0.2,-0.18 h -2.05 a 0.19,0.19 0 0 0 -0.2,0.18 v 0.4 a 0.18,0.18 0 0 0 0.2,0.18 h 2.05 A 0.18,0.18 0 0 0 304,28.4 m -5.29,-2.63 c 0,1.11 -0.69,1.44 -2,1.44 h -1.13 v -2.9 c 0.24,0 0.81,0 1.13,0 1.29,0 2,0.34 2,1.38 z m 1.22,5.32 a 0.16,0.16 0 0 0 0,-0.09 L 298,27.82 a 2,2 0 0 0 1.62,-2.09 v -0.07 c 0,-1.68 -1.26,-2.23 -2.89,-2.23 a 16.39,16.39 0 0 0 -1.82,0.09 c -0.18,0 -0.24,0.08 -0.24,0.23 V 31 a 0.2,0.2 0 0 0 0.18,0.21 h 0.56 A 0.21,0.21 0 0 0 295.6,31 v -3 h 1.13 0.27 l 1.85,3.08 c 0.08,0.14 0.14,0.14 0.27,0.14 h 0.66 a 0.13,0.13 0 0 0 0.13,-0.14 M 291,27.84 h -2.28 l 0.94,-3.4 c 0,-0.12 0.09,-0.19 0.2,-0.19 0.11,0 0.17,0.07 0.2,0.19 z m 1.86,3.16 a 0.17,0.17 0 0 0 0,-0.07 l -1.91,-6.74 a 1.09,1.09 0 0 0 -2.1,0 L 286.93,31 a 0.18,0.18 0 0 0 0.16,0.24 h 0.61 a 0.21,0.21 0 0 0 0.19,-0.16 l 0.66,-2.38 h 2.68 l 0.67,2.3 a 0.19,0.19 0 0 0 0.17,0.16 h 0.61 a 0.17,0.17 0 0 0 0.18,-0.17 m -7.15,0 v -0.48 c 0,-0.08 0,-0.13 -0.11,-0.13 h -2 c -1.09,0 -1.27,-0.29 -1.27,-1.07 v -5.6 a 0.2,0.2 0 0 0 -0.2,-0.2 h -0.53 a 0.21,0.21 0 0 0 -0.21,0.2 v 5.63 c 0,1.7 1.1,1.92 2.2,1.92 a 17.75,17.75 0 0 0 2,-0.09 c 0.06,0 0.1,-0.09 0.1,-0.15 m -7.41,-3 c 0,1.74 -0.72,2.4 -1.84,2.4 -1.12,0 -1.85,-0.66 -1.85,-2.4 v -1.34 c 0,-1.74 0.72,-2.4 1.85,-2.4 1.13,0 1.84,0.66 1.84,2.4 z m 0.95,0 v -1.34 c 0,-2.29 -1.17,-3.25 -2.79,-3.25 -1.62,0 -2.8,1 -2.8,3.25 V 28 c 0,2.3 1.18,3.25 2.8,3.25 1.62,0 2.79,-1 2.79,-3.25 m -8.34,-2.2 c 0,1.08 -0.53,1.53 -2,1.53 -0.27,0 -0.8,0 -1,0 v -3 c 0.25,0 0.71,0 1,0 1.33,0 2,0.4 2,1.45 z m 0.94,0 v -0.13 c 0,-1.67 -1.22,-2.25 -2.89,-2.25 a 14.25,14.25 0 0 0 -1.71,0.09 0.25,0.25 0 0 0 -0.25,0.26 V 31 a 0.2,0.2 0 0 0 0.18,0.21 h 0.56 A 0.2,0.2 0 0 0 267.91,31 v -2.9 c 0.27,0 0.7,0.05 1,0.05 1.67,0 2.89,-0.59 2.89,-2.32 m -11.28,-0.08 c 0,1.11 -0.69,1.44 -2,1.44 h -1.13 v -2.88 c 0.24,0 0.81,0 1.13,0 1.29,0 2,0.34 2,1.38 z m 1.22,5.32 a 0.16,0.16 0 0 0 0,-0.09 l -1.88,-3.14 a 2,2 0 0 0 1.62,-2.09 v -0.07 c 0,-1.68 -1.26,-2.23 -2.89,-2.23 a 16.07,16.07 0 0 0 -1.81,0.09 c -0.19,0 -0.25,0.08 -0.25,0.23 V 31 a 0.2,0.2 0 0 0 0.18,0.21 h 0.56 A 0.21,0.21 0 0 0 257.46,31 v -3 h 1.13 0.27 l 1.85,3.08 c 0.08,0.14 0.14,0.14 0.27,0.14 h 0.66 a 0.13,0.13 0 0 0 0.13,-0.14 m -10.7,-8.43 v -0.84 a 0.23,0.23 0 0 0 -0.21,-0.21 h -0.4 a 0.23,0.23 0 0 0 -0.21,0.21 v 0.84 a 0.2,0.2 0 0 0 0.21,0.19 h 0.4 a 0.21,0.21 0 0 0 0.21,-0.19 m 1.8,0 v -0.84 a 0.22,0.22 0 0 0 -0.2,-0.21 h -0.41 a 0.22,0.22 0 0 0 -0.2,0.21 v 0.84 a 0.2,0.2 0 0 0 0.2,0.19 h 0.41 a 0.2,0.2 0 0 0 0.2,-0.19 m 1.35,5.77 V 23.7 a 0.19,0.19 0 0 0 -0.19,-0.19 h -0.56 a 0.2,0.2 0 0 0 -0.2,0.19 v 4.69 c 0,1.35 -0.41,2.06 -1.69,2.06 -1.28,0 -1.69,-0.72 -1.69,-2.06 V 23.7 a 0.2,0.2 0 0 0 -0.2,-0.19 h -0.56 a 0.19,0.19 0 0 0 -0.19,0.19 v 4.69 c 0,2 1,2.87 2.64,2.87 1.64,0 2.64,-0.89 2.64,-2.87 m -7.35,-1 V 27 a 0.21,0.21 0 0 0 -0.2,-0.21 h -3.18 v -1.43 c 0,-0.79 0.18,-1.08 1.28,-1.08 h 2 a 0.11,0.11 0 0 0 0.11,-0.12 v -0.52 a 0.14,0.14 0 0 0 -0.1,-0.14 c -0.43,0 -1.41,-0.07 -2,-0.07 -1.45,0 -2.2,0.55 -2.2,1.93 V 31 a 0.21,0.21 0 0 0 0.2,0.21 h 0.53 a 0.21,0.21 0 0 0 0.2,-0.21 v -3.4 h 3.18 a 0.2,0.2 0 0 0 0.2,-0.21 M 237,31 v -7.19 a 0.3,0.3 0 0 0 -0.3,-0.3 H 236 c -0.19,0 -0.27,0 -0.33,0.17 L 234,27.23 c 0,0.09 -0.07,0.11 -0.12,0.11 -0.05,0 -0.08,0 -0.13,-0.11 L 232,23.68 c -0.06,-0.13 -0.14,-0.17 -0.33,-0.17 H 231 a 0.29,0.29 0 0 0 -0.3,0.3 V 31 a 0.21,0.21 0 0 0 0.21,0.21 h 0.5 A 0.21,0.21 0 0 0 231.62,31 v -6.15 c 0,0 0,0 0,0 v 0 l 1.48,3.06 a 0.43,0.43 0 0 0 0.46,0.3 h 0.48 a 0.44,0.44 0 0 0 0.46,-0.3 l 1.5,-3.07 c 0,0 0,0 0,0 0,0 0,0 0,0 V 31 a 0.21,0.21 0 0 0 0.21,0.21 h 0.5 A 0.21,0.21 0 0 0 237,31 m -8.56,-2.59 V 23.7 a 0.2,0.2 0 0 0 -0.2,-0.19 h -0.56 a 0.19,0.19 0 0 0 -0.19,0.19 v 4.69 c 0,1.35 -0.42,2.06 -1.7,2.06 -1.28,0 -1.69,-0.72 -1.69,-2.06 V 23.7 a 0.19,0.19 0 0 0 -0.2,-0.19 h -0.55 a 0.19,0.19 0 0 0 -0.2,0.19 v 4.69 c 0,2 1,2.87 2.64,2.87 1.64,0 2.65,-0.89 2.65,-2.87 M 220,25.73 c 0,1.11 -0.69,1.44 -2,1.44 h -1.14 v -2.86 c 0.25,0 0.82,0 1.14,0 1.29,0 2,0.34 2,1.38 z m 1.22,5.32 a 0.16,0.16 0 0 0 0,-0.09 l -1.88,-3.14 a 2,2 0 0 0 1.62,-2.09 v -0.07 c 0,-1.68 -1.26,-2.23 -2.89,-2.23 a 16.26,16.26 0 0 0 -1.82,0.09 c -0.18,0 -0.25,0.08 -0.25,0.23 V 31 a 0.21,0.21 0 0 0 0.19,0.21 h 0.56 A 0.2,0.2 0 0 0 216.93,31 v -3 h 1.14 0.27 l 1.85,3.08 a 0.23,0.23 0 0 0 0.26,0.14 h 0.67 a 0.13,0.13 0 0 0 0.13,-0.14 m -7.14,-6.9 v -0.46 a 0.18,0.18 0 0 0 -0.19,-0.18 h -5 a 0.2,0.2 0 0 0 -0.21,0.18 v 0.46 c 0,0.11 0.1,0.16 0.21,0.16 h 2 V 31 a 0.21,0.21 0 0 0 0.19,0.21 h 0.57 A 0.2,0.2 0 0 0 211.86,31 v -6.69 h 2 c 0.11,0 0.19,-0.06 0.19,-0.16 m -6.9,6.74 V 23.7 a 0.19,0.19 0 0 0 -0.19,-0.19 h -0.55 a 0.19,0.19 0 0 0 -0.18,0.19 v 6.05 c 0,0 0,0 0,0 v 0 l -3.17,-6 c -0.09,-0.15 -0.14,-0.2 -0.43,-0.2 h -0.57 a 0.29,0.29 0 0 0 -0.3,0.29 v 7.26 c 0,0.11 0.09,0.13 0.19,0.13 h 0.54 a 0.2,0.2 0 0 0 0.18,-0.2 V 25 c 0,0 0,0 0,0 0,0 0,0 0,0 l 3.2,6.07 a 0.34,0.34 0 0 0 0.33,0.17 h 0.64 a 0.31,0.31 0 0 0 0.3,-0.3 m -7.51,0.17 v -0.52 c 0,-0.08 0,-0.13 -0.11,-0.13 h -2 c -1.09,0 -1.27,-0.29 -1.27,-1.07 V 27.6 h 3.17 a 0.21,0.21 0 0 0 0.21,-0.21 V 27 a 0.21,0.21 0 0 0 -0.21,-0.21 h -3.12 v -1.43 c 0,-0.79 0.18,-1.08 1.27,-1.08 h 2 a 0.11,0.11 0 0 0 0.11,-0.12 v -0.52 a 0.14,0.14 0 0 0 -0.1,-0.14 c -0.44,0 -1.41,-0.07 -2,-0.07 -1.44,0 -2.2,0.55 -2.2,1.93 v 4 c 0,1.37 0.76,1.92 2.2,1.92 0.61,0 1.62,0 2,-0.05 0.06,0 0.1,-0.09 0.1,-0.15 M 193.29,31 v -0.49 c 0,-0.11 -0.1,-0.17 -0.21,-0.17 h -3.71 c -0.07,0 -0.1,0 -0.1,-0.06 a 0.22,0.22 0 0 1 0,-0.1 L 193,24.8 a 1.29,1.29 0 0 0 0.16,-0.61 c 0,-0.57 -0.3,-0.68 -0.88,-0.68 h -3.68 c -0.12,0 -0.21,0.07 -0.21,0.17 v 0.49 c 0,0.11 0.1,0.17 0.21,0.17 h 3.4 a 0.09,0.09 0 0 1 0.1,0.08 0.16,0.16 0 0 1 0,0.08 l -3.7,5.38 a 1.3,1.3 0 0 0 -0.15,0.6 c 0,0.55 0.19,0.71 0.85,0.71 h 4 A 0.21,0.21 0 0 0 193.31,31 m -6.84,-2.64 V 28 a 0.18,0.18 0 0 0 -0.2,-0.18 H 184.2 A 0.18,0.18 0 0 0 184,28 v 0.4 c 0,0.12 0.08,0.18 0.2,0.18 h 2.05 a 0.18,0.18 0 0 0 0.2,-0.18 m -4.21,2.6 v -0.49 c 0,-0.11 -0.1,-0.17 -0.21,-0.17 h -3.71 c -0.07,0 -0.1,0 -0.1,-0.06 a 0.22,0.22 0 0 1 0,-0.1 l 3.69,-5.38 a 1.29,1.29 0 0 0 0.16,-0.61 c 0,-0.57 -0.3,-0.68 -0.88,-0.68 h -3.67 c -0.12,0 -0.21,0.07 -0.21,0.17 v 0.49 c 0,0.11 0.1,0.17 0.21,0.17 H 181 a 0.09,0.09 0 0 1 0.1,0.08 0.16,0.16 0 0 1 0,0.08 l -3.7,5.38 a 1.3,1.3 0 0 0 -0.15,0.6 c 0,0.55 0.19,0.71 0.85,0.71 h 4 A 0.21,0.21 0 0 0 182.31,31 m -6.71,-6.85 v -0.46 a 0.18,0.18 0 0 0 -0.19,-0.18 h -5 a 0.2,0.2 0 0 0 -0.21,0.18 v 0.46 c 0,0.11 0.1,0.16 0.21,0.16 h 2 V 31 a 0.21,0.21 0 0 0 0.19,0.21 h 0.57 A 0.2,0.2 0 0 0 173.35,31 v -6.69 h 2 c 0.11,0 0.19,-0.06 0.19,-0.16 M 169.92,31 v -0.48 c 0,-0.08 0,-0.13 -0.12,-0.13 h -2 c -1.09,0 -1.27,-0.29 -1.27,-1.07 v -5.61 a 0.2,0.2 0 0 0 -0.21,-0.2 h -0.52 a 0.2,0.2 0 0 0 -0.21,0.2 v 5.63 c 0,1.7 1.1,1.92 2.2,1.92 a 17.9,17.9 0 0 0 2,-0.09 c 0.06,0 0.1,-0.09 0.1,-0.15 m -7.42,-3 c 0,1.74 -0.71,2.4 -1.84,2.4 -1.13,0 -1.84,-0.66 -1.84,-2.4 v -1.34 c 0,-1.74 0.72,-2.4 1.84,-2.4 1.12,0 1.84,0.66 1.84,2.4 z m 0.95,0 v -1.34 c 0,-2.29 -1.16,-3.25 -2.79,-3.25 -1.63,0 -2.79,1 -2.79,3.25 V 28 c 0,2.3 1.17,3.25 2.79,3.25 1.62,0 2.79,-1 2.79,-3.25 m -7.73,3 v -7.29 a 0.21,0.21 0 0 0 -0.21,-0.2 H 155 a 0.2,0.2 0 0 0 -0.2,0.2 v 3 h -3.53 v -3 a 0.21,0.21 0 0 0 -0.21,-0.2 h -0.53 a 0.2,0.2 0 0 0 -0.2,0.2 V 31 a 0.21,0.21 0 0 0 0.2,0.21 H 151 A 0.22,0.22 0 0 0 151.21,31 v -3.45 h 3.53 V 31 a 0.21,0.21 0 0 0 0.2,0.21 h 0.53 A 0.22,0.22 0 0 0 155.68,31 M 148,31 v -7.19 a 0.29,0.29 0 0 0 -0.3,-0.3 H 147 c -0.18,0 -0.27,0 -0.33,0.17 L 145,27.23 c 0,0.09 -0.07,0.11 -0.13,0.11 -0.06,0 -0.08,0 -0.12,-0.11 L 143,23.68 c -0.07,-0.13 -0.15,-0.17 -0.33,-0.17 H 142 a 0.3,0.3 0 0 0 -0.3,0.3 V 31 a 0.22,0.22 0 0 0 0.21,0.21 h 0.51 a 0.21,0.21 0 0 0 0.2,-0.21 v -6.15 c 0,0 0,0 0,0 v 0 l 1.47,3.06 a 0.45,0.45 0 0 0 0.47,0.3 h 0.47 a 0.45,0.45 0 0 0 0.47,-0.3 l 1.5,-3.07 c 0,0 0,0 0,0 0,0 0,0 0,0 V 31 a 0.22,0.22 0 0 0 0.21,0.21 h 0.51 A 0.21,0.21 0 0 0 148,31 m -8,0 v -0.48 c 0,-0.08 0,-0.13 -0.11,-0.13 h -2 c -1.09,0 -1.27,-0.29 -1.27,-1.07 v -5.61 a 0.2,0.2 0 0 0 -0.2,-0.2 h -0.53 a 0.21,0.21 0 0 0 -0.21,0.2 v 5.63 c 0,1.7 1.1,1.92 2.2,1.92 a 17.9,17.9 0 0 0 2,-0.09 c 0.06,0 0.1,-0.09 0.1,-0.15 m -6.41,0 V 30.5 c 0,-0.08 0,-0.13 -0.12,-0.13 h -2 c -1.09,0 -1.27,-0.29 -1.27,-1.07 v -1.7 h 3.17 a 0.21,0.21 0 0 0 0.21,-0.21 V 27 a 0.22,0.22 0 0 0 -0.21,-0.21 h -3.17 v -1.43 c 0,-0.79 0.18,-1.08 1.27,-1.08 h 2 a 0.11,0.11 0 0 0 0.12,-0.12 v -0.52 a 0.14,0.14 0 0 0 -0.11,-0.14 c -0.43,0 -1.4,-0.07 -2,-0.07 -1.45,0 -2.2,0.55 -2.2,1.93 v 4 c 0,1.37 0.75,1.92 2.2,1.92 0.61,0 1.62,0 2,-0.05 a 0.15,0.15 0 0 0 0.11,-0.15 M 127,31 v -7.29 a 0.21,0.21 0 0 0 -0.21,-0.2 h -0.53 a 0.2,0.2 0 0 0 -0.2,0.2 v 3 h -3.53 v -3 a 0.21,0.21 0 0 0 -0.21,-0.2 h -0.53 a 0.2,0.2 0 0 0 -0.2,0.2 V 31 a 0.21,0.21 0 0 0 0.2,0.21 h 0.53 A 0.22,0.22 0 0 0 122.53,31 V 27.55 H 126 V 31 a 0.21,0.21 0 0 0 0.2,0.21 h 0.53 A 0.22,0.22 0 0 0 127,31"
             fill="#ffffff"
             id="path24815"
             style="fill:#004867;fill-opacity:0.99215686;stroke-width:0.545766" /><path
             d="M 291.08,10.42 V 9.48 a 0.22,0.22 0 0 0 -0.24,-0.22 h -5.78 a 0.23,0.23 0 0 0 -0.24,0.22 v 0.94 a 0.22,0.22 0 0 0 0.24,0.21 h 2.07 v 7.19 a 0.24,0.24 0 0 0 0.24,0.24 h 1.17 a 0.23,0.23 0 0 0 0.23,-0.24 v -7.19 h 2.07 a 0.21,0.21 0 0 0 0.24,-0.21 M 283,14.8 V 9.48 a 0.23,0.23 0 0 0 -0.24,-0.22 h -1.17 a 0.23,0.23 0 0 0 -0.24,0.22 v 5.32 c 0,1.35 -0.33,2 -1.61,2 -1.28,0 -1.61,-0.64 -1.61,-2 V 9.48 A 0.22,0.22 0 0 0 277.9,9.26 h -1.18 a 0.22,0.22 0 0 0 -0.23,0.22 v 5.32 c 0,2.53 1.35,3.36 3.25,3.36 1.9,0 3.26,-0.83 3.26,-3.36 m -8.35,-4.38 V 9.48 a 0.22,0.22 0 0 0 -0.24,-0.22 h -5.78 a 0.23,0.23 0 0 0 -0.24,0.22 v 0.94 a 0.22,0.22 0 0 0 0.24,0.21 h 2.07 v 7.19 a 0.24,0.24 0 0 0 0.24,0.24 h 1.17 a 0.23,0.23 0 0 0 0.23,-0.24 v -7.19 h 2.07 a 0.21,0.21 0 0 0 0.24,-0.21 m -8.15,7.4 V 9.48 a 0.23,0.23 0 0 0 -0.24,-0.22 h -1.17 a 0.23,0.23 0 0 0 -0.24,0.22 v 8.34 a 0.24,0.24 0 0 0 0.24,0.24 h 1.17 a 0.24,0.24 0 0 0 0.24,-0.24 M 263,10.42 V 9.48 a 0.23,0.23 0 0 0 -0.24,-0.22 h -5.79 a 0.22,0.22 0 0 0 -0.23,0.22 v 0.94 a 0.21,0.21 0 0 0 0.23,0.21 H 259 v 7.19 a 0.24,0.24 0 0 0 0.24,0.24 h 1.17 a 0.24,0.24 0 0 0 0.24,-0.24 v -7.19 h 2.07 a 0.22,0.22 0 0 0 0.24,-0.21 m -7.8,5.26 a 2.58,2.58 0 0 0 -1.65,-2.42 l -1.42,-0.79 c -0.77,-0.43 -1,-0.66 -1,-1.05 0,-0.39 0.37,-0.85 1.24,-0.85 0.87,0 1.56,0 2.34,0.12 v 0 a 0.2,0.2 0 0 0 0.2,-0.21 V 9.6 a 0.23,0.23 0 0 0 -0.21,-0.22 12.57,12.57 0 0 0 -2.27,-0.22 c -2.21,0 -3,0.95 -3,2.26 a 2.32,2.32 0 0 0 1.39,2.16 l 1.57,0.94 c 0.78,0.46 1,0.7 1,1.16 0,0.69 -0.32,1.07 -1.37,1.07 -0.44,0 -1.62,-0.06 -2.1,-0.12 v 0 a 0.22,0.22 0 0 0 -0.22,0.22 v 0.86 a 0.24,0.24 0 0 0 0.22,0.23 9.06,9.06 0 0 0 2.1,0.22 c 2.36,0 3.11,-1.28 3.11,-2.48 m -7.81,1.91 V 9.48 a 0.22,0.22 0 0 0 -0.23,-0.22 h -1 a 0.21,0.21 0 0 0 -0.22,0.22 v 6.24 c 0,0.07 0,0.1 -0.06,0.1 -0.06,0 -0.07,0 -0.1,-0.09 L 243,9.64 c -0.14,-0.31 -0.28,-0.38 -0.52,-0.38 h -1.28 a 0.48,0.48 0 0 0 -0.48,0.47 v 8.09 a 0.24,0.24 0 0 0 0.24,0.24 h 1 a 0.23,0.23 0 0 0 0.22,-0.24 v -6 c 0,-0.07 0,-0.09 0.06,-0.09 0.06,0 0.07,0 0.11,0.09 l 2.65,5.81 a 0.63,0.63 0 0 0 0.72,0.43 h 1.19 a 0.48,0.48 0 0 0 0.48,-0.47 m -9.14,0.23 V 9.48 a 0.23,0.23 0 0 0 -0.24,-0.22 h -1.17 a 0.23,0.23 0 0 0 -0.24,0.22 v 8.34 a 0.24,0.24 0 0 0 0.24,0.24 H 238 a 0.24,0.24 0 0 0 0.24,-0.24 m -3.75,-3 V 14 a 0.22,0.22 0 0 0 -0.23,-0.22 H 231.9 A 0.22,0.22 0 0 0 231.67,14 v 0.75 a 0.22,0.22 0 0 0 0.23,0.22 h 2.32 a 0.22,0.22 0 0 0 0.23,-0.22 M 228.08,12 c 0,1 -0.56,1.37 -1.78,1.37 h -1.05 v -2.75 c 0.21,0 0.81,0 1.05,0 1.19,0 1.78,0.38 1.78,1.27 z m 1.92,6 a 0.16,0.16 0 0 0 0,-0.1 l -1.86,-3.46 a 2.38,2.38 0 0 0 1.6,-2.41 v -0.11 c 0,-2 -1.58,-2.68 -3.41,-2.68 a 15.44,15.44 0 0 0 -2.32,0.16 c -0.23,0 -0.37,0.12 -0.37,0.35 v 8.15 a 0.23,0.23 0 0 0 0.23,0.24 H 225 a 0.23,0.23 0 0 0 0.22,-0.24 v -3.29 c 0.27,0 0.75,0.05 1.05,0.05 h 0.17 l 1.7,3.16 c 0.06,0.12 0.11,0.24 0.24,0.24 h 1.44 a 0.13,0.13 0 0 0 0.15,-0.14 m -8.7,-0.18 V 17 a 0.23,0.23 0 0 0 -0.24,-0.23 h -2.41 c -0.69,0 -0.94,-0.24 -0.94,-1 V 14.2 h 3.21 a 0.24,0.24 0 0 0 0.24,-0.24 v -0.85 a 0.24,0.24 0 0 0 -0.24,-0.24 h -3.21 v -1.28 c 0,-0.78 0.25,-1 0.94,-1 h 2.41 a 0.23,0.23 0 0 0 0.24,-0.23 V 9.58 c 0,-0.17 -0.06,-0.23 -0.24,-0.25 a 11,11 0 0 0 -2.25,-0.17 c -1.54,0 -2.73,0.42 -2.73,2.43 v 4.14 c 0,2 1.19,2.43 2.73,2.43 a 11,11 0 0 0 2.25,-0.17 c 0.18,0 0.24,-0.08 0.24,-0.25 m -7.71,-0.15 V 9.48 a 0.21,0.21 0 0 0 -0.22,-0.22 h -1 a 0.22,0.22 0 0 0 -0.23,0.22 v 6.24 c 0,0.07 0,0.1 -0.05,0.1 a 0.11,0.11 0 0 1 -0.1,-0.09 L 209.2,9.64 c -0.14,-0.31 -0.27,-0.38 -0.52,-0.38 h -1.28 a 0.47,0.47 0 0 0 -0.47,0.47 v 8.09 a 0.24,0.24 0 0 0 0.24,0.24 h 1 a 0.23,0.23 0 0 0 0.23,-0.24 v -6 c 0,-0.07 0,-0.09 0.06,-0.09 0.06,0 0.07,0 0.1,0.09 l 2.63,5.77 a 0.64,0.64 0 0 0 0.72,0.43 h 1.2 a 0.47,0.47 0 0 0 0.47,-0.47 m -9,0.15 V 17 a 0.23,0.23 0 0 0 -0.23,-0.23 H 202 c -0.68,0 -0.93,-0.24 -0.93,-1 V 14.2 h 3.2 a 0.24,0.24 0 0 0 0.24,-0.24 v -0.85 a 0.24,0.24 0 0 0 -0.24,-0.24 h -3.2 v -1.28 c 0,-0.78 0.25,-1 0.93,-1 h 2.42 a 0.23,0.23 0 0 0 0.23,-0.23 V 9.58 c 0,-0.17 -0.06,-0.23 -0.23,-0.25 a 11,11 0 0 0 -2.25,-0.17 c -1.54,0 -2.74,0.42 -2.74,2.43 v 4.14 c 0,2 1.2,2.43 2.74,2.43 A 11,11 0 0 0 204.4,18 c 0.17,0 0.23,-0.08 0.23,-0.25 m -7.7,-0.07 v -4 a 0.24,0.24 0 0 0 -0.24,-0.24 h -1.17 a 0.23,0.23 0 0 0 -0.23,0.24 v 3 c -0.36,0 -0.73,0 -1.17,0 -0.7,0 -1.51,-0.55 -1.51,-2.23 v -1.64 c 0,-1.68 0.75,-2.24 1.55,-2.24 1.13,0 2,0 2.5,0.1 v 0 c 0.19,0 0.24,-0.08 0.24,-0.25 V 9.63 c 0,-0.16 -0.07,-0.22 -0.23,-0.25 a 15.5,15.5 0 0 0 -2.54,-0.22 c -1.41,0 -3.21,0.85 -3.21,3.65 v 1.71 c 0,2.79 1.89,3.64 3.17,3.64 a 12.7,12.7 0 0 0 2.61,-0.16 0.26,0.26 0 0 0 0.23,-0.28 m -8.05,0.07 V 17 a 0.23,0.23 0 0 0 -0.24,-0.23 h -2.41 c -0.69,0 -0.94,-0.24 -0.94,-1 V 14.2 h 3.21 a 0.24,0.24 0 0 0 0.24,-0.24 v -0.85 a 0.24,0.24 0 0 0 -0.24,-0.24 h -3.21 v -1.28 c 0,-0.78 0.25,-1 0.94,-1 h 2.41 a 0.23,0.23 0 0 0 0.24,-0.23 V 9.58 c 0,-0.17 -0.06,-0.23 -0.24,-0.25 a 11,11 0 0 0 -2.25,-0.17 c -1.54,0 -2.73,0.42 -2.73,2.43 v 4.14 c 0,2 1.19,2.43 2.73,2.43 a 11,11 0 0 0 2.25,-0.17 c 0.18,0 0.24,-0.08 0.24,-0.25 m -7,-8.32 a 0.18,0.18 0 0 0 -0.2,-0.16 h -1.26 a 0.22,0.22 0 0 0 -0.2,0.21 l -0.85,7.07 c 0,0.11 0,0.18 -0.06,0.18 -0.06,0 -0.05,-0.07 -0.07,-0.18 l -1,-4.15 a 0.66,0.66 0 0 0 -0.75,-0.54 h -0.81 a 0.66,0.66 0 0 0 -0.75,0.54 l -1,4.15 c 0,0.11 0,0.18 -0.07,0.18 -0.07,0 -0.05,-0.07 -0.06,-0.18 l -0.85,-7.07 a 0.22,0.22 0 0 0 -0.2,-0.21 h -1.26 a 0.18,0.18 0 0 0 -0.2,0.16 v 0 l 1.12,7.74 c 0.1,0.74 0.45,1 1.06,1 h 0.64 c 0.53,0 0.82,-0.26 1,-0.95 L 177,13.3 c 0,-0.11 0,-0.13 0.08,-0.13 0.08,0 0,0 0.07,0.13 l 0.94,3.91 c 0.16,0.69 0.45,0.95 1,0.95 h 0.64 c 0.61,0 1,-0.22 1.06,-1 l 1.12,-7.74 z m -11.14,5.37 V 14 a 0.22,0.22 0 0 0 -0.23,-0.22 h -2.32 A 0.22,0.22 0 0 0 168,14 v 0.75 a 0.22,0.22 0 0 0 0.23,0.22 h 2.32 a 0.22,0.22 0 0 0 0.23,-0.22 m -6.29,-0.26 c 0,1.78 -0.9,2.24 -2.08,2.24 -0.44,0 -0.74,0 -1,0 v -6.14 c 0.25,0 0.55,0 1,0 1.18,0 2.08,0.46 2.08,2.24 z m 1.64,0 v -1.7 c 0,-2.35 -1.35,-3.63 -3.72,-3.63 a 19.43,19.43 0 0 0 -2.33,0.15 0.32,0.32 0 0 0 -0.31,0.36 v 8 a 0.32,0.32 0 0 0 0.31,0.36 19.43,19.43 0 0 0 2.33,0.15 c 2.37,0 3.72,-1.28 3.72,-3.63 m -8.67,3.21 V 17 a 0.23,0.23 0 0 0 -0.23,-0.23 h -2.42 c -0.68,0 -0.93,-0.24 -0.93,-1 V 14.2 h 3.2 a 0.24,0.24 0 0 0 0.24,-0.24 v -0.85 a 0.24,0.24 0 0 0 -0.24,-0.24 h -3.2 v -1.28 c 0,-0.78 0.25,-1 0.93,-1 h 2.42 a 0.23,0.23 0 0 0 0.23,-0.23 V 9.58 c 0,-0.17 -0.06,-0.23 -0.23,-0.25 A 11,11 0 0 0 155,9.16 c -1.54,0 -2.74,0.42 -2.74,2.43 v 4.14 c 0,2 1.2,2.43 2.74,2.43 a 11,11 0 0 0 2.25,-0.17 c 0.17,0 0.23,-0.08 0.23,-0.25 M 148.56,12 c 0,1 -0.56,1.37 -1.78,1.37 h -1.05 v -2.75 c 0.21,0 0.8,0 1.05,0 1.18,0 1.78,0.38 1.78,1.27 z m 1.91,6 a 0.22,0.22 0 0 0 0,-0.1 l -1.86,-3.46 a 2.39,2.39 0 0 0 1.6,-2.41 v -0.11 c 0,-2 -1.59,-2.68 -3.41,-2.68 a 15.44,15.44 0 0 0 -2.32,0.16 c -0.24,0 -0.38,0.12 -0.38,0.35 v 8.15 a 0.24,0.24 0 0 0 0.24,0.24 h 1.18 a 0.23,0.23 0 0 0 0.23,-0.24 v -3.29 c 0.27,0 0.74,0.05 1.05,0.05 h 0.2 l 1.7,3.16 c 0.06,0.12 0.11,0.24 0.24,0.24 h 1.44 a 0.13,0.13 0 0 0 0.14,-0.14 m -8.7,-7.58 V 9.58 c 0,-0.17 -0.06,-0.23 -0.23,-0.25 a 11,11 0 0 0 -2.25,-0.17 c -1.54,0 -2.74,0.42 -2.74,2.43 v 6.23 a 0.24,0.24 0 0 0 0.24,0.24 H 138 a 0.24,0.24 0 0 0 0.24,-0.24 V 14.2 h 3.21 a 0.23,0.23 0 0 0 0.23,-0.24 v -0.85 a 0.23,0.23 0 0 0 -0.23,-0.24 h -3.21 v -1.28 c 0,-0.78 0.25,-1 0.93,-1 h 2.42 a 0.23,0.23 0 0 0 0.23,-0.23 m -7.05,7.4 V 17 a 0.23,0.23 0 0 0 -0.24,-0.23 h -2.17 c -0.69,0 -0.93,-0.24 -0.93,-1 V 9.5 A 0.23,0.23 0 0 0 131.2,9.26 H 130 a 0.23,0.23 0 0 0 -0.23,0.24 v 6.23 c 0,2 1.19,2.43 2.73,2.43 a 13,13 0 0 0 2,-0.17 c 0.18,0 0.24,-0.08 0.24,-0.25 m -9.13,-3.48 h -2.08 l 0.85,-3.52 c 0,-0.14 0.08,-0.19 0.19,-0.19 0.11,0 0.16,0 0.19,0.19 z m 2.56,3.6 c 0,0 0,0 0,-0.06 l -1.94,-7.43 a 1.72,1.72 0 0 0 -3.29,0 L 121,17.8 c 0,0 0,0.05 0,0.06 a 0.2,0.2 0 0 0 0.21,0.2 h 1.25 a 0.25,0.25 0 0 0 0.23,-0.2 l 0.54,-2.25 h 2.72 l 0.55,2.25 a 0.24,0.24 0 0 0 0.22,0.2 h 1.26 a 0.2,0.2 0 0 0 0.21,-0.2"
             fill="#ffffff"
             id="path24817"
             style="fill:#004867;fill-opacity:0.99215686;stroke-width:0.545766" /></g></g></g><text
       xml:space="preserve"
       style="font-style:normal;font-variant:normal;font-weight:normal;font-stretch:normal;font-size:5.64444px;font-family:'Neo Sans Pro';-inkscape-font-specification:'Neo Sans Pro';fill:#ff1f1f;stroke-width:1"
       x="-48.683334"
       y="-747.71246"
       id="text818"><tspan
         sodipodi:role="line"
         id="tspan816"
         style="stroke-width:1"
         x="-48.683334"
         y="-747.71246"></tspan></text></g></svg>
